<svg width="115" height="115" viewBox="0 0 115 115" fill="none" xmlns="http://www.w3.org/2000/svg">
<path fill-rule="evenodd" clip-rule="evenodd" d="M27.1797 50.8204H26.1506L24.8714 56.8252H25.6502C26.9665 56.825 28.0024 56.5068 28.7579 55.8705C29.5134 55.2342 29.8912 54.381 29.8912 53.3109C29.8912 51.6506 28.9874 50.8204 27.1797 50.8204ZM26.9833 46.8174C29.2624 46.8174 30.986 47.352 32.154 48.4212C33.322 49.4905 33.906 51.0943 33.906 53.2328C33.9064 55.6524 33.1083 57.5525 31.5117 58.933C29.9151 60.3135 27.7134 61.0037 24.9068 61.0037H23.6918L22.1518 68.8348H17.8425L22.2081 46.8174H26.9833ZM109.492 57.1395H106.291L103.905 68.8348H99.9687L102.355 57.1395H99.1636L99.8582 53.823H110.207L109.492 57.1395ZM93.2476 68.8348H97.1565L95.8946 53.823H90.7341L83.1009 68.8348H87.2664L88.5486 66.0214H93.145L93.2476 68.8348ZM92.2418 57.9405C92.4958 57.39 92.7051 56.82 92.8676 56.236C92.8401 56.6194 92.8263 57.0678 92.8263 57.5811L92.8472 58.4641L93.0216 62.8178H90.0155L92.2418 57.9405ZM56.7802 53.823C58.7639 53.823 60.2999 54.3175 61.3883 55.3066C62.477 56.2958 63.0213 57.6939 63.0213 59.5009C63.0216 61.4177 62.666 63.0794 61.9544 64.4861C61.2428 65.8927 60.2098 66.9692 58.8553 67.7154C57.5008 68.4617 55.8965 68.8348 54.0425 68.8348H48.9658L52.2961 53.823H56.7802ZM55.7881 57.0983L53.9341 65.5077H54.6778C55.4507 65.5137 56.201 65.2591 56.7958 64.789C57.4173 64.3097 57.9005 63.6269 58.2456 62.7405C58.5906 61.8541 58.7632 60.8427 58.7632 59.7062C58.7635 58.8507 58.5694 58.2022 58.1808 57.7606C57.7929 57.3191 57.2505 57.0983 56.5533 57.0983H55.7881ZM47.8974 68.8348L50.9734 53.823H47.0214L43.9456 68.8348H47.8974ZM14.8307 53.823L11.7548 68.8348H7.80297L7.803 68.8347H6.79625L4.79102 59.8276H8.80959L9.24645 61.7899L10.8788 53.823H14.8307ZM16.8385 46.8174H12.7748L11.8186 50.8205H15.8823L16.8385 46.8174ZM48.9182 46.8174H52.9819L52.0257 50.8205H47.962L48.9182 46.8174ZM42.9422 68.8348H39.0333L38.9307 66.0214H34.3342L33.052 68.8348H28.8866L36.5197 53.823H41.6803L42.9422 68.8348ZM38.6529 56.236C38.4904 56.8201 38.2811 57.3901 38.027 57.9405L35.8007 62.8178H38.8066L38.6322 58.4641L38.6117 57.5811C38.6117 57.0678 38.6254 56.6195 38.6529 56.236ZM86.1126 53.823H82.0132L80.8419 59.3882H77.2025L78.3739 53.823H74.2844L71.0531 68.8348H75.1422L76.47 62.7151H80.0886L78.7815 68.8348H82.8705L86.1126 53.823ZM77.3028 50.7028H72.3111L68.7197 68.8348H64.4066L67.9985 50.7028H63.021L63.7987 46.8174H78.0805L77.3028 50.7028Z" fill="#F24C4C"/>
</svg>
