<svg width="115" height="115" viewBox="0 0 115 115" fill="none" xmlns="http://www.w3.org/2000/svg">
<path d="M79.8609 65.6394C79.8609 71.2886 69.8495 75.8682 57.4998 75.8682C45.1501 75.8682 35.1387 71.2886 35.1387 65.6394C35.1387 59.9902 45.1501 55.4106 57.4998 55.4106C69.8495 55.4106 79.8609 59.9902 79.8609 65.6394Z" fill="#3B43ED"/>
<path fill-rule="evenodd" clip-rule="evenodd" d="M57.4807 68.6891C68.005 68.6891 76.5366 60.0961 76.5366 49.4962C76.5366 47.0893 76.0967 44.7858 75.2935 42.663C75.4842 43.1965 75.5838 43.746 75.5838 44.3074C75.5838 49.3711 67.4788 53.4761 57.4807 53.4761C47.4827 53.4761 39.3776 49.3711 39.3776 44.3074C39.3776 43.7451 39.4776 43.1945 39.669 42.6602C38.8651 44.7838 38.4248 47.0882 38.4248 49.4962C38.4248 60.0961 46.9564 68.6891 57.4807 68.6891Z" fill="white"/>
<ellipse cx="57.4888" cy="44.3076" rx="18.1031" ry="9.16871" fill="#E6E6E7"/>
<path d="M39.3818 44.4751C39.3818 46.9858 41.4064 49.1327 44.6841 50.7926C47.7522 52.3452 51.917 53.3462 56.539 53.4653H56.5391L56.6569 53.4679C56.8836 53.4726 57.1108 53.4753 57.3412 53.4762L57.3858 53.4763L57.4284 53.4764L57.4886 53.4764L57.5243 53.4764C59.6004 53.4746 61.5995 53.2961 63.456 52.9666C65.3405 52.6353 67.0811 52.1478 68.6223 51.5373C69.21 51.3065 69.7682 51.057 70.2932 50.7889L70.2938 50.7886L70.2943 50.7883C70.3025 50.7833 70.3117 50.7791 70.322 50.7744L70.3225 50.7742C70.3323 50.7696 70.3433 50.7646 70.3534 50.7585L70.3666 50.7505L70.3612 50.736C69.343 48.01 66.7327 46.0745 63.6707 46.0745C61.1657 46.3192 58.638 45.9863 56.2819 45.1013L49.9364 42.718C47.2308 41.7018 44.3001 41.4392 41.457 41.9582C40.45 42.1421 39.5373 42.7228 39.4216 43.7399C39.3968 43.958 39.3818 44.2025 39.3818 44.4751Z" fill="#FFBC96"/>
<path d="M57.4962 53.4762C54.7597 53.4762 51.7573 53.1712 49.8369 52.6207C55.044 53.3385 59.0434 51.6461 62.0534 47.5212C64.2138 44.5604 65.8688 43.2061 69.6868 42.2245C72.2165 41.5741 74.9308 41.7596 75.374 42.8754L75.3746 42.8769C75.4138 42.9757 75.7016 43.7 75.5402 44.9398C75.2448 47.2087 73.2948 49.2656 70.2887 50.7869C69.7939 51.0361 69.2732 51.2742 68.7229 51.4936C66.2117 52.5016 63.1576 53.1786 59.8191 53.3943C59.0583 53.4427 58.2828 53.4762 57.4962 53.4762Z" fill="#FF7B31"/>
</svg>
