<svg width="115" height="115" viewBox="0 0 115 115" fill="none" xmlns="http://www.w3.org/2000/svg">
<path d="M57.0672 79.2275C45.1034 79.2275 35.4102 69.5506 35.4102 57.6134C35.4102 45.6814 45.1034 36.0098 57.0672 36.0098C69.0259 36.0098 78.7243 45.6814 78.7243 57.6134C78.7243 69.5511 69.0259 79.2275 57.0672 79.2275Z" fill="white"/>
<path d="M60.4275 33.7513C59.7749 33.6968 59.439 33.6758 58.7941 33.6758C59.9488 33.7097 61.1117 33.8369 62.2741 34.0678C74.6022 36.463 82.4928 48.875 79.9025 61.7933C77.3098 74.7063 65.2161 83.2357 52.8881 80.8434C52.3394 80.7344 51.7985 80.6072 51.2676 80.4595C53.3639 81.1054 55.6163 81.4582 57.991 81.4582C60.3681 81.4582 62.207 81.1365 63.9622 80.7421C71.5754 79.0167 77.7392 73.6813 80.8158 66.9986C82.1215 64.0771 82.8421 60.8486 82.8421 57.4623C82.8416 44.2381 72.4618 34.7711 60.4275 33.7513" fill="#54BBAB"/>
<path d="M32.2141 55.6738C31.3061 68.6672 41.3769 79.9791 55.1093 81.1542C54.3757 81.0897 53.6345 80.9859 52.888 80.843C40.5599 78.4506 32.6693 66.0329 35.2596 53.1151C37.8345 40.2877 49.7826 31.7893 62.022 34.0186C60.9942 33.8211 59.9516 33.6811 58.885 33.6055C44.9139 32.6508 33.124 42.5275 32.2141 55.6738Z" fill="#5BC5F2"/>
<path d="M62.2761 34.0671C49.9481 31.669 37.8519 40.199 35.2588 53.1144C32.6685 66.0351 40.5591 78.4499 52.8872 80.8422C65.2176 83.235 77.3138 74.7075 79.9045 61.7921C82.4948 48.8767 74.6066 36.4613 62.2761 34.0671ZM57.0692 79.2278C45.1053 79.2278 35.4121 69.5509 35.4121 57.6136C35.4121 45.6816 45.1053 36.01 57.0692 36.01C69.0278 36.01 78.7263 45.6816 78.7263 57.6136C78.7263 69.5514 69.0278 79.2278 57.0692 79.2278Z" fill="#007E92"/>
<path d="M69.0931 47.3167H61.6806C60.3232 47.3167 60.1354 47.8669 60.1354 48.6974C60.1354 48.6974 60.1382 60.7202 60.1382 60.7355C60.0447 63.4916 59.0198 64.3742 57.051 64.3742C55.0357 64.3742 54.0055 63.4448 53.9639 60.5127V48.6978C53.9639 47.8674 53.7688 47.3171 52.4138 47.3171H44.999V61.6343C44.999 64.8025 45.6128 66.1416 46.9262 67.5013C48.9578 69.6163 52.5126 70.5065 57.0511 70.5065C61.5896 70.5065 65.1473 69.6163 67.1837 67.5013C68.4917 66.1416 69.1108 64.8025 69.1108 61.6343L69.0931 47.3167Z" fill="#E42313"/>
</svg>
