<svg width="115" height="115" viewBox="0 0 115 115" fill="none" xmlns="http://www.w3.org/2000/svg">
<path fill-rule="evenodd" clip-rule="evenodd" d="M54.5007 71.7519C53.5596 71.7519 52.6773 71.2148 52.246 70.3707L51.5009 68.7402H44.1092L43.3642 70.3707C42.9328 71.2148 42.0505 71.7519 41.1094 71.7519H40.7173L43.874 95.2888C44.0308 95.73 44.3249 95.73 44.5014 95.2888L47.6384 87.7692L50.3637 95.2696C50.5206 95.7108 50.8147 95.7108 50.9912 95.2696L54.638 71.7711L54.5007 71.7519Z" fill="url(#paint0_linear)"/>
<path fill-rule="evenodd" clip-rule="evenodd" d="M51.2059 68.0874H44.422L43.3828 70.3701C43.0299 71.0607 42.3437 71.5594 41.5986 71.6937L43.9906 86.2148C44.1475 86.4834 44.4416 86.4834 44.6181 86.2148L47.6767 81.6686L50.4804 86.1956C50.6569 86.4642 50.9314 86.4642 51.1078 86.1956L53.8136 71.6553C53.1469 71.4635 52.5587 71.0031 52.245 70.3701L51.2059 68.0874Z" fill="url(#paint1_linear)"/>
<path fill-rule="evenodd" clip-rule="evenodd" d="M52.2473 70.37L47.7966 60.6445L43.3655 70.37C43.2087 70.6578 43.0126 70.9071 42.7773 71.1182L44.6204 80.7669C44.7184 80.9012 44.9733 80.9396 45.1497 80.7669L47.6202 77.5635L50.0906 80.7477C50.2475 80.9396 50.522 80.9012 50.62 80.7477L52.6591 70.9839C52.5022 70.7921 52.365 70.6002 52.2473 70.37Z" fill="url(#paint2_linear)"/>
<path fill-rule="evenodd" clip-rule="evenodd" d="M33.6003 47.408C33.4631 46.9476 33.7376 46.6215 34.2081 46.6215H38.1098C38.3843 46.6215 38.6392 46.8517 38.7177 47.0819L41.5802 58.1118H41.7175L46.874 46.6599C46.972 46.4681 47.1681 46.2954 47.4426 46.2954H48.0504C48.3445 46.2954 48.5406 46.4489 48.619 46.6599L53.7755 58.1118H53.9128L56.7753 47.0819C56.8342 46.8517 57.1087 46.6215 57.3832 46.6215H61.2849C61.7554 46.6215 62.0103 46.9476 61.8927 47.408L55.5989 69.276C55.5401 69.5446 55.2656 69.7364 54.9911 69.7364H54.4618C54.2265 69.7364 53.9912 69.5829 53.8932 69.3719L47.7955 56.0593H47.6975L41.639 69.3719C41.541 69.5637 41.3057 69.7364 41.0704 69.7364H40.5411C40.2666 69.7364 40.0117 69.5446 39.9333 69.276L33.6003 47.408Z" fill="#F56F46"/>
<path fill-rule="evenodd" clip-rule="evenodd" d="M65.3608 47.2349C65.3608 46.9088 65.6353 46.6211 65.9883 46.6211H74.0073C78.1051 46.6211 81.4578 49.8821 81.4578 53.8145C81.4578 57.8428 78.1051 61.1422 74.0466 61.1422H70.5566V68.796C70.5566 69.1221 70.2625 69.4099 69.9292 69.4099H66.0079C65.6353 69.4099 65.3804 69.1221 65.3804 68.796V47.2349H65.3608ZM73.7132 56.385C75.1445 56.385 76.3405 55.2724 76.3405 53.8145C76.3405 52.4526 75.1445 51.3975 73.7132 51.3975H70.5566V56.385H73.7132Z" fill="#F56F46"/>
<defs>
<linearGradient id="paint0_linear" x1="40.4889" y1="95.7588" x2="40.6832" y2="68.74" gradientUnits="userSpaceOnUse">
<stop stop-color="#E25D35"/>
<stop offset="0.260417" stop-color="#F56F46"/>
<stop offset="1" stop-color="#FFD147"/>
</linearGradient>
<linearGradient id="paint1_linear" x1="41.3982" y1="86.5111" x2="41.5012" y2="68.0869" gradientUnits="userSpaceOnUse">
<stop stop-color="#E25D35"/>
<stop offset="0.260417" stop-color="#F56F46"/>
<stop offset="1" stop-color="#FFD147"/>
</linearGradient>
<linearGradient id="paint2_linear" x1="42.6152" y1="80.9873" x2="42.7704" y2="60.6445" gradientUnits="userSpaceOnUse">
<stop stop-color="#E25D35"/>
<stop offset="0.260417" stop-color="#F56F46"/>
<stop offset="1" stop-color="#FFD147"/>
</linearGradient>
</defs>
</svg>
