<svg width="115" height="115" viewBox="0 0 115 115" fill="none" xmlns="http://www.w3.org/2000/svg">
<path fill-rule="evenodd" clip-rule="evenodd" d="M46.6385 33.802C47.1411 33.5189 47.7164 33.4654 48.3506 33.6481C50.8412 34.362 52.773 36.4454 53.6516 39.3638C54.5642 42.3948 54.2425 45.8163 52.8848 48.7844C55.85 47.7251 58.8081 47.3658 60.8318 47.535C62.6372 47.6861 64.2631 49.0155 64.974 50.9225C65.466 52.2429 65.4111 53.5919 64.8717 54.7505C65.8472 55.2936 66.6132 56.2276 66.9925 57.4263C67.5001 59.0312 67.2215 60.7593 66.3051 62.1461C67.5121 62.9692 68.4137 64.2667 68.6926 65.6929C68.8476 66.4836 68.8901 67.7702 68.1443 69.2162C70.7343 68.8145 74.4755 68.4838 77.0272 69.3361C80.0333 70.3374 81.1708 72.7817 80.9643 74.7607C80.7694 76.6276 79.4464 78.0158 77.6716 78.2156C76.499 78.3477 74.9977 78.3861 73.2586 78.4294C69.3392 78.5275 63.9709 78.6621 58.7098 80.0421C55.1272 80.9815 51.9754 81.4584 49.2217 81.4584C41.606 81.4584 37.0317 77.8124 34.7911 70.2302C32.9478 63.9897 34.4053 56.8741 38.7906 50.7083C42.5605 45.4088 43.8012 40.8942 44.6218 37.9068C45.2029 35.7924 45.5869 34.3954 46.6385 33.802ZM60.2776 69.4126C60.2635 69.4204 58.8351 70.2367 57.5063 70.2367C56.9182 70.2367 56.4418 70.7151 56.4418 71.3053C56.4418 71.8957 56.9182 72.3746 57.5063 72.3746C59.4262 72.3746 61.2733 71.3047 61.3512 71.2596C61.8588 70.9615 62.0301 70.3063 61.7336 69.7972C61.4374 69.2865 60.7851 69.1141 60.2776 69.4126ZM58.8592 62.3083C58.8453 62.3167 57.4169 63.1324 56.0877 63.1324C55.4998 63.1324 55.023 63.6112 55.023 64.2013C55.023 64.7919 55.4998 65.2707 56.0877 65.2707C58.0076 65.2707 59.8547 64.2005 59.9328 64.1555C60.4404 63.8576 60.6117 63.2026 60.3154 62.6933C60.0183 62.1815 59.3667 62.0101 58.8592 62.3083ZM57.6145 55.7249C57.6003 55.7332 56.1721 56.5491 54.843 56.5491C54.2547 56.5491 53.7786 57.0285 53.7786 57.6182C53.7786 58.2084 54.2547 58.6874 54.843 58.6874C56.7628 58.6874 58.61 57.6178 58.6879 57.5726C59.1955 57.2745 59.3666 56.6195 59.0703 56.11C58.7741 55.5992 58.1217 55.427 57.6145 55.7249Z" fill="#212B5E"/>
</svg>
