<svg width="115" height="115" viewBox="0 0 115 115" fill="none" xmlns="http://www.w3.org/2000/svg">
<g clip-path="url(#clip0)">
<path fill-rule="evenodd" clip-rule="evenodd" d="M49.8576 23.1597V58.8256H40.5938V27.1567L49.8576 23.1597ZM55.8792 29.6444L73.9437 34.7578V58.8256H55.8792V29.6444Z" fill="#FF4D37"/>
<path d="M15.9878 84.5327C15.9878 86.8394 14.8484 88.7014 12.5417 88.7014C10.2618 88.7014 9.12216 86.8824 9.09597 84.613L9.09551 77.0289H4.92676V84.5327C4.92676 88.9238 7.92826 92.4811 12.5417 92.4811C17.1551 92.4811 20.1566 88.9238 20.1566 84.5327V77.0289H15.9878V84.5327ZM30.4395 77.0474C25.8261 77.0474 22.6578 80.6048 22.6578 84.9959V92.4996H26.8266V84.9959C26.8266 82.6892 28.1328 80.8271 30.4395 80.8271C32.7462 80.8271 34.0524 82.6892 34.0524 84.9959V92.4996H38.2212V84.9959C38.2212 80.6048 35.0529 77.0474 30.4395 77.0474ZM40.8614 92.4996H45.0301V69.7104L40.8614 71.5632V92.4996ZM55.4937 76.9826C51.0816 76.9826 47.5036 80.4509 47.5036 84.7321C47.5036 89.0133 51.0816 92.4815 55.4937 92.4815C57.2424 92.4815 58.8027 91.5874 59.7174 90.2326V92.4996H63.4838V84.7321C63.4838 80.4509 59.9057 76.9826 55.4937 76.9826ZM55.4937 88.7941C53.2511 88.7941 51.4407 86.9837 51.4407 84.7411C51.4407 82.4985 53.2511 80.6882 55.4937 80.6882C57.7363 80.6882 59.5466 82.4985 59.5466 84.7411C59.5466 86.9837 57.7363 88.7941 55.4937 88.7941ZM70.2094 69.7104L66.0406 71.5632V84.5327C66.0406 88.9238 69.2089 92.4811 73.8223 92.4811H74.3781V88.7014C72.0714 88.7014 70.2094 86.8394 70.2094 84.5327V80.5863H74.3781V77.0289H70.2094V69.7104ZM84.5094 80.6534C86.0777 80.6534 87.4026 81.5215 88.1057 82.8236H92.3779C91.4856 79.4598 88.2949 76.9641 84.5094 76.9641C80.0209 76.9641 76.3977 80.4364 76.3977 84.7226C76.3977 89.0087 80.0209 92.4811 84.5094 92.4811C88.2679 92.4811 91.4044 90.0396 92.3238 86.73H87.9705C87.2945 87.9508 86.0236 88.7917 84.5094 88.7917C82.2652 88.7917 80.4535 86.9742 80.4535 84.7226C80.4535 82.471 82.2652 80.6534 84.5094 80.6534ZM102.225 77.0474C106.839 77.0474 110.007 80.6048 110.007 84.9959V92.4996H105.838V84.9959C105.838 82.6892 104.532 80.8271 102.225 80.8271C99.9187 80.8271 98.6125 82.6892 98.6125 84.9681V92.4996H94.4437V71.5632L98.6125 69.7104V78.3814C99.5852 77.5477 100.836 77.0474 102.225 77.0474Z" fill="black"/>
</g>
<defs>
<clipPath id="clip0">
<rect width="105.145" height="69.4792" fill="white" transform="translate(4.92676 23.1597)"/>
</clipPath>
</defs>
</svg>
