<svg width="115" height="115" viewBox="0 0 115 115" fill="none" xmlns="http://www.w3.org/2000/svg">
<path fill-rule="evenodd" clip-rule="evenodd" d="M57.977 74.0696C48.8937 74.0696 42.5566 67.8002 42.5566 58.396C42.5566 48.0963 49.3162 41.155 58.1882 41.155C64.5255 41.155 68.3276 44.0659 68.3276 46.9767C68.3276 48.7679 67.2715 49.8876 65.5816 49.8876C63.6805 49.8876 62.8356 48.7679 62.4131 46.5289C61.9906 44.0659 61.3568 42.4985 58.1882 42.4985C52.696 42.4985 49.3162 48.0963 49.3162 57.9484C49.3162 67.1286 53.3298 72.0546 59.8781 72.0546C64.3143 72.0546 67.2715 69.5915 68.1166 65.3373H69.384C68.5389 70.7109 64.3143 74.0696 57.977 74.0696Z" fill="#202020"/>
<path fill-rule="evenodd" clip-rule="evenodd" d="M57.5003 81.4584C70.7323 81.4584 81.4587 70.7319 81.4587 57.5001C81.4587 44.2682 70.7323 33.5417 57.5003 33.5417C44.2686 33.5417 33.542 44.2682 33.542 57.5001C33.542 70.7319 44.2686 81.4584 57.5003 81.4584Z" stroke="#202020" stroke-width="0.399306"/>
</svg>
