<svg width="115" height="115" viewBox="0 0 115 115" fill="none" xmlns="http://www.w3.org/2000/svg">
<path fill-rule="evenodd" clip-rule="evenodd" d="M61.8786 49.085C60.5156 48.4316 58.9886 48.0656 57.3761 48.0656C51.6171 48.0656 46.9485 52.7342 46.9485 58.4932C46.9485 64.2522 51.6171 68.9208 57.3761 68.9208C61.2969 68.9208 64.7123 66.7569 66.4931 63.5582L63.9795 62.1617C62.6896 64.4785 60.2159 66.0458 57.3761 66.0458C53.2049 66.0458 49.8235 62.6644 49.8235 58.4932C49.8235 54.322 53.2049 50.9406 57.3761 50.9406C58.544 50.9406 59.65 51.2056 60.6372 51.6789L61.8786 49.085ZM66.8702 35.4435V60.1317H63.8909V34.4036C61.8563 33.8419 59.7131 33.5417 57.4998 33.5417C44.268 33.5417 33.5415 44.2683 33.5415 57.5001C33.5415 70.7319 44.268 81.4584 57.4998 81.4584C70.7317 81.4584 81.4582 70.7319 81.4582 57.5001C81.4582 47.5934 75.4454 39.0911 66.8702 35.4435Z" fill="black"/>
</svg>
