<svg width="115" height="115" viewBox="0 0 115 115" fill="none" xmlns="http://www.w3.org/2000/svg">
<path fill-rule="evenodd" clip-rule="evenodd" d="M75.3717 41.3438L58.002 58.9133L50.2155 51.3265C49.8162 50.9272 49.2173 50.7275 48.6183 50.7275C47.8197 50.7275 47.4204 50.9272 46.8214 51.3265L43.627 54.7206C43.2277 55.1199 43.028 55.7188 43.028 56.3178C43.028 56.9167 43.028 57.5157 43.627 57.915L56.2051 70.6928C56.8041 71.0921 57.2034 71.2917 58.002 71.2917C58.6009 71.2917 59.1999 71.0921 59.5992 70.6928L80.1634 49.7292C82.0905 55.3496 81.8605 61.4855 79.5181 66.9458C77.1756 72.4061 72.8877 76.8012 67.4869 79.2778C62.0861 81.7544 55.9578 82.1359 50.2916 80.3482C44.6253 78.5604 39.8255 74.731 36.824 69.6033C33.8224 64.4757 32.8333 58.4157 34.0486 52.5997C35.2638 46.7838 38.5968 41.6269 43.4005 38.1302C48.2042 34.6335 54.1358 33.0464 60.0437 33.6772C65.9517 34.3079 71.4146 37.1115 75.3717 41.5435V41.3438Z" fill="#11ABEC"/>
</svg>
