<svg width="115" height="115" viewBox="0 0 115 115" fill="none" xmlns="http://www.w3.org/2000/svg">
<path fill-rule="evenodd" clip-rule="evenodd" d="M22.7219 67.6011V61.8265H25.9098C26.3694 61.8265 26.7419 61.4491 26.7419 60.9835V59.3785C26.7419 58.9129 26.3694 58.5356 25.9098 58.5356H22.7219V51.5104H26.0759C26.5355 51.5104 26.908 51.133 26.908 50.6675V49.0624C26.908 48.5969 26.5355 48.2195 26.0759 48.2195H19.9992C19.5396 48.2195 19.1671 48.5969 19.1671 49.0624V67.1281C19.1671 67.5158 19.4281 67.8535 19.7997 67.9465L21.6904 68.4194C22.1366 68.531 22.5875 68.2551 22.6977 67.8031C22.7138 67.737 22.7219 67.6691 22.7219 67.6011ZM34.86 71.7355C37.7781 72.4593 39.2085 70.2818 39.2085 67.3405V52.6145C39.2085 49.6732 37.7702 48.2195 34.86 48.2195H32.9532C30.043 48.2195 28.6046 49.6732 28.6046 52.6145V66.8032C28.6046 69.7445 30.011 70.5126 32.9532 71.2479L34.86 71.7355ZM34.2854 68.4628L33.5607 68.2806C32.644 68.0439 32.21 67.5345 32.21 66.5871V52.7232C32.21 51.7758 32.6383 51.3359 33.5607 51.3359H34.2854C35.1749 51.3359 35.6032 51.7758 35.6032 52.7232V67.1243C35.6032 68.0718 35.1744 68.6854 34.2854 68.4628ZM47.4786 74.9076C50.3891 75.6418 51.8273 73.4539 51.8273 70.5126V52.6145C51.8273 49.6732 50.3889 48.2195 47.4786 48.2195H45.5719C42.6617 48.2195 41.2233 49.6732 41.2233 52.6145V70.027C41.2233 72.9683 42.7004 73.6991 45.5719 74.4221L47.4786 74.9076ZM46.9042 71.639L46.1794 71.454C45.2586 71.2256 44.8287 70.7583 44.8287 69.8109V52.7232C44.8287 51.7758 45.2569 51.3359 46.1794 51.3359H46.9042C47.7937 51.3359 48.2219 51.7758 48.2219 52.7232V70.2965C48.2219 71.2439 47.7971 71.8631 46.9042 71.639ZM59.4368 76.6666C62.9138 76.6666 64.552 74.9703 64.552 71.4758V53.4103C64.552 49.9158 62.9138 48.2195 59.4368 48.2195H54.8861C54.4266 48.2195 54.0541 48.5969 54.0541 49.0624V75.8237C54.0541 76.2892 54.4266 76.6666 54.8861 76.6666H59.4368ZM58.9828 73.4428H57.6594V51.4433H58.9828C60.408 51.4433 61.0527 52.1192 61.0527 53.5384V71.3477C61.0527 72.767 60.408 73.4428 58.9828 73.4428ZM69.4211 48.2195C69.8806 48.2195 70.2531 48.5969 70.2531 49.0624V71.0583L73.1676 70.3194C73.2336 70.3026 73.3014 70.2942 73.3695 70.2942C73.8291 70.2942 74.2016 70.6716 74.2016 71.1371V72.5518C74.2016 72.9393 73.9409 73.2769 73.5696 73.37L67.7049 74.8418C67.6394 74.8582 67.5722 74.8665 67.5048 74.8665C67.0453 74.8665 66.6728 74.4891 66.6728 74.0236V49.0624C66.6728 48.5969 67.0453 48.2195 67.5048 48.2195H69.4211ZM82.952 48.2195C83.4115 48.2195 83.784 48.5969 83.784 49.0624V50.6675C83.784 51.133 83.4115 51.5104 82.952 51.5104H79.3851V58.5356H82.7841C83.2436 58.5356 83.6161 58.9129 83.6161 59.3785V60.9835C83.6161 61.4491 83.2436 61.8265 82.7841 61.8265H79.3851V68.7562L82.8168 67.8848C82.883 67.8681 82.951 67.8596 83.0191 67.8596C83.4787 67.8596 83.8512 68.237 83.8512 68.7025V70.1254C83.8512 70.5131 83.5902 70.8508 83.2187 70.9438L76.8238 72.5444C76.7585 72.5608 76.6915 72.569 76.6242 72.569C76.1647 72.569 75.7922 72.1916 75.7922 71.7261V49.0624C75.7922 48.5969 76.1647 48.2195 76.6242 48.2195H82.952ZM91.4756 48.2195C94.3366 48.2195 95.7671 49.6732 95.7671 52.5807V54.5944C95.7671 55.0599 95.3946 55.4373 94.9351 55.4373H93.106C92.6465 55.4373 92.2741 55.0599 92.2741 54.5944V52.7159C92.2741 51.8032 91.8415 51.3636 90.9433 51.3636H90.5109C89.6127 51.3636 89.1802 51.8032 89.1802 52.7159V53.916C89.1802 54.8964 89.5128 55.3697 90.1782 55.8431L93.771 58.5138C95.3346 59.6633 95.8337 60.6776 95.8337 62.6046V64.4173C95.8337 67.3586 94.3928 68.0839 91.5089 68.8123L89.9453 69.2024C87.0608 69.9324 85.6538 67.7486 85.6538 64.8412V62.5072C85.6538 62.0417 86.0264 61.6643 86.4859 61.6643H88.2816C88.7411 61.6643 89.1136 62.0417 89.1136 62.5072V64.8112C89.1136 65.724 89.5447 66.1581 90.4776 65.9194L90.9433 65.8067C91.8625 65.5791 92.3073 65.3339 92.3073 64.4211V63.1117C92.3073 62.1313 91.9746 61.6918 91.3093 61.1847L87.7164 58.5138C86.1196 57.3644 85.6538 56.2487 85.6538 54.4231V52.6145C85.6538 49.6732 87.0844 48.2195 89.9786 48.2195H91.4756ZM94.767 38.3333C95.1379 38.3333 95.2724 38.3724 95.408 38.4458C95.5436 38.5193 95.65 38.6271 95.7225 38.7645C95.795 38.9019 95.8337 39.0381 95.8337 39.4139V40.5438C95.8337 40.9195 95.795 41.0558 95.7225 41.1931C95.65 41.3305 95.5436 41.4383 95.408 41.5118C95.2724 41.5852 95.1379 41.6243 94.767 41.6243H20.2336C19.8627 41.6243 19.7282 41.5852 19.5926 41.5118C19.457 41.4383 19.3506 41.3305 19.2781 41.1931C19.2056 41.0558 19.167 40.9195 19.167 40.5438V39.4139C19.167 39.0381 19.2056 38.9019 19.2781 38.7645C19.3506 38.6271 19.457 38.5193 19.5926 38.4458C19.7282 38.3724 19.8627 38.3333 20.2336 38.3333H94.767Z" fill="#111111"/>
</svg>
