<svg width="115" height="115" viewBox="0 0 115 115" fill="none" xmlns="http://www.w3.org/2000/svg">
<path d="M70.5265 44.8662C73.1873 44.8662 75.67 45.6795 77.9746 47.3061C78.1557 47.6541 78.2443 47.9225 78.2443 48.1139V48.2564C78.2443 49.0201 77.7735 49.4481 76.8317 49.5406H76.7637L74.3892 48.3245C72.8123 47.8237 71.5234 47.5728 70.5226 47.572C67.3096 47.572 64.5337 49.0406 62.1948 51.9779C61.0211 53.947 60.435 55.8625 60.4368 57.7246C60.4368 61.4915 62.1982 64.4708 65.7211 66.6624C67.2852 67.474 68.8434 67.8794 70.3955 67.8785H70.592C72.5747 67.8785 74.581 67.2458 76.6109 65.9805H77.0218C77.8347 66.1629 78.2405 66.5674 78.2405 67.1992V67.3982C78.2405 68.3519 76.7303 69.277 73.7099 70.1733C72.7437 70.4514 71.7426 70.5898 70.7371 70.5843H70.3955C66.1577 70.5843 62.6126 68.6195 59.76 64.6899C58.4091 62.4221 57.734 60.1003 57.7349 57.7246C57.7349 53.2728 59.7638 49.6437 63.8218 46.8374C65.9972 45.5233 68.2308 44.8662 70.5226 44.8662" fill="#1C1D1E"/>
<path d="M100.179 50.0273H100.251L92.586 70.0604C92.2316 70.3352 91.9118 70.47 91.637 70.47H91.4945C90.6469 70.3198 90.2231 69.8909 90.2231 69.2013V69.1281L92.5154 62.9332C96.516 52.5135 98.6892 46.7313 99.0351 45.5867C99.4396 45.1334 99.8236 44.9048 100.179 44.9048C101.004 44.9048 101.613 45.7348 102.008 47.3948C107.429 61.5078 110.162 68.7308 110.209 69.0639V69.2616C110.209 69.9302 109.785 70.3356 108.939 70.4777H108.868C108.081 70.4777 107.516 69.7162 107.183 68.1893L100.179 50.0273Z" fill="#1C1D1E"/>
<path d="M21.3699 46.0235C21.3699 45.1798 20.6958 44.7881 19.8854 44.7881H6.07421C5.3448 44.7881 4.91674 45.2161 4.79004 46.0723L4.86067 46.1082L4.79004 46.1442C4.92102 47.0003 5.34908 47.4283 6.07421 47.4283H19.8854C20.6958 47.4283 21.3699 47.0354 21.3699 46.1917C21.3699 46.1557 21.3533 46.1377 21.352 46.1031C21.3507 46.0684 21.3699 46.0491 21.3699 46.0132" fill="#1C1D1E"/>
<path d="M15.1256 57.6019C15.1256 56.7595 14.4527 56.3652 13.6411 56.3652H6.07225C5.3437 56.3652 4.91565 56.7959 4.78809 57.6571L4.85872 57.6943L4.78809 57.7265C4.92078 58.5886 5.34884 59.0192 6.07225 59.0183H13.6411C14.4527 59.0183 15.1256 58.6241 15.1256 57.7817C15.1256 57.7457 15.109 57.7252 15.1077 57.6943C15.1064 57.6635 15.1256 57.6378 15.1256 57.6019Z" fill="#1C1D1E"/>
<path d="M24.0044 69.1797C24.0044 68.3386 23.3315 67.9443 22.5199 67.9443H6.07225C5.34285 67.9443 4.91479 68.3724 4.78809 69.2285L4.86 69.2645L4.78809 69.3017C4.9165 70.1621 5.34927 70.5859 6.07225 70.5859H22.5199C23.3315 70.5859 24.0044 70.2006 24.0044 69.3492C24.0044 69.3133 23.9864 69.2966 23.9864 69.2606C23.9864 69.2247 24.0044 69.2092 24.0044 69.172" fill="#1C1D1E"/>
<path d="M51.7315 70.5935C52.5765 70.5935 52.9682 69.9218 52.9682 69.1077V46.0774C52.9682 45.3497 52.5401 44.9216 51.684 44.7932L51.6481 44.8638L51.6108 44.7932C50.7504 44.9216 50.3267 45.3544 50.3267 46.0774V69.1077C50.3267 69.9218 50.7183 70.5935 51.5633 70.5935C51.598 70.5935 51.616 70.5793 51.6519 70.5768C51.6879 70.5742 51.7033 70.5935 51.7392 70.5935" fill="#1C1D1E"/>
<path d="M84.7057 70.5935C85.5506 70.5935 85.9423 69.9218 85.9423 69.1077V46.0774C85.9423 45.3497 85.5143 44.9216 84.6582 44.7932L84.6222 44.8638L84.585 44.7932C83.7288 44.9251 83.3008 45.3531 83.3008 46.0774V69.1077C83.3008 69.9218 83.6937 70.5935 84.5374 70.5935C84.5734 70.5935 84.5901 70.5793 84.626 70.5768C84.662 70.5742 84.6787 70.5935 84.7147 70.5935" fill="#1C1D1E"/>
<path d="M43.0428 49.8246C40.201 46.4717 36.8698 44.8613 33.0135 44.8613H32.243H28.4457C27.7291 44.8613 27.3041 45.2825 27.1615 46.116L27.1436 46.1237V51.8793C27.1436 52.6909 27.5365 53.3638 28.3802 53.3638C28.4162 53.3638 28.4354 53.3471 28.4701 53.3458C28.5048 53.3445 28.5228 53.3638 28.5587 53.3638C29.4024 53.3638 29.7954 52.6909 29.7954 51.8793V47.4387H31.3698C34.736 47.4387 37.2727 48.1193 38.9797 49.4805C41.7381 51.7971 43.1169 54.5136 43.116 57.6298C43.0967 59.0223 42.8239 60.3996 42.3109 61.6942C40.2339 65.8635 37.0406 67.9468 32.731 67.9443H32.7772L30.8381 67.8248C30.8381 67.8248 30.0329 67.9777 30.128 69.3055C30.1768 70.0079 30.5556 70.442 31.4121 70.5897H33.0674C35.6221 70.5897 38.0457 69.796 40.3384 68.2088C43.9563 65.3896 45.7649 61.9275 45.764 57.8224C45.7903 54.925 44.8307 52.1048 43.0428 49.8246Z" fill="#1C1D1E"/>
<path d="M6.02089 56.3652C5.17334 56.3652 4.78809 57.042 4.78809 57.851V69.2609C4.78809 69.9903 5.21614 70.4183 6.07225 70.545L6.10821 70.4757L6.14545 70.545C7.00156 70.4158 7.42962 69.9877 7.42962 69.2609V57.851C7.42962 57.042 7.03667 56.3652 6.19297 56.3652C6.15701 56.3652 6.13775 56.3845 6.10307 56.3858C6.0684 56.3871 6.05042 56.3652 6.01447 56.3652" fill="#1C1D1E"/>
</svg>
