<svg width="115" height="115" viewBox="0 0 115 115" fill="none" xmlns="http://www.w3.org/2000/svg">
<g clip-path="url(#clip0)">
<path d="M73.5628 51.7708C72.996 51.3483 72.0957 51.0778 71.2288 51.0947C70.2785 51.1116 69.3783 51.4159 68.7448 51.9229V45.8721H65.7939V65.6134H68.7448V55.3033C68.7448 54.5934 69.3449 53.799 70.4453 53.7483C70.9287 53.7314 71.6122 53.9511 71.9623 54.4751C72.3291 55.016 72.3124 55.7596 72.3124 56.554L72.2957 65.6134H75.2466V56.4526C75.2466 53.7483 74.9132 52.7849 73.5628 51.7708Z" fill="#0078C1"/>
<path d="M49.5564 58.5484C49.5564 60.4752 49.4897 61.0161 49.4731 61.1851C49.3731 62.2668 48.9229 63.3992 47.6893 63.3992C46.4723 63.3992 45.9721 62.1823 45.9221 61.1344C45.9054 61.1344 45.8387 60.4752 45.8387 58.5484C45.8387 56.6216 45.9054 55.8103 45.9221 55.8103C45.9221 54.7117 46.4889 53.63 47.6893 53.63C48.9063 53.63 49.4564 54.7117 49.4731 55.7934C49.4731 55.8103 49.5564 56.6216 49.5564 58.5484ZM52.4072 56.216C51.9904 52.0074 49.6231 51.0947 47.6893 51.0947C44.9385 51.0947 43.2714 52.8694 42.9713 56.216C42.938 56.4864 42.9046 56.9766 42.8879 58.5484C42.8713 59.6978 42.9546 60.6443 42.9713 60.8809C43.1547 64.0077 44.9218 65.9176 47.6893 65.9176C50.4567 65.9176 52.2238 63.9739 52.4239 60.8809C52.4406 60.6612 52.4906 59.6978 52.4906 58.5484C52.4906 58.0245 52.4572 56.6216 52.4072 56.216Z" fill="#0078C1"/>
<path d="M80.1801 56.7737C80.1968 56.1146 80.1968 55.9794 80.2134 55.7934C80.2968 54.6103 80.8136 53.63 82.0139 53.63C83.431 53.6131 83.7644 55.016 83.8144 55.7934C83.8478 56.216 83.8644 56.4864 83.8644 56.7737H80.1801ZM83.8311 60.7288C83.8311 60.7288 83.8311 60.9485 83.7977 61.2189C83.7144 61.9119 83.4477 63.3992 82.0139 63.3992C80.7803 63.3992 80.3135 62.2668 80.2301 61.1513C80.2134 60.8302 80.1634 60.4752 80.1634 59.2583H86.7486C86.7486 59.2583 86.7486 58.2611 86.7319 57.6695C86.7319 57.4329 86.7152 57.0442 86.6652 56.216C86.5652 54.9483 86.0984 53.5624 85.3815 52.6835C84.5646 51.6356 83.3976 51.0947 82.0139 51.0947C79.3465 51.0947 77.6794 52.8525 77.3627 56.216C77.3293 56.5202 77.2793 56.9428 77.2793 58.5484C77.2793 59.6978 77.346 60.6612 77.3627 60.8809C77.5294 63.957 79.3299 65.9176 82.0139 65.9176C84.6813 65.9176 86.4652 64.0077 86.6652 60.7288H83.8311Z" fill="#0078C1"/>
<path d="M33.5521 35.799H81.5319L99.8703 57.5686L81.5319 79.0339H33.5521L15.1304 57.501L33.5521 35.799ZM82.6822 33.3821H32.3851L11.9795 57.4165L32.4018 81.2987H82.6822L103.021 57.501L82.6822 33.3821Z" fill="#0078C1"/>
<path d="M34.1518 48.5597H35.5356C37.0526 48.5597 37.8862 49.371 37.9195 50.8245C37.9195 50.9428 37.9362 51.0612 37.9362 51.2809C37.9362 51.5513 37.9362 51.6358 37.9195 51.7541C37.8362 52.6161 37.4527 54.1204 35.6856 54.1204H34.1518V48.5597ZM41.1371 64.3798L40.837 59.5459C40.7036 57.3824 40.1535 56.0979 39.0365 55.4387C39.8367 54.9486 40.8703 53.7485 40.8537 51.2302C40.8537 47.4104 38.503 46.0582 35.7356 46.0244H31.2344V65.6136H34.1352L34.1518 56.6557H35.769C36.7025 56.6557 37.7528 57.4838 37.9195 59.8163L38.2196 64.3967C38.253 65.0559 38.3697 65.6136 38.3697 65.6136H41.2871C41.2871 65.6136 41.1538 65.0728 41.1371 64.3798Z" fill="#0078C1"/>
<path d="M61.026 60.5935C61.026 60.8133 61.0093 60.9992 60.9926 61.1344C60.9093 62.233 60.5425 63.3993 59.2088 63.3993C57.9918 63.3993 57.5083 62.1316 57.4083 61.202C57.3583 60.6443 57.375 60.2048 57.3583 58.5484C57.3416 56.6216 57.4083 56.1146 57.4416 55.8103C57.5417 54.5765 58.0085 53.63 59.2088 53.63C60.4591 53.6131 60.976 54.7117 60.9926 55.7934C60.9926 55.8103 61.026 56.0639 61.0426 56.6385H63.9601C63.9601 56.4357 63.9434 56.2667 63.9434 56.1822C63.61 52.0919 61.1427 51.0947 59.2088 51.0947C56.458 51.0947 54.7909 52.8694 54.4908 56.216C54.4575 56.4864 54.4241 56.9766 54.4075 58.5484C54.3908 59.6978 54.4741 60.6443 54.4908 60.8809C54.6742 64.0077 56.4414 65.9176 59.2088 65.9176C62.0763 65.9345 63.66 64.1598 63.9434 60.8809C63.9434 60.7626 63.9601 60.6781 63.9601 60.5935H61.026Z" fill="#0078C1"/>
</g>
<defs>
<clipPath id="clip0">
<rect width="91.0417" height="48.7153" fill="white" transform="translate(11.9795 33.5417)"/>
</clipPath>
</defs>
</svg>
