<svg width="115" height="115" viewBox="0 0 115 115" fill="none" xmlns="http://www.w3.org/2000/svg">
<path fill-rule="evenodd" clip-rule="evenodd" d="M74.693 67.8382C73.5085 69.9675 71.5743 71.5391 69.2958 72.2233C69.6215 71.0652 69.7878 69.8652 69.7898 68.659C69.7898 62.6517 65.7934 57.6132 60.4291 56.2411C61.5411 55.1145 62.9141 54.303 64.4163 53.8849C65.5748 53.5582 66.7846 53.474 67.975 53.6373C69.1653 53.8005 70.3122 54.2079 71.3488 54.8357C75.7117 57.4605 77.2116 63.293 74.693 67.8382ZM57.5052 78.1768C55.1188 78.1768 52.8489 77.1893 51.1648 75.503C52.2896 75.2168 53.3692 74.766 54.3711 74.164C59.363 71.1613 61.5529 65.0391 60.0143 59.5143C63.8342 60.6545 66.6412 64.3182 66.6412 68.659C66.6412 73.9062 62.5421 78.1768 57.5052 78.1768ZM40.3164 67.8382C39.1235 65.685 38.8147 63.1483 39.3723 60.7888C40.1723 61.6554 41.0858 62.4015 42.0861 63.0051C43.9448 64.1267 46.0575 64.7175 48.2086 64.7173C49.8684 64.7158 51.5107 64.3662 53.0366 63.6896C54.5625 63.013 55.9404 62.0233 57.0872 60.7803C58.0455 64.7945 56.4027 69.1532 52.7971 71.3224C51.4149 72.1564 49.844 72.5957 48.2445 72.5955C46.6356 72.5962 45.0551 72.1566 43.6628 71.3212C42.2706 70.4858 41.116 69.2843 40.316 67.8382H40.3164ZM40.316 47.161C41.5005 45.0316 43.4349 43.4601 45.7136 42.776C45.3872 43.9343 45.2206 45.1346 45.2187 46.3412C45.2187 52.3452 49.2132 57.3823 54.5749 58.7567C51.7169 61.6335 47.2681 62.3337 43.6606 60.1635C41.5467 58.8914 40.0354 56.8395 39.4037 54.3834C39.0898 53.1765 39.0088 51.9174 39.1653 50.678C39.3219 49.4387 39.7129 48.2436 40.316 47.161ZM57.5052 36.8224C59.8924 36.8224 62.16 37.809 63.8428 39.4939C62.719 39.7825 61.6402 40.2341 60.6383 40.8353C57.7958 42.5456 55.7628 45.3051 54.9142 48.6079C54.3325 50.8643 54.3593 53.2427 54.9915 55.4845C51.1734 54.3433 48.3687 50.6801 48.3687 46.3412C48.3687 41.0925 52.4669 36.8224 57.5052 36.8224ZM74.693 47.161C75.8873 49.317 76.1965 51.8566 75.6353 54.2189C74.8373 53.3485 73.9244 52.5995 72.9238 51.9941C70.0813 50.2853 66.7708 49.8311 63.6004 50.7159C61.4303 51.3215 59.464 52.537 57.919 54.2279C57.5402 52.6601 57.5531 51.0182 57.9563 49.457C58.5871 47.0013 60.0989 44.9485 62.2128 43.6768C64.3262 42.4061 66.7881 42.0683 69.1453 42.726C71.5025 43.3842 73.4723 44.9593 74.693 47.161ZM77.4204 45.5214C75.7795 42.5602 73.1303 40.4423 69.9599 39.5575C69.2104 39.3494 68.4437 39.215 67.6699 39.1561C65.3959 35.6723 61.5788 33.5417 57.5052 33.5417C53.286 33.5417 49.558 35.7698 47.3449 39.1546C43.3095 39.4637 39.627 41.8431 37.5895 45.5204C35.9476 48.4812 35.5124 51.931 36.3611 55.2338C36.563 56.0138 36.8348 56.7725 37.1729 57.5001C35.4142 61.2943 35.5515 65.8033 37.5886 69.4792C39.6979 73.2853 43.4127 75.5322 47.3322 75.8375C49.6062 79.3241 53.4311 81.4584 57.5047 81.4584C61.7234 81.4584 65.4514 79.2298 67.664 75.8446C71.6995 75.5355 75.382 73.1571 77.4199 69.4792C79.5298 65.6723 79.5407 61.1949 77.8333 57.5062C79.5943 53.7101 79.4579 49.1992 77.4199 45.5214" fill="#0092FF"/>
</svg>
