<svg width="115" height="115" viewBox="0 0 115 115" fill="none" xmlns="http://www.w3.org/2000/svg">
<g clip-path="url(#clip0)">
<path d="M30.6513 51.1375H28.4509L27.9162 51.7873C27.8223 51.8782 27.8533 51.975 27.9472 52.005L28.6697 52.3124L30.7133 51.39C30.7416 51.377 30.7644 51.3549 30.7779 51.3275C30.7915 51.3002 30.7949 51.2691 30.7877 51.2396C30.7804 51.2101 30.763 51.1838 30.7382 51.1652C30.7133 51.1467 30.6827 51.1369 30.6513 51.1375Z" fill="#4A835B"/>
<path d="M26.3004 52.2958C26.5383 52.0651 26.5378 51.6916 26.2992 51.4615C26.0607 51.2314 25.6745 51.2319 25.4366 51.4626C25.1987 51.6933 25.1992 52.0669 25.4378 52.297C25.6763 52.5271 26.0625 52.5266 26.3004 52.2958Z" fill="white"/>
<path d="M22.4837 61.5813H19.7754C19.169 61.9135 18.5372 62.2005 17.8856 62.4398C17.8185 62.4678 17.7917 62.4808 17.8237 62.5706L20.244 69.0653H21.5662L19.3481 63.1476H19.408C20.853 63.1476 24.3013 62.7992 26.1673 59.8833C25.7398 60.432 25.1817 60.8728 24.5405 61.1685C23.8992 61.4641 23.1936 61.6057 22.4837 61.5813ZM22.8677 57.6971C23.0163 57.4795 23.1577 57.2389 23.2919 57.0133C23.2299 56.9813 23.1742 56.9434 23.1123 57.0063C22.1724 58.0486 21.0041 58.8751 19.6923 59.4256C18.3805 59.9761 16.9584 60.2368 15.5293 60.1887H12.3463C12.2503 60.1887 12.1708 60.1049 12.2431 60.014C14.3393 57.2499 16.7546 54.726 19.4421 52.4911L14.1102 56.8276C13.6665 57.2051 13.094 57.4103 12.5031 57.4036H5.79439C5.60448 57.4036 5.66744 57.5364 5.6984 57.6272C5.95732 58.4281 6.48507 59.1226 7.19809 59.6006C7.91111 60.0787 8.76863 60.3131 9.63489 60.2666L8.06504 61.8548C8.00312 61.9147 8.00312 62.1034 8.15897 62.1034H14.1452C15.8724 62.1817 17.5901 61.8148 19.1226 61.0405C20.6551 60.2661 21.9475 59.112 22.8677 57.6961V57.6971ZM21.0976 64.2437L22.8914 69.0653H24.2156L22.3206 63.9742C21.9199 64.0912 21.5112 64.1812 21.0976 64.2437ZM30.6684 51.1375H28.4638L27.9292 51.7844C27.8352 51.8772 27.8672 51.971 27.9601 52.001L28.6826 52.3065L30.7283 51.389C30.7568 51.3764 30.7799 51.3547 30.7938 51.3275C30.8077 51.3002 30.8114 51.2692 30.8044 51.2397C30.7973 51.2101 30.78 51.1838 30.7552 51.1652C30.7304 51.1466 30.6998 51.1368 30.6684 51.1375ZM26.3005 52.2965C26.215 52.3785 26.1063 52.4343 25.9881 52.4567C25.8699 52.4791 25.7475 52.4671 25.6363 52.4223C25.5251 52.3775 25.4301 52.3019 25.3633 52.205C25.2965 52.1081 25.2608 51.9942 25.2608 51.8777C25.2608 51.7612 25.2965 51.6473 25.3633 51.5504C25.4301 51.4535 25.5251 51.3779 25.6363 51.3331C25.7475 51.2883 25.8699 51.2763 25.9881 51.2987C26.1063 51.3211 26.215 51.3769 26.3005 51.4589C26.0941 51.2612 25.815 51.1506 25.5245 51.1516C25.2339 51.1526 24.9557 51.265 24.7507 51.4642C24.5458 51.6633 24.4308 51.933 24.4312 52.214C24.4315 52.495 24.5471 52.7644 24.7525 52.9631C24.958 53.1618 25.2365 53.2736 25.527 53.2739C25.8176 53.2742 26.0964 53.1631 26.3023 52.9649C26.5082 52.7666 26.6244 52.4975 26.6254 52.2165C26.6265 51.9355 26.5122 51.6655 26.3077 51.4659C26.4202 51.5772 26.4826 51.727 26.4812 51.8826C26.4799 52.0383 26.4149 52.187 26.3005 52.2965Z" fill="#00985F"/>
<path d="M26.2732 52.2048C26.4743 52.0102 26.4743 51.6948 26.2732 51.5003C26.0721 51.3058 25.746 51.3058 25.5448 51.5003C25.3437 51.6948 25.3437 52.0102 25.5448 52.2048C25.746 52.3993 26.0721 52.3993 26.2732 52.2048Z" fill="white"/>
<path d="M26.1657 59.8834C27.4496 57.5217 28.3017 54.963 28.6841 52.3205L27.9616 52.0111C27.8677 51.9811 27.8367 51.8873 27.9307 51.7944L28.4653 51.1525C28.1064 50.6259 27.6151 50.196 27.0374 49.9034C26.4596 49.6107 25.8145 49.4648 25.1625 49.4795C24.173 49.4668 23.2022 49.7415 22.3758 50.2681C21.3559 50.9642 20.375 51.7122 19.4374 52.5092C16.7496 54.7374 14.3342 57.2558 12.2384 60.0151C12.1713 60.106 12.2507 60.1898 12.3416 60.1898H15.5298C16.9603 60.2359 18.3835 59.9731 19.6959 59.4205C21.0083 58.8679 22.177 58.0395 23.1169 56.9954C23.1383 56.9702 23.169 56.954 23.2025 56.9503C23.236 56.9466 23.2697 56.9556 23.2965 56.9754C23.326 56.9968 23.3465 57.0278 23.3541 57.0627C23.3617 57.0976 23.3559 57.134 23.3377 57.1651C22.6313 58.9458 21.3933 60.4831 19.7811 61.5814H22.4893C23.1981 61.6046 23.9022 61.4625 24.5421 61.1669C25.182 60.8713 25.7389 60.4311 26.1657 59.8834ZM24.7476 52.9654C24.5933 52.8171 24.4881 52.6279 24.4451 52.4216C24.4022 52.2154 24.4235 52.0015 24.5065 51.8071C24.5894 51.6126 24.7301 51.4463 24.9109 51.3293C25.0916 51.2123 25.3042 51.1498 25.5217 51.1498C25.7392 51.1498 25.9518 51.2123 26.1325 51.3293C26.3133 51.4463 26.454 51.6126 26.5369 51.8071C26.6199 52.0015 26.6412 52.2154 26.5983 52.4216C26.5553 52.6279 26.4501 52.8171 26.2958 52.9654C26.09 53.1626 25.8119 53.2732 25.5222 53.2732C25.2325 53.2732 24.9545 53.1626 24.7486 52.9654H24.7476ZM27.2825 60.5282C26.3908 61.9077 25.0696 62.9779 23.5091 63.5849L25.5413 69.0654H31.4553C30.2725 65.7581 29.0061 62.5078 27.812 59.5589C27.651 59.8794 27.4734 60.2318 27.2835 60.5282H27.2825ZM5.37891 69.0654H11.3652L13.3014 63.3214H7.46069C6.7991 65.0624 6.09829 66.977 5.37891 69.0654ZM13.2591 55.8045L16.7136 53.0323C17.2844 51.5429 17.8716 50.0684 18.4858 48.7966C18.7954 49.4745 19.0834 50.1593 19.3878 50.881C20.7213 49.8159 21.5966 49.2409 21.6399 49.2129L21.6595 49.2029C22.2037 48.8492 22.8016 48.5798 23.4317 48.4043C22.6452 46.7412 22.0899 45.5673 21.8226 45.0452H15.1169C14.5586 46.264 12.4747 50.4418 10.0368 56.0111H12.5036C12.7734 56.0374 13.0435 55.9635 13.2591 55.8045Z" fill="#E0001A"/>
<path d="M38.9035 65.6951C38.6013 65.7322 38.2943 65.7035 38.005 65.611C37.7157 65.5184 37.4514 65.3645 37.2316 65.1605C37.0117 64.9565 36.8418 64.7075 36.7343 64.4317C36.6268 64.156 36.5844 63.8605 36.6102 63.5668V54.6184H31.751V64.2017C31.751 67.7286 33.3776 69.4626 36.8083 69.4626" fill="#E0001A"/>
<path d="M41.2888 64.6629C40.6586 65.286 39.8024 65.6472 38.9015 65.6701C38.5985 65.7071 38.2908 65.6779 38.001 65.5848C37.7111 65.4916 37.4466 65.3368 37.2267 65.1318C37.0068 64.9268 36.8372 64.6768 36.7304 64.4001C36.6235 64.1234 36.5821 63.8271 36.6091 63.5328V54.4486H31.751V64.1787C31.751 67.7206 33.3642 69.4605 36.8083 69.4605C37.7572 69.5291 38.7096 69.3876 39.5935 69.0468C40.4773 68.7061 41.2692 68.175 41.9091 67.494L42.2105 69.0692H46.1511V54.4446H41.2888V64.6629ZM56.7303 65.3946C54.2996 65.3946 53.0353 63.9301 53.0353 61.701C53.0353 59.5647 54.2986 58.251 56.6983 58.251C57.8527 58.2317 58.9861 58.5509 59.9494 59.1664L60.6451 55.1654C59.0259 54.4744 57.2681 54.1405 55.499 54.1881C50.6057 54.1881 47.9212 56.9064 47.9212 61.8837C47.9212 66.891 50.4467 69.4565 55.373 69.4565C57.3206 69.484 59.2434 69.0323 60.9609 68.1438L60.2663 64.4183C59.1908 65.0251 57.9749 65.3608 56.7303 65.3946ZM71.7889 54.1881C70.2148 54.0988 68.6577 54.5413 67.3838 55.4399V49.051H62.344V69.0652H67.3828V58.9828C67.6766 58.675 68.0312 58.4273 68.4256 58.2543C68.82 58.0813 69.2463 57.9865 69.6792 57.9755C69.9779 57.94 70.2811 57.9708 70.5656 58.0657C70.8501 58.1607 71.1085 58.3172 71.321 58.5233C71.5335 58.7294 71.6946 58.9798 71.792 59.2552C71.8893 59.5307 71.9204 59.824 71.8828 60.1128V69.0652H76.9216V59.4709C76.9216 55.9291 75.2299 54.1881 71.7889 54.1881ZM104.939 54.1881C103.991 54.1096 103.036 54.2395 102.147 54.5679C101.258 54.8963 100.457 55.4149 99.8036 56.0848L99.4671 54.4417H95.4574V69.0652H100.496V58.9828C100.79 58.675 101.145 58.4273 101.539 58.2543C101.933 58.0813 102.36 57.9865 102.793 57.9755C103.091 57.9401 103.394 57.9711 103.679 58.0661C103.963 58.1611 104.221 58.3176 104.434 58.5237C104.646 58.7298 104.807 58.9801 104.904 59.2555C105.002 59.5308 105.033 59.8241 104.995 60.1128V69.0652H110.034V59.4709C110.034 55.9291 108.348 54.1881 104.939 54.1881ZM78.6287 62.3739C78.6287 67.3213 80.5226 69.4615 84.1866 69.4615C85.0687 69.5323 85.9552 69.3895 86.766 69.0462C87.5768 68.7029 88.2865 68.1698 88.8312 67.4949L89.084 69.0702H93.1227V55.1035C90.8922 54.4292 88.5609 54.1199 86.2251 54.1881C81.3256 54.1881 78.6287 57.089 78.6287 62.3729V62.3739ZM88.0788 64.6639C87.7767 64.9837 87.4086 65.2386 86.9982 65.4121C86.5879 65.5856 86.1445 65.6738 85.6966 65.6711C84.3714 65.6711 83.6376 64.4802 83.6376 62.1902C83.6376 59.3811 84.4385 57.9765 86.0114 57.9765C86.7061 57.9615 87.4 58.0333 88.0757 58.1901L88.0788 64.6639Z" fill="#E0001A"/>
</g>
<defs>
<clipPath id="clip0">
<rect width="105.417" height="31.9444" fill="white" transform="translate(4.79199 41.5278)"/>
</clipPath>
</defs>
</svg>
