<svg width="115" height="115" viewBox="0 0 115 115" fill="none" xmlns="http://www.w3.org/2000/svg">
<path fill-rule="evenodd" clip-rule="evenodd" d="M76.3246 77.7768C77.1947 77.7768 78.0322 78.0158 78.6852 78.6192L77.521 79.9521C77.2486 79.5876 76.7057 79.4164 76.292 79.4164C75.8133 79.4164 75.1501 79.6446 75.1501 80.248C75.1501 81.7173 78.6955 80.7717 78.6955 83.5958C78.6955 85.395 77.3146 86.25 75.7268 86.25C74.7369 86.25 73.8668 85.9415 73.138 85.2358L74.3451 83.8469C74.6932 84.3253 75.2588 84.61 75.8245 84.61C76.379 84.61 76.999 84.3365 76.999 83.7666C76.999 82.2867 73.3885 83.0834 73.3885 80.396C73.3885 78.6771 74.8131 77.7768 76.3246 77.7768ZM48.4903 47.9166L64.549 73.4721L32.4346 47.9166H48.4903ZM57.7293 34.0741L70.764 55.3531L57.2755 55.3703L44.002 34.0741H57.7293ZM72.6909 28.75L65.698 40.4629L58.7747 28.75H72.6909ZM31.0818 84.6097C29.635 84.6097 28.6887 83.5162 28.6887 82.0134C28.6887 80.5097 29.635 79.417 31.0818 79.417C32.5283 79.417 33.4741 80.5097 33.4741 82.0134C33.4741 83.5162 32.5283 84.6097 31.0818 84.6097ZM31.0818 77.777C28.678 77.777 26.9266 79.4282 26.9266 82.0134C26.9266 84.5985 28.678 86.2498 31.0818 86.2498C33.4848 86.2498 35.2361 84.5985 35.2361 82.0134C35.2361 79.4282 33.4848 77.777 31.0818 77.777ZM41.6838 84.5414H40.1611V82.7077H41.4448C41.9993 82.7077 42.8151 82.8328 42.8151 83.5959C42.8151 84.3024 42.2169 84.5414 41.6838 84.5414ZM40.1611 79.4846H41.3142C41.8473 79.4846 42.4562 79.6563 42.4562 80.3279C42.4562 80.9766 41.9124 81.2053 41.39 81.2053H40.1611V79.4846ZM23.8703 77.9756V83.2122C23.8703 84.6684 23.5097 86.0475 21.4715 86.0475C20.282 86.0475 19.4115 85.4687 19.167 84.212L20.6858 83.8233C20.7273 84.2017 21.0673 84.5124 21.4283 84.5124C22.2042 84.5124 22.2144 83.6121 22.2144 83.023V77.9756H23.8703ZM41.3361 77.9817C42.6845 77.9817 44.1532 78.2776 44.1532 80.0315C44.1532 80.9309 43.6201 81.5465 42.8262 81.8083V81.8312C43.8371 81.9679 44.5115 82.7543 44.5115 83.8008C44.5115 85.487 42.9893 86.0452 41.6191 86.0452H38.4646V77.9817H41.3361ZM61.4321 77.9818V79.6209H57.8978V81.1246H61.2368V82.7647H57.8978V84.4047H61.6282V86.0448H56.2013V77.9818H61.4321ZM87.1809 77.9818V79.6209H83.6462V81.1246H86.9852V82.7647H83.6462V84.4047H87.3766V86.0448H81.9497V77.9818H87.1809ZM53.5094 77.9817V79.5536H51.3997V86.0452H49.615V79.5536H47.5062V77.9817H53.5094ZM92.6359 77.9817C94.213 77.9817 95.5399 78.5511 95.5399 80.4301C95.5399 81.5572 94.9631 82.4346 93.876 82.6395L95.8337 86.0451H93.7993L91.4494 81.3182L92.4637 81.3178C93.0652 81.3127 93.7779 81.2447 93.7779 80.4189C93.7779 79.6105 93.0821 79.4854 92.4616 79.4854H91.3526V79.5047H90.5832L89.8552 77.9817H92.6359ZM67.5101 77.9617L71.506 86.0448H69.425L68.6328 84.4196H64.988V82.8302H67.8415L65.4706 77.9617H67.5101Z" fill="#4DC942"/>
</svg>
