<svg width="115" height="115" viewBox="0 0 115 115" fill="none" xmlns="http://www.w3.org/2000/svg">
<path d="M26.9258 58.0626C26.9258 49.1323 34.1177 41.8931 42.9907 41.8931C51.8638 41.8931 59.0566 49.1323 59.0566 58.0626C59.0566 66.9937 51.8638 74.2329 42.9907 74.2329C34.1177 74.2329 26.9258 66.9937 26.9258 58.0626Z" fill="#1B5EA8"/>
<path d="M26.9258 58.0626C26.9258 49.1323 34.1177 41.8931 42.9907 41.8931C51.8638 41.8931 59.0566 49.1323 59.0566 58.0626C59.0566 66.9937 51.8638 74.2329 42.9907 74.2329C34.1177 74.2329 26.9258 66.9937 26.9258 58.0626Z" stroke="#1B5EA8" stroke-width="2.38277"/>
<path d="M30.1895 59.4845C30.1895 59.4845 31.4507 59.093 31.5989 59.0735C31.7462 59.0548 31.9129 59.0735 31.9129 59.0735C31.9129 59.0735 32.099 58.8329 32.1555 58.8507C32.2093 58.8693 32.4324 58.9448 32.4703 58.8507C32.5056 58.7566 32.6556 58.627 32.7288 58.6083C32.8037 58.5879 32.7482 58.4219 32.8399 58.3465C32.9325 58.2719 33.5437 57.955 33.6734 57.8058C33.8048 57.6567 34.2661 56.967 34.3402 56.967C34.4161 56.967 34.5633 56.8551 34.6189 56.7619C34.6727 56.6678 35.1737 56.0704 35.2857 55.9408C35.3986 55.8103 35.6385 55.623 35.6385 55.623C35.6385 55.623 35.657 55.2315 35.7135 55.1578C35.7682 55.0824 35.9719 54.8409 36.0645 54.7291C36.158 54.6172 36.4914 54.2613 36.5655 54.2817C36.6396 54.3003 36.8786 54.2817 36.8989 54.2071C36.9183 54.1317 36.861 53.8893 36.9915 53.852C37.1203 53.8147 37.3249 53.7961 37.3249 53.7961C37.3249 53.7961 37.6204 52.8631 37.7518 52.8081C37.8815 52.7504 38.0843 52.6954 38.0843 52.6954C38.0843 52.6954 38.4733 52.3598 38.6038 52.3776C38.7344 52.3971 39.1595 52.3412 39.1595 52.3412C39.1595 52.3412 39.5485 51.9115 39.6226 51.726C39.6975 51.5387 39.8263 51.4268 39.9383 51.4073C40.0495 51.3895 39.8819 51.2972 40.0495 51.1845C40.2153 51.0718 40.9024 50.7371 41.0303 50.6057C41.1599 50.477 41.3654 50.1024 41.3654 50.1024C41.3654 50.1024 41.2711 49.6372 41.421 49.5058C41.5683 49.3754 42.124 49.1889 42.348 49.0762C42.5694 48.9652 43.0704 48.6111 43.1612 48.4433C43.2547 48.2755 43.4972 47.995 43.5502 47.9772C43.6066 47.9586 43.9224 47.5467 43.9947 47.4739C44.0697 47.3985 44.553 47.2111 44.6456 47.1552C44.7374 47.1002 45.1448 47.1002 45.2375 47.0807C45.331 47.0629 45.4042 46.9315 45.6449 46.8942C45.8866 46.857 46.7016 46.9315 46.7572 46.9129C46.8136 46.8942 46.9239 46.7442 47.0526 46.8019C47.1849 46.857 47.3322 47.2111 47.4063 47.2484C47.4804 47.2866 47.738 47.3621 47.9241 47.4917C48.1084 47.6221 48.3695 48.0136 48.5909 47.995C48.8149 47.9772 48.9428 48.3128 49.0557 48.461C49.1668 48.611 49.5558 49.0212 49.5373 49.1144C49.5187 49.2085 49.4067 49.4499 49.5187 49.6372C49.6299 49.8228 49.7595 50.1583 49.8698 50.2329C49.9809 50.3083 50.2217 50.6998 50.2217 50.8489C50.2217 50.9972 50.4078 51.4073 50.5948 51.5573C50.7774 51.7065 51.0385 52.5462 51.2413 52.8081C51.4442 53.0673 52.0016 54.4486 52.1507 54.6545C52.2988 54.8587 52.2988 54.7841 52.4841 54.8409C52.6693 54.8951 53.2611 55.2688 53.4305 55.3993C53.5963 55.5307 54.1881 56.5746 54.3178 56.7619C54.4492 56.9492 55.0401 57.955 55.153 58.16C55.2642 58.3651 55.505 59.1312 55.6531 59.1489C55.8004 59.1676 56.0597 59.9505 56.207 60.0624C56.357 60.1751 56.9506 61.0326 57.0802 61.1258C57.2081 61.2191 57.6729 62.3384 57.7461 62.468C57.8202 62.5994 58.2489 63.1409 58.4147 63.1773C58.5814 63.2137 58.8019 63.5874 58.9139 63.6256C59.026 63.662 56.1101 66.3855 56.5546 66.5914C57 66.7956 52.7894 70.591 52.7894 70.591C52.7894 70.591 52.1295 71.1273 52.2759 71.1077C52.4241 71.0891 48.0573 73.4083 48.1684 73.5192C48.2796 73.632 44.0663 74.4595 44.2321 74.5527C44.3997 74.6468 42.9406 74.3609 43.0341 74.3805C43.1285 74.3973 39.1595 73.5192 39.1595 73.5192L33.6734 71.7967L30.1895 59.4845Z" fill="white"/>
<path d="M49.3689 50.962C49.2745 51.0535 49.1475 51.2771 49.1475 51.4076C49.1475 51.5381 49.2013 51.7441 49.2392 51.8364C49.2745 51.9296 49.2957 52.2847 49.2957 52.2847C49.2957 52.2847 49.0893 52.1542 48.9975 52.0415C48.9058 51.9296 48.9243 51.689 48.9058 51.594C48.8864 51.5008 48.6641 51.689 48.5345 51.7059C48.4692 51.7156 48.418 51.618 48.3739 51.5204C48.3298 51.4227 48.2928 51.325 48.2557 51.3339C48.1825 51.3534 47.9603 51.4653 47.7371 51.6704C47.5158 51.8737 47.5722 51.9491 47.4593 52.0059C47.3491 52.061 47.2944 52.0982 47.1444 51.9873C47.0659 51.9287 47.0447 51.9775 47.0165 52.0264C46.9918 52.0707 46.9627 52.1151 46.8833 52.0796C46.8013 52.0432 46.8454 52.1426 46.8975 52.2412C46.9522 52.3424 47.0156 52.4445 46.9592 52.3965C46.8498 52.3042 46.8498 52.6016 46.9213 52.7134C46.9962 52.8262 47.1259 53.0499 47.2185 53.2354C47.3129 53.4227 47.7927 54.3184 47.6454 54.2811C47.4972 54.2429 47.3296 53.8337 47.2732 53.6659C47.2185 53.4981 46.9398 53.2354 46.8833 53.2354C46.8304 53.2354 46.5508 53.2159 46.4767 53.1803C46.4044 53.1431 45.8849 53.0117 45.5877 53.0312C45.2913 53.0499 45.2164 52.7702 45.0691 52.7321C44.92 52.6948 44.4384 52.5457 44.3096 52.5279C44.18 52.5093 44.6051 52.9567 44.7356 52.994C44.8653 53.0312 44.9385 53.1431 44.7542 53.2159C44.5689 53.2922 44.2541 53.0117 44.1623 53.0117C44.068 53.0117 43.9021 53.2727 44.0142 53.3481C44.1235 53.4227 44.5875 53.7023 44.6818 53.7778C44.7718 53.8524 44.6995 54.1683 44.6051 54.1311C44.5143 54.0929 43.993 54.0929 43.7716 54.1506C43.5485 54.2065 43.1974 53.9065 43.0316 53.7778C42.864 53.6473 42.6973 53.7396 42.6223 53.8337C42.5483 53.9251 42.3066 54.2811 42.1593 54.4293C42.012 54.5785 41.4555 54.5785 41.3082 54.6912C41.1582 54.8022 40.5664 55.3064 40.3997 55.5123C40.2321 55.7165 39.6958 55.8843 39.5088 56.0157C39.3236 56.1462 39.0458 56.7418 38.9347 56.8359C38.8235 56.9291 38.6013 57.1537 38.4522 57.3392C38.3049 57.5256 38.0068 57.7121 37.8233 57.9367C37.6372 58.1604 37.4899 58.3654 37.4899 58.3654L37.1186 58.756L36.8037 58.5696C36.8037 58.5696 36.3795 58.8688 36.2304 58.9442C36.0813 59.0179 35.5425 58.906 35.359 58.8874C35.172 58.8687 34.9321 59.0924 34.9876 59.112C35.0441 59.1306 35.082 59.2416 35.0441 59.2984C35.0053 59.3543 34.6172 59.3543 34.6172 59.3543L34.5237 59.6712C34.5237 59.6712 34.1718 59.7263 34.0227 59.7263C33.8754 59.7263 33.6541 59.7822 33.5606 59.8026C33.468 59.8213 33.2086 59.5771 33.116 59.5771C33.0217 59.5771 32.7641 59.4661 32.6538 59.5771C32.5418 59.6898 32.3549 59.9881 32.3549 59.9881C32.3549 59.9881 32.077 59.9881 31.9862 60.0068C31.8936 60.0254 31.3926 60.1746 31.3926 60.1746L33.3207 71.0116C36.0064 73.0444 39.3457 74.249 42.9637 74.249C49.8442 74.249 55.7149 69.8931 58.0046 63.7724C57.5592 62.9761 56.8827 61.7396 56.7813 61.5727C56.6322 61.3312 56.021 60.1381 55.9107 59.9881C55.7987 59.8381 55.6514 59.9695 55.5967 60.0254C55.5694 60.0511 55.52 60.0334 55.4715 60.0156C55.4133 59.9952 55.3551 59.9739 55.3357 60.0254C55.2977 60.1186 55.0772 60.3051 55.0014 60.2296C54.9291 60.1559 54.705 59.5771 54.7235 59.4661C54.7429 59.3543 55.0384 59.5203 55.0384 59.5203C55.0384 59.5203 55.1319 59.4662 55.0957 59.373C55.0578 59.2797 54.6133 59.167 54.5374 59.1857C54.4642 59.2043 54.2429 58.7942 54.0938 58.6814C53.9465 58.5696 53.6307 58.1426 53.5205 57.9926C53.4076 57.8417 53.0186 57.4324 52.889 57.3392C52.7611 57.246 52.4453 56.9486 52.2407 56.8554C52.0361 56.7613 52.0175 56.4808 51.9267 56.2198C51.8341 55.9597 51.7953 56.2962 51.8147 56.3885C51.8341 56.4808 51.6471 56.6317 51.7027 56.6495C51.7591 56.6673 51.7953 56.8554 51.8879 56.9291C51.9814 57.0028 51.7027 57.0969 51.6118 57.0774C51.5174 57.0596 51.4072 56.7613 51.3516 56.6317C51.2952 56.4995 51.0729 56.4622 51.147 56.314C51.222 56.1639 51.3146 55.9029 51.2396 55.8106C51.1655 55.7165 51.1294 55.4564 51.2572 55.4751C51.3887 55.4928 51.4795 55.3996 51.5553 55.325C51.6294 55.2505 51.7785 55.5488 51.8341 55.6411C51.8879 55.7352 52.1851 56.1266 52.1684 56.0334C52.1489 55.9402 52.2971 55.8843 52.2971 55.8843C52.4453 56.2012 53.6854 57.7875 53.7233 57.9367C53.7613 58.0849 53.8354 57.8799 53.8168 57.7121C53.7974 57.5443 53.89 57.6011 53.9086 57.5257C53.928 57.4502 53.8168 57.2274 53.5372 57.2088C53.2594 57.1901 53.1306 56.7418 53.0371 56.5367C52.9454 56.3317 53.3158 56.7054 53.3158 56.7054L52.4453 55.1768C52.4453 55.1768 51.6665 53.871 51.6118 53.871C51.5554 53.871 51.4248 53.9447 51.3887 54.0192C51.3516 54.0929 51.536 54.5971 51.5906 54.6726C51.6471 54.7463 51.8147 55.0268 51.7591 55.0641C51.7027 55.1013 51.4072 54.914 51.2572 54.859C51.1117 54.8022 50.9071 55.0454 50.9071 55.0454C50.9071 55.0454 50.8506 54.2616 50.7571 54.2616C50.6654 54.2616 50.7016 53.9251 50.721 53.6473C50.7395 53.3668 50.4246 53.3668 50.4246 53.3668C50.4246 53.3668 50.369 52.7321 50.2941 52.6407C50.22 52.5457 50.2941 52.1178 50.3135 51.9296C50.3329 51.7441 49.9236 51.0348 49.831 50.962C49.7825 50.9221 49.682 50.8981 49.585 50.8981C49.4976 50.8981 49.413 50.9167 49.3689 50.962Z" fill="url(#paint0_linear)"/>
<path d="M39.7503 52.9195C39.7503 52.9195 39.6577 53.1432 39.5086 53.2542C39.3587 53.3669 39.267 53.6661 39.1197 53.8712C38.9715 54.0753 38.7871 54.2067 38.6381 54.1312C38.4899 54.0558 38.3047 54.1685 38.3232 54.3922C38.3417 54.6168 38.3982 55.0829 38.2862 55.027C38.1733 54.971 38.2676 54.7287 38.1009 54.8405C37.9334 54.9524 37.5991 55.5676 37.4712 55.5125C37.3407 55.4566 37.1916 55.1202 37.0999 55.2507C37.0073 55.3812 36.9702 55.7922 36.8591 55.6048C36.7488 55.4175 36.5821 55.4362 36.3228 55.6413C36.0626 55.8481 35.7839 55.9794 35.6551 56.0514C35.5228 56.1268 35.2662 56.3319 35.2088 56.4996C35.1541 56.6674 35.0439 56.7802 34.9504 56.8361C34.8569 56.8911 34.6364 57.0598 34.6364 57.1717C34.6364 57.2844 34.505 57.3394 34.3559 57.4894C34.2095 57.6377 33.9308 57.8419 33.7835 57.9741C33.6344 58.1046 33.3187 58.4597 33.1705 58.5334C33.0214 58.6079 32.7639 58.8139 32.9112 58.8139C32.9112 58.8139 33.1705 58.8139 33.3187 58.7011C33.4677 58.5884 33.8938 58.2724 34.0049 58.2342C34.1169 58.1969 34.3753 58.1783 34.4309 58.3097C34.4874 58.441 34.3947 58.6266 34.2642 58.7189C34.1354 58.8139 33.8558 59.1308 33.7835 59.1494C33.7085 59.1672 33.5048 59.3545 33.5048 59.3545C33.5048 59.3545 33.8558 59.3358 34.0225 59.2231C34.191 59.1121 34.6364 58.9062 34.6893 58.7562C34.7458 58.6079 34.8754 58.4215 34.9698 58.2724C35.0624 58.1241 35.2088 58.3461 35.1912 58.497C35.1718 58.6452 35.4161 58.7562 35.5422 58.5511C35.6728 58.346 35.858 58.4411 36.0238 58.4411C36.1905 58.4411 36.5451 58.5697 36.6368 58.4215C36.7303 58.2724 36.9508 57.825 37.0831 57.7486C37.2119 57.6758 37.5065 57.0971 37.5991 56.8725C37.6908 56.6497 38.0066 56.0158 38.0824 55.754C38.1565 55.493 38.3982 55.177 38.5464 55.0829C38.6937 54.9897 39.0456 54.8405 39.2132 54.7287C39.379 54.6168 39.2855 54.505 39.4716 54.3372C39.6577 54.1686 39.7503 54.2067 39.7503 54.038C39.7503 53.8712 39.8994 53.6839 39.8994 53.6839C39.8994 53.6839 39.6577 53.4602 39.805 53.2728C39.9549 53.0864 40.1754 52.7136 40.1754 52.7136C40.1754 52.7136 40.1754 52.5458 40.1031 52.6018C40.0281 52.6577 39.7503 52.5831 39.7503 52.5831V52.9195Z" fill="url(#paint1_linear)"/>
<path d="M49.4062 57.6758C49.4062 57.6758 49.9998 58.5697 50.1101 58.7747C50.2212 58.9816 50.6852 59.8205 50.7222 59.9696C50.7584 60.1187 50.8166 60.3229 51.038 60.4916C51.2594 60.6593 51.5001 60.9194 51.5001 60.9194C51.5001 60.9194 51.5196 60.6593 51.4816 60.5466C51.4437 60.4347 50.9824 59.8569 50.8528 59.634C50.7222 59.4086 49.4424 57.7681 49.4062 57.6758Z" fill="white"/>
<path d="M51.6484 61.1444C51.6484 61.1444 51.8539 61.4809 51.8539 61.7037C51.8539 61.9283 52.0568 62.3384 52.1503 62.5053C52.2429 62.6739 52.3902 62.9909 52.4652 63.0281C52.5384 63.0654 52.7624 63.085 52.9847 63.3264C53.2052 63.5687 53.3172 63.7543 53.5033 63.812C53.6876 63.867 53.8367 63.9238 53.8367 63.9238C53.8367 63.9238 53.6144 63.6256 53.3551 63.1595C53.0941 62.6926 52.5948 61.8537 52.4837 61.7791C52.3708 61.7037 52.1318 61.4241 52.0753 61.4986C52.0198 61.5723 51.6484 61.1444 51.6484 61.1444Z" fill="white"/>
<path d="M34.2117 67.318C34.4516 67.8595 36.3408 68.6238 36.325 68.2315C36.3117 67.9634 36.3426 67.0899 36.3638 66.5626C36.5173 66.7961 36.6451 66.9949 36.6751 67.0562C36.7695 67.2435 38.5671 69.7982 38.7338 70.3033C38.9013 70.8076 42.5317 73.2123 42.903 73.6225C42.9948 73.7237 43.2082 73.9527 43.4799 74.2412C44.8082 74.1986 46.0968 73.9944 47.3254 73.6464C47.2443 73.5727 47.1596 73.4352 47.1279 73.3242C47.0908 73.1928 47.2584 73.1378 47.351 72.9887C47.4419 72.8395 47.4242 72.8395 47.2963 72.8564C47.1658 72.8759 46.7574 72.7267 46.5351 72.7081C46.3129 72.6904 45.5332 72.2794 45.2933 72.2048C45.0525 72.1303 44.8108 71.5337 44.5894 71.3642C44.3663 71.1973 44.219 71.1609 44.1255 71.1973C44.032 71.2354 43.957 71.1786 43.8106 71.01C43.6615 70.8422 43.6995 70.6753 43.606 70.5625C43.5169 70.4516 43.5328 70.7881 43.4772 70.8245C43.4225 70.8609 43.2549 70.5244 43.1429 70.3948C43.0336 70.2661 42.903 69.9296 42.8281 69.8542C42.7549 69.7805 42.7548 70.0024 42.7354 70.1152C42.7178 70.2261 42.4761 70.3584 42.3835 70.2838C42.2891 70.2084 42.1983 69.9492 42.1048 69.8542C42.0598 69.808 42.0554 69.9119 42.0527 70.0158C42.0501 70.1214 42.051 70.2288 42.014 70.1711C41.939 70.0583 41.8102 69.9492 41.7908 69.7983C41.7723 69.65 41.6788 69.2017 41.6056 69.1635C41.5324 69.128 41.4574 68.8289 41.3833 68.6984C41.3101 68.5679 41.3101 68.7916 41.3101 68.9221C41.3101 69.0517 41.1425 68.9416 41.1037 68.8661C41.0684 68.7916 40.9926 68.4756 40.9211 68.4188C40.8453 68.3628 40.7156 68.5679 40.7156 68.5679L40.6777 69.1085C40.6777 69.1085 40.5119 68.5865 40.4563 68.4933C40.4016 68.3992 40.2155 68.0451 40.197 68.1756C40.1776 68.306 40.0876 68.1205 39.9377 68.0078C39.7886 67.895 39.6757 67.6917 39.6757 67.7468C39.6757 67.8036 39.7525 68.2892 39.6422 68.2315C39.5302 68.1755 39.4544 67.729 39.3256 67.5231C39.1968 67.318 38.8069 67.0011 38.8069 67.0011L38.7152 66.6647C38.7152 66.6647 38.3439 66.646 38.3069 66.5342C38.2698 66.4223 38.067 66.4418 38.0484 66.5723C38.0299 66.7019 37.8429 66.5342 37.693 66.5342C37.5483 66.5342 37.3613 66.069 37.3058 65.9936C37.2528 65.919 37.1937 65.7885 37.1761 65.8808C37.1585 65.9758 37.0288 65.919 36.953 65.7504C36.8789 65.5826 37.0853 65.342 37.1206 65.247C37.1585 65.1547 37.0853 65.0242 36.9724 65.1361C36.8612 65.247 36.751 65.5275 36.751 65.5275L36.5472 65.2284L36.4528 65.342L36.2685 64.9496L36.1009 64.5768L36.0083 64.9683L35.9898 64.9913C35.9042 64.749 35.8302 64.551 35.8055 64.52C35.7323 64.4276 35.3609 63.382 35.2304 63.1964C35.1016 63.0091 35.1193 62.6558 35.1193 62.6558C35.1193 62.6558 34.8961 62.5244 34.7479 62.599C34.6006 62.6744 34.4895 62.3566 34.3581 62.2634C34.2319 62.1702 34.0644 62.283 34.0644 62.283V61.8533L32.9521 61.7406C32.9521 61.7406 33.9709 66.7765 34.2117 67.318Z" fill="url(#paint2_linear)"/>
<path d="M30.4861 57.1155C30.3546 57.2655 29.9092 57.3037 29.8184 57.3765C29.7258 57.4502 29.5212 57.6757 29.4665 57.768C29.41 57.8612 29.2601 57.8798 29.1692 57.9544C29.0766 58.0298 29.0025 58.384 29.0025 58.384C29.0025 58.384 28.7626 58.4213 28.5015 58.6637C28.2422 58.906 28.0006 58.9815 27.7421 59.1492C27.5525 59.2717 27.1918 59.5247 26.9766 59.6881C27.781 67.862 34.6324 74.249 42.9639 74.249C43.4093 74.249 43.8512 74.2304 44.2878 74.1949C44.1061 73.9206 43.9262 73.6347 43.7912 73.3968C43.4208 72.7452 42.642 72.3733 42.5106 72.3343C42.3818 72.2979 42.0863 71.736 41.9919 71.7005C41.9002 71.6632 41.5668 71.1225 41.4557 70.937C41.3436 70.7506 41.1787 70.6565 41.0093 70.637C40.8435 70.6201 40.0286 69.538 40.0286 69.538C40.0286 69.538 38.8996 68.289 38.7876 68.1949C38.6756 68.1008 38.0652 67.2619 37.9523 67.1314C37.8412 67.0009 37.2679 66.5722 37.1382 66.5527C37.0077 66.534 36.5825 65.8807 36.5058 65.807C36.4326 65.7333 36.1565 65.7333 36.1371 65.807C36.1177 65.8807 35.9325 66.0875 35.9157 66.1816C35.8972 66.2739 35.8972 66.5171 35.7667 66.6281C35.6361 66.7382 35.5638 67.1501 35.5638 67.1501C35.5638 67.1501 35.3222 66.9823 35.2481 66.9646C35.1722 66.9459 35.0628 66.3476 35.0443 66.2162C35.0249 66.0875 34.8758 65.7502 34.7832 65.6401C34.6897 65.5274 34.4146 65.0418 34.2646 64.93C34.1173 64.819 34.0053 64.3157 33.9885 64.0902C33.9691 63.8674 33.5987 63.214 33.5052 63.0463C33.4117 62.8785 33.3191 62.2269 33.2829 62.1142C33.245 62.0023 33.0413 61.6481 32.931 61.5176C32.8199 61.3863 32.3013 60.8092 32.0975 60.677C31.8938 60.5474 31.817 60.2296 31.7826 60.1746C31.7438 60.1186 31.6891 59.7822 31.6891 59.7822C31.6891 59.7822 31.5604 59.5399 31.5216 59.428C31.4863 59.317 31.4492 57.6011 31.4669 57.5443C31.4863 57.4893 31.227 57.2842 31.1158 57.246C31.0029 57.2087 31.1344 57.0409 31.1158 56.9486C31.0964 56.8554 30.9668 56.7418 30.9668 56.7418C30.9668 56.7418 30.614 56.9664 30.4861 57.1155Z" fill="url(#paint3_linear)"/>
<path d="M4.87996 41.0447H7.22435L14.8811 55.4734L22.5352 41.0447H24.8805L16.1653 57.4778L25.325 74.6255H23.0229L14.8811 59.4369L6.82744 74.6255H4.52539L13.641 57.4778L4.87996 41.0447Z" fill="#292929"/>
<path d="M67.9803 72.6193H77.7063V74.6255H65.8564V41.0447H67.9803V72.6193Z" fill="#292929"/>
<path d="M102.51 61.5754L96.004 45.3642L102.51 61.5754ZM96.004 45.3642L89.4551 61.5754H102.51L96.004 45.3642ZM88.6586 63.5798L84.1895 74.6255H82.0215L96.004 39.9306L109.942 74.6255H107.775L103.304 63.5798H88.6586Z" fill="#292929"/>
<path d="M27.8056 57.8338C27.8056 66.1169 34.6659 73.0649 42.985 73.0649C51.2583 73.0649 58.1618 66.0716 58.1618 57.8338C58.1618 49.5489 51.2583 42.6026 42.985 42.6026C34.6659 42.6026 27.8056 49.5489 27.8056 57.8338ZM60.2857 57.8338C60.2857 67.2744 52.3661 75.0693 42.985 75.0693C33.6031 75.0693 25.6826 67.2744 25.6826 57.8338C25.6826 48.3913 33.5599 40.5982 42.985 40.5982C52.3661 40.5982 60.2857 48.3913 60.2857 57.8338Z" fill="#292929"/>
<defs>
<linearGradient id="paint0_linear" x1="46.8713" y1="98.6154" x2="46.8713" y2="50.8977" gradientUnits="userSpaceOnUse">
<stop stop-color="white"/>
<stop offset="1" stop-color="#626262"/>
</linearGradient>
<linearGradient id="paint1_linear" x1="32.8674" y1="55.9687" x2="40.1755" y2="55.9687" gradientUnits="userSpaceOnUse">
<stop stop-color="white"/>
<stop offset="1" stop-color="#909191"/>
</linearGradient>
<linearGradient id="paint2_linear" x1="40.2995" y1="61.7409" x2="40.2995" y2="76.7183" gradientUnits="userSpaceOnUse">
<stop stop-color="white"/>
<stop offset="1" stop-color="#909191"/>
</linearGradient>
<linearGradient id="paint3_linear" x1="21.0335" y1="77.3986" x2="63.2494" y2="77.3986" gradientUnits="userSpaceOnUse">
<stop stop-color="white"/>
<stop offset="1" stop-color="#626262"/>
</linearGradient>
</defs>
</svg>
