<svg width="115" height="115" viewBox="0 0 115 115" fill="none" xmlns="http://www.w3.org/2000/svg">
<g clip-path="url(#clip0)">
<path d="M81.4582 33.542H33.542V81.4582H81.4582V33.542Z" fill="#3B5598"/>
<path d="M60.4834 57.2054H63.2352L81.4588 33.5417H78.7672L60.4834 57.2054Z" fill="#FF1721"/>
<path d="M70.1551 67.7652C70.9903 70.1018 72.7113 76.1825 73.3955 76.6669H68.8773C68.8638 76.1293 68.7927 75.5948 68.6653 75.0723C68.4705 74.3773 66.8362 69.1196 66.8362 69.1196H59.6595L58.5312 70.7192C58.5312 70.7192 59.8865 74.9617 59.9706 75.1697C60.1168 75.5444 60.7639 76.6669 60.7639 76.6669H56.434C56.434 76.6669 56.3217 76.019 56.2796 75.7491C56.2457 75.5313 55.8694 74.3378 55.8694 74.3378C55.8694 74.3378 54.888 75.4132 54.6206 75.9118C54.3506 76.4094 54.231 76.6669 54.231 76.6669H50.8436C50.8436 76.6669 50.7305 76.019 50.6884 75.7491C50.6555 75.5313 50.2411 74.242 50.2411 74.242C50.2411 74.242 49.2928 75.3934 49.0228 75.8911C48.7546 76.3896 48.639 76.6669 48.639 76.6669H45.2889C45.2889 76.6669 46.2356 75.7656 46.5665 75.3785C47.1244 74.7223 49.2036 72.0052 49.2036 72.0052L48.37 69.1196H41.2478C41.2478 69.1196 37.1869 74.4557 37.0268 74.6208C36.865 74.7834 35.6814 76.4821 35.655 76.6669H33.542V75.3232C33.5682 75.2947 33.596 75.2677 33.6253 75.2424C33.6906 75.1944 36.704 71.4538 39.4723 67.7652C41.9601 64.5487 44.2942 61.4205 44.4989 61.1225C44.995 60.402 45.7098 58.8462 45.7098 58.8462H49.3917C49.3917 58.8462 49.5057 60.2773 49.613 60.6248C49.7087 60.9319 51.9521 68.2926 52.0049 68.3719L53.2455 66.7855L51.1251 60.2583C51.1251 60.2583 50.6282 59.0302 50.4664 58.8462H54.7675C54.7523 59.241 54.7997 59.6357 54.9078 60.0157C55.0827 60.5539 56.0048 63.881 56.0048 63.881C56.0048 63.881 58.9382 60.2039 59.1098 59.9398C59.3182 59.6104 59.4426 59.2349 59.4722 58.8462H63.0559C63.0559 58.8462 62.3998 59.3257 61.25 60.78C60.8638 61.2694 57.0793 66.079 57.0793 66.079C57.0793 66.079 57.4096 67.2048 57.5705 67.7652C57.6143 67.9262 57.6448 68.0351 57.6448 68.0467C57.6448 68.0517 57.7281 67.9493 57.8717 67.7652C58.8482 66.528 63.2895 60.7041 63.5586 60.2055C63.7757 59.8028 64.0951 59.3447 64.2825 58.8462H67.7788C67.7788 58.8462 67.8596 59.8903 67.9661 60.1791L70.1551 67.7652ZM64.8346 62.2525C64.3213 63.3569 61.2995 67.0356 61.2995 67.0356H66.0851C66.0851 67.0356 65.1574 64.1789 64.9956 63.5351C64.913 63.1235 64.8813 62.7032 64.9015 62.2838C64.9015 62.2253 64.8907 62.1303 64.8346 62.2525ZM46.4476 62.2525C45.9342 63.3569 42.9125 67.0356 42.9125 67.0356H47.6981C47.6981 67.0356 46.7712 64.1789 46.6095 63.5351C46.5268 63.1235 46.4952 62.7032 46.5153 62.2838C46.5153 62.2253 46.5038 62.1303 46.4476 62.2525H46.4476ZM53.6524 73.4067L54.9697 71.5975C54.8484 71.4671 54.1064 69.2171 54.1064 69.2171L52.8328 70.8694L53.6524 73.4067Z" fill="white"/>
</g>
<defs>
<clipPath id="clip0">
<rect width="47.9167" height="47.9167" fill="white" transform="translate(33.542 33.5417)"/>
</clipPath>
</defs>
</svg>
