<svg width="125" height="115" viewBox="0 0 125 115" fill="none" xmlns="http://www.w3.org/2000/svg">
<g clip-path="url(#clip0)">
<path d="M124.529 66.8657H109.596C109.464 66.8657 109.333 66.9944 109.333 67.1231V70.3836C109.333 70.5123 109.464 70.641 109.596 70.641H124.529C124.661 70.641 124.792 70.5123 124.792 70.3836V67.1231C124.792 66.9515 124.705 66.8657 124.529 66.8657Z" fill="#111111"/>
<path d="M14.6255 65.5288C14.7535 65.703 14.6682 65.9209 14.4549 65.9209H10.7865C10.7012 65.9209 10.6586 65.8773 10.6159 65.8337L3.83371 58.079V65.703C3.83371 65.8337 3.70574 65.9644 3.57778 65.9644H0.46394C0.335974 65.9644 0.208008 65.8337 0.208008 65.703V45.3577C0.208008 45.227 0.293318 45.1399 0.378629 45.1399L3.49247 44.225C3.66309 44.1814 3.79106 44.3121 3.79106 44.4428V56.4235L10.1894 48.9737C10.232 48.9301 10.3173 48.8865 10.36 48.8865H14.1563C14.3696 48.8865 14.4549 49.1479 14.3269 49.2786L7.3741 57.2512L14.6255 65.5288ZM67.5608 48.8865H63.6791V44.4428C63.6791 44.2685 63.5085 44.1814 63.3805 44.225L60.2667 45.1834C60.1814 45.227 60.0961 45.3141 60.0961 45.4013V48.8865H57.2382C57.1102 48.8865 56.9823 49.0172 56.9823 49.1479V52.1976C56.9823 52.3283 57.1102 52.459 57.2382 52.459H60.0534V60.6494C60.0534 65.006 62.1862 66.6179 67.6034 66.008C67.7314 66.008 67.8167 65.8773 67.8167 65.7466V62.9148C67.8167 62.7841 67.6887 62.6534 67.5608 62.6534C65.0014 62.7841 63.6791 62.7405 63.6791 60.6494V52.4154H67.5608C67.6887 52.4154 67.8167 52.2847 67.8167 52.154V49.1044C67.8167 48.9737 67.6887 48.8865 67.5608 48.8865ZM87.0969 57.4255C87.0969 57.8611 87.0543 58.2968 87.0116 58.6889C87.0116 58.8632 86.841 58.9503 86.713 58.9503H73.7458C73.7031 58.9503 73.7031 58.9503 73.7031 58.9939C74.3003 61.6078 76.3904 62.9584 79.035 62.9584C80.9119 62.9584 82.3195 62.1742 83.1726 61.085C83.2579 60.9543 83.4712 60.9108 83.5992 60.9979L85.9879 62.4356C86.1585 62.5227 86.2011 62.7841 86.0732 62.9148C84.5376 65.0495 82.1062 66.313 78.9497 66.313C73.4472 66.313 69.8642 62.4791 69.8642 57.3383C69.8642 52.2847 73.4472 48.3637 78.6938 48.3637C83.6845 48.4509 87.0969 52.5461 87.0969 57.4255ZM83.4712 55.9442C82.9593 53.0253 80.8692 51.8055 78.6938 51.8055C76.0065 51.8055 74.1723 53.4174 73.6605 55.9442C73.6605 55.9442 73.6605 55.9878 73.7031 55.9878L83.4712 55.9442C83.4286 55.9878 83.4712 55.9442 83.4712 55.9442ZM99.2537 48.4509C96.9929 48.4509 95.1588 49.3222 94.0924 51.0648V49.1479C94.0924 49.0172 93.9644 48.8865 93.8364 48.8865H90.7226C90.5947 48.8865 90.4667 49.0172 90.4667 49.1479V65.703C90.4667 65.8337 90.5947 65.9644 90.7226 65.9644H93.8364C93.9644 65.9644 94.0924 65.8337 94.0924 65.703V56.8156C94.0924 53.3303 95.9692 51.8926 98.3153 51.8926C100.576 51.8926 102.069 53.2431 102.069 55.8571V65.703C102.069 65.8337 102.197 65.9644 102.325 65.9644H105.439C105.567 65.9644 105.695 65.8337 105.695 65.703V55.465C105.652 51.0213 102.965 48.4509 99.2537 48.4509ZM33.0526 49.1479V65.703C33.0526 65.8337 32.9246 65.9644 32.7967 65.9644H29.6828C29.5549 65.9644 29.4269 65.8337 29.4269 65.703V63.4812C28.0619 65.4416 26.0998 66.4001 23.5831 66.4001C21.2797 66.4001 19.3603 65.5288 17.6967 63.7861C16.0758 62.0435 15.2653 59.9087 15.2653 57.4255C15.2653 54.8987 16.0758 52.8075 17.6967 51.0648C19.3176 49.3222 21.2797 48.4509 23.5831 48.4509C26.1424 48.4509 28.0619 49.4093 29.4269 51.3262V49.1479C29.4269 49.0172 29.5549 48.8865 29.6828 48.8865H32.7967C32.9673 48.8865 33.0526 48.9737 33.0526 49.1479ZM29.4696 57.4255C29.4696 55.8571 28.9577 54.5501 27.9766 53.5481C26.9956 52.5025 25.7159 51.9797 24.223 51.9797C22.73 51.9797 21.4504 52.5025 20.4693 53.5481C19.4882 54.5501 18.9764 55.8571 18.9764 57.4255C18.9764 58.9939 19.4882 60.3008 20.4693 61.3464C21.4504 62.3484 22.73 62.8712 24.223 62.8712C25.7159 62.8712 26.9956 62.3484 27.9766 61.3464C28.9577 60.2573 29.4696 58.9939 29.4696 57.4255ZM53.1433 51.0648C54.7642 52.8075 55.5746 54.8987 55.5746 57.4255C55.5746 59.9523 54.7642 62.0435 53.1433 63.7861C51.5224 65.5288 49.5602 66.4001 47.2568 66.4001C44.7402 66.4001 42.778 65.4416 41.4131 63.5247V71.323C41.4131 71.4537 41.2851 71.5844 41.1571 71.5844H38.0433C37.9153 71.5844 37.7873 71.4537 37.7873 71.323V49.1479C37.7873 49.0172 37.9153 48.8865 38.0433 48.8865H41.1571C41.2851 48.8865 41.4131 49.0172 41.4131 49.1479V51.3698C42.778 49.4093 44.7402 48.4509 47.2568 48.4509C49.6029 48.4509 51.5224 49.3222 53.1433 51.0648ZM51.9916 57.4255C51.9916 55.8571 51.4797 54.5501 50.4986 53.5481C49.5176 52.5025 48.2379 51.9797 46.745 51.9797C45.252 51.9797 43.9724 52.5025 42.9913 53.5481C42.0102 54.5501 41.4984 55.8571 41.4984 57.4255C41.4984 58.9939 42.0102 60.3008 42.9913 61.3464C43.9724 62.3484 45.252 62.8712 46.745 62.8712C48.2379 62.8712 49.5176 62.3484 50.4986 61.3464C51.4797 60.2573 51.9916 58.9939 51.9916 57.4255Z" fill="#111111"/>
</g>
<defs>
<clipPath id="clip0">
<rect width="124.583" height="27.3706" fill="white" transform="translate(0.208008 44.2139)"/>
</clipPath>
</defs>
</svg>
