<svg width="115" height="115" viewBox="0 0 115 115" fill="none" xmlns="http://www.w3.org/2000/svg">
<path d="M57.8106 33.5417C53.0947 33.5417 48.824 35.5576 45.7335 38.8126C42.6414 42.0693 40.7295 46.5685 40.7295 51.5369C40.7295 56.5054 42.6414 61.0046 45.7335 64.2613C48.3984 67.0702 51.9423 68.9538 55.8921 69.4198V81.4584H58.0316L58.2346 81.4535H58.2673L58.6798 81.4369L58.7011 81.4336C58.8386 81.427 58.9761 81.4171 59.1136 81.4072H59.1234L59.1807 81.4006L59.328 81.3874H59.3493L59.5359 81.3675L59.5686 81.3642L59.6996 81.3477L59.7716 81.3411L59.8027 81.3378L59.9058 81.3246L59.9844 81.313L60.009 81.3114L60.1121 81.2948L60.1988 81.2833L60.2152 81.2816L60.3167 81.2651L60.4116 81.2519L60.4182 81.2502L60.5197 81.2337L60.6228 81.2155L60.7243 81.1974L60.8258 81.1792L60.834 81.1775L60.8454 81.1742L61.0271 81.1395L61.0435 81.1362H61.05L61.2285 81.0982L61.2514 81.0933L61.2874 81.085L61.4282 81.0536L61.4609 81.047L61.4789 81.042L61.6344 81.0057L61.6966 80.9892L61.857 80.9495L61.8734 80.9462L61.9258 80.9313L62.024 80.9066L62.0485 80.8999L62.114 80.8834L62.1238 80.8801L62.2221 80.852L62.2826 80.8355L62.3203 80.8239L62.4545 80.7843L62.4856 80.776L62.5151 80.7661L62.6133 80.7364L62.6215 80.7331L62.7099 80.7066L62.8064 80.6752L62.8228 80.6703L62.9603 80.6257L63.0258 80.6025L63.1665 80.5546L63.1911 80.5463L63.2877 80.5133L63.3826 80.4786L63.4776 80.4439L63.4857 80.4406L63.5725 80.4076L63.6674 80.3712L63.746 80.3415L63.7624 80.3349L63.8557 80.2985L63.931 80.2671L63.949 80.2605L64.0423 80.2225L64.1356 80.1828L64.2289 80.1432C66.3616 79.226 68.287 77.8802 69.8877 76.1876C72.9782 72.9309 74.8901 68.4317 74.8901 63.4632C74.8901 58.4948 72.9782 53.9956 69.8877 50.7389C67.2195 47.93 63.6773 46.0463 59.7274 45.5804V33.5417H57.8106ZM55.2407 55.8676C53.9474 54.564 52.9218 53.0154 52.2229 51.3108C51.5241 49.6061 51.1656 47.7789 51.168 45.934C51.168 43.0392 52.0356 40.3492 53.5203 38.1137C54.2896 37.8493 55.0884 37.656 55.9118 37.5354V56.5021C55.6812 56.2982 55.4573 56.0866 55.2407 55.8676ZM48.4246 61.5185C46.0167 58.9772 44.5271 55.4678 44.5271 51.5882C44.5271 48.1349 45.709 44.9724 47.67 42.5253C47.4326 43.743 47.3066 45.0037 47.3066 46.2958C47.3066 51.4213 49.2774 56.0609 52.4628 59.4217C53.4941 60.5089 54.653 61.4639 55.9134 62.2554V65.4856C53.0096 65.0412 50.4069 63.607 48.4262 61.5201L48.4246 61.5185ZM68.3146 68.7027C68.3146 63.5789 66.3454 58.9376 63.16 55.5785C62.1314 54.4917 60.9716 53.5396 59.7078 52.7448V49.5145C62.6133 49.959 65.2143 51.3932 67.195 53.48C69.6045 56.0229 71.0957 59.5341 71.0957 63.4104C71.0957 66.8637 69.9122 70.0278 67.9529 72.4732C68.1902 71.2571 68.3146 69.9948 68.3146 68.7027ZM59.7078 68.8646V57.5001C61.2006 58.8173 62.3966 60.4421 63.2151 62.265C64.0337 64.0879 64.4558 66.0667 64.4532 68.0682C64.4532 70.9614 63.5856 73.653 62.0993 75.8885L62.0633 75.9001L62.0273 75.9116L62.0076 75.9183L61.9192 75.948L61.911 75.9513C61.2006 76.1826 60.464 76.3561 59.7078 76.4668V68.8662V68.8646Z" fill="#1576E1"/>
</svg>
