<svg width="115" height="115" viewBox="0 0 115 115" fill="none" xmlns="http://www.w3.org/2000/svg">
<path d="M74.349 61.2868C76.2137 61.1334 78.1501 61.747 79.5844 63.2807C82.0946 65.9648 82.0946 70.4127 79.5127 73.0201C77.0026 75.7042 72.9147 75.7042 70.4045 73.0201C68.4682 70.9495 68.0379 67.9587 69.0419 65.428L59.4317 49.7836C58.9297 49.8603 58.4276 49.8603 57.9256 49.7836L48.7457 63.0506C49.2477 64.6611 48.9609 66.5016 47.7417 67.8053C46.0204 69.5691 43.2952 69.5691 41.6456 67.8053C40.3547 66.4249 40.0678 64.3543 40.785 62.6672L36.7688 56.3788H36.4102C34.8324 56.3788 33.5415 54.9984 33.5415 53.3113C33.5415 51.6241 34.8324 50.2437 36.4102 50.2437C37.988 50.2437 39.2789 51.6241 39.2789 53.3113C39.2789 53.8481 39.1355 54.3082 38.9204 54.7683L43.08 60.2132C44.084 59.8297 45.2315 59.8297 46.1639 60.2132L53.8377 46.9461C52.4033 44.5688 52.6902 41.4246 54.6266 39.354C56.8498 36.9767 60.5075 36.9767 62.7307 39.354C64.5237 41.2712 64.8823 44.032 63.8782 46.3326L74.349 61.2868Z" fill="#E85693"/>
</svg>
