<svg width="115" height="115" viewBox="0 0 115 115" fill="none" xmlns="http://www.w3.org/2000/svg">
<g clip-path="url(#clip0)">
<path d="M17.2174 64.9125C17.6022 65.9703 18.1348 66.8747 18.8155 67.6257C19.4961 68.3769 20.3025 68.9517 21.2347 69.3503C22.1669 69.7489 23.1804 69.9481 24.2754 69.9481C25.3408 69.9481 26.3395 69.7412 27.2717 69.3272C28.2039 68.9133 29.0177 68.3308 29.7131 67.5798C30.4085 66.8286 30.9486 65.9319 31.3333 64.8895C31.7181 63.8471 31.9104 62.6822 31.9104 61.3945V41.5278H36.5713V73.7191H31.9548V70.7298C30.919 71.8641 29.6983 72.7379 28.2926 73.3512C26.8869 73.9643 25.3703 74.2709 23.7427 74.2709C22.0854 74.2709 20.5393 73.9719 19.104 73.3741C17.6687 72.7763 16.4258 71.9256 15.3753 70.8218C14.3248 69.7181 13.4961 68.3923 12.8895 66.8439C12.2828 65.2957 11.9795 63.5712 11.9795 61.6703V41.5278H16.6404V61.3945C16.6404 62.6822 16.8327 63.8547 17.2174 64.9125Z" fill="#010202"/>
<path d="M44.6054 41.5278V53.2546C45.6411 52.1816 46.8397 51.3309 48.2009 50.7023C49.5622 50.0738 51.0419 49.7596 52.6398 49.7596C54.2971 49.7596 55.8506 50.0814 57.3007 50.7252C58.7508 51.3691 60.0084 52.2428 61.0738 53.3466C62.1392 54.4504 62.9826 55.7533 63.6041 57.2555C64.2255 58.7578 64.5362 60.3521 64.5362 62.0383C64.5362 63.7244 64.2255 65.311 63.6041 66.7979C62.9826 68.2848 62.1392 69.5802 61.0738 70.6837C60.0084 71.7875 58.7508 72.6613 57.3007 73.3051C55.8506 73.9489 54.297 74.2708 52.6398 74.2708C51.0418 74.2708 49.5548 73.9566 48.1787 73.328C46.8027 72.6996 45.5967 71.8488 44.561 70.7757V73.719H40.1221V41.5278H44.6054ZM45.1158 65.2114C45.5153 66.1925 46.0702 67.0509 46.7805 67.7867C47.4907 68.5225 48.3193 69.1051 49.2663 69.5343C50.2133 69.9635 51.2342 70.1781 52.3292 70.1781C53.3946 70.1781 54.4007 69.9635 55.3476 69.5343C56.2946 69.1051 57.1157 68.5226 57.8113 67.7867C58.5067 67.051 59.0615 66.1925 59.4758 65.2114C59.8901 64.2303 60.0973 63.1727 60.0973 62.0383C60.0973 60.9039 59.8901 59.8385 59.4758 58.8421C59.0615 57.8457 58.5067 56.9796 57.8113 56.2438C57.1158 55.5081 56.2947 54.9332 55.3476 54.5193C54.4006 54.1055 53.3945 53.8984 52.3292 53.8984C51.2639 53.8984 50.2577 54.1054 49.3107 54.5193C48.3638 54.9333 47.5352 55.5081 46.8249 56.2438C46.1147 56.9796 45.5524 57.8457 45.1381 58.8421C44.7238 59.8385 44.5167 60.9039 44.5167 62.0383C44.5166 63.1727 44.7164 64.2303 45.1158 65.2114Z" fill="#010202"/>
<path d="M67.0663 57.3015C67.6581 55.8299 68.4721 54.5346 69.5077 53.4156C70.5434 52.2966 71.7716 51.4152 73.1921 50.7713C74.6126 50.1275 76.1514 49.8057 77.8086 49.8057C79.4362 49.8057 80.9455 50.1123 82.3364 50.7253C83.7272 51.3385 84.9257 52.1893 85.9318 53.2777C86.938 54.366 87.7223 55.6537 88.2844 57.1406C88.8468 58.6276 89.1279 60.2448 89.1279 61.9924V63.51H70.7063C70.8543 64.4604 71.1503 65.3418 71.5941 66.1541C72.0381 66.9666 72.5928 67.6718 73.2587 68.2696C73.9245 68.8675 74.6792 69.3351 75.5226 69.6722C76.366 70.0094 77.2611 70.1781 78.2081 70.1781C80.9012 70.1781 83.0763 69.0284 84.7335 66.729L87.9739 69.2123C86.8493 70.7759 85.4585 72.0022 83.8013 72.8913C82.1441 73.7803 80.2797 74.2249 78.2082 74.2249C76.5214 74.2249 74.9456 73.9182 73.4808 73.3051C72.0159 72.692 70.7434 71.8335 69.6633 70.7298C68.5832 69.626 67.7324 68.3307 67.1109 66.8439C66.4895 65.357 66.1787 63.7397 66.1787 61.9922C66.1785 60.3367 66.4746 58.7731 67.0663 57.3015ZM73.3031 55.4849C72.0454 56.5733 71.2094 58.0219 70.7951 59.8308H84.6003C84.2155 58.0219 83.3943 56.5733 82.1366 55.4849C80.8789 54.3966 79.4066 53.8524 77.7199 53.8524C76.033 53.8524 74.5608 54.3966 73.3031 55.4849Z" fill="#010202"/>
<path d="M97.5171 56.014C96.5702 57.087 96.0967 58.5432 96.0967 60.3828V73.7193H91.6133V50.2656H96.0522V53.1628C96.6145 52.2124 97.3469 51.4613 98.2495 50.9094C99.152 50.3575 100.225 50.0815 101.468 50.0815H103.021V54.4044H101.157C99.6774 54.4045 98.4641 54.9409 97.5171 56.014Z" fill="#010202"/>
</g>
<defs>
<clipPath id="clip0">
<rect width="91.0417" height="32.7431" fill="white" transform="translate(11.9795 41.5278)"/>
</clipPath>
</defs>
</svg>
