<svg width="115" height="115" viewBox="0 0 115 115" fill="none" xmlns="http://www.w3.org/2000/svg">
<g clip-path="url(#clip0)">
<path d="M33.751 33.5417H81.1921C81.1916 49.7608 81.1926 65.9799 81.1916 82.1989C65.3784 82.1999 49.5642 82.1989 33.751 82.1994V33.5417ZM74.8266 68.7361C74.8246 68.8393 74.8241 68.943 74.8261 69.0466C75.0527 69.0451 75.2804 69.0461 75.507 69.0461C75.5085 69.6916 75.507 70.3371 75.508 70.9831C75.6319 70.9821 75.7557 70.9821 75.8796 70.9826C75.8796 70.3371 75.8791 69.6916 75.8801 69.0461C76.1072 69.0461 76.3353 69.0456 76.5625 69.0461C76.562 68.943 76.562 68.8403 76.5625 68.7371C75.9838 68.7361 75.4052 68.7381 74.8266 68.7361ZM76.9952 68.7366C76.9938 69.4853 76.9938 70.2339 76.9952 70.9826C77.1186 70.9826 77.242 70.9826 77.3658 70.9826C77.3683 70.3692 77.3619 69.7562 77.3697 69.1428C77.6179 69.7507 77.8421 70.3687 78.0791 70.9811C78.1584 70.9816 78.2382 70.9816 78.319 70.9816C78.5579 70.3667 78.7855 69.7472 79.0308 69.1353C79.0352 69.7507 79.0317 70.3667 79.0332 70.9826C79.1561 70.9821 79.2794 70.9821 79.4028 70.9836C79.4072 70.235 79.4033 69.4863 79.4048 68.7376C79.2168 68.7361 79.0288 68.7366 78.8413 68.7376C78.6323 69.3 78.4188 69.8609 78.2069 70.4222C77.9934 69.8599 77.7761 69.299 77.5626 68.7366C77.3732 68.7371 77.1837 68.7366 76.9952 68.7366ZM39.3822 71.1308C38.4589 71.1689 37.5293 71.5971 36.9795 72.3758C36.5066 73.0283 36.3176 73.8575 36.3216 74.6603C36.3074 75.416 36.4562 76.1942 36.8508 76.8417C37.1704 77.3715 37.66 77.7871 38.223 78.0205C38.9015 78.3024 39.6622 78.353 40.3769 78.2023C41.0398 78.0625 41.6674 77.707 42.0992 77.1677C42.4888 76.6904 42.7145 76.0905 42.8065 75.4796C42.9059 74.77 42.8795 74.0328 42.6749 73.3448C42.483 72.6998 42.0938 72.1124 41.5528 71.7243C40.9267 71.2695 40.141 71.0893 39.3822 71.1308ZM45.7012 72.0888C45.7022 71.8264 45.7022 71.564 45.7012 71.3021C45.1485 71.3021 44.5958 71.2991 44.0431 71.3041C44.0461 73.5656 44.0436 75.8271 44.0446 78.0886C44.6369 78.0911 45.2293 78.0886 45.8216 78.0901C45.8246 76.5888 45.8182 75.0869 45.8251 73.5861C45.8975 73.3653 46.0953 73.2055 46.2926 73.1009C46.7454 72.8805 47.2584 72.8615 47.7504 72.857C47.7504 72.2961 47.7499 71.7353 47.7509 71.1749C46.9755 71.1008 46.2005 71.4934 45.7012 72.0888ZM50.0503 71.3587C49.4472 71.556 48.9092 71.9566 48.5459 72.4894C48.9381 72.7243 49.3341 72.9526 49.7292 73.182C50.066 72.7543 50.5638 72.4594 51.1023 72.4158C51.4876 72.3818 51.9492 72.4018 52.2244 72.7218C52.4192 72.9506 52.3624 73.2706 52.3698 73.5486C51.4651 73.6577 50.5521 73.81 49.7091 74.177C49.2333 74.3884 48.7692 74.6913 48.4882 75.151C48.1744 75.6668 48.1426 76.3264 48.3173 76.8977C48.4593 77.369 48.801 77.7716 49.2406 77.9734C49.7443 78.2133 50.3205 78.2003 50.8576 78.1126C51.3931 78.021 51.9062 77.8072 52.36 77.5022C52.4104 77.698 52.4608 77.8933 52.5117 78.0896C53.0302 78.0891 53.5486 78.0896 54.067 78.0896C54.0479 76.5212 54.0602 74.9517 54.0582 73.3833C54.089 72.9211 54.0039 72.4318 53.7204 72.0598C53.3518 71.5565 52.7413 71.3181 52.1534 71.222C51.4543 71.1193 50.7269 71.1373 50.0503 71.3587ZM58.704 71.213C58.0827 71.3442 57.5388 71.7017 57.0317 72.0763C56.9808 71.8109 56.922 71.5465 56.876 71.2806C56.3918 71.3482 55.9072 71.4168 55.423 71.4864C55.4221 73.6843 55.423 75.8817 55.423 78.0791C56.0022 78.0796 56.5808 78.0791 57.1604 78.0791C57.1604 76.4591 57.1604 74.8396 57.1604 73.2201C57.5707 72.8705 58.0401 72.552 58.5816 72.4829C58.8542 72.4519 59.1744 72.4684 59.3732 72.6892C59.5695 72.9241 59.6008 73.2501 59.6101 73.5471C59.6111 75.0579 59.6106 76.5682 59.6106 78.0791C60.1931 78.0801 60.7757 78.0791 61.3583 78.0791C61.3583 76.4721 61.3583 74.8651 61.3583 73.2581C61.3514 72.9356 61.3083 72.6106 61.1996 72.3072C61.0582 71.899 60.7649 71.546 60.3777 71.3667C59.8573 71.1248 59.2581 71.1053 58.704 71.213ZM63.2445 72.2005C62.7118 72.9381 62.5253 73.8811 62.5425 74.7845C62.5498 75.6088 62.7285 76.4716 63.2391 77.1286C63.6439 77.6629 64.275 77.9924 64.927 78.0625C65.4029 78.1091 65.9115 78.0886 66.3369 77.8407C66.6326 77.6719 66.8406 77.3885 67.0154 77.0986C67.0291 77.384 67.0193 77.6699 67.0223 77.9554C67.011 78.3335 66.9572 78.7451 66.7016 79.0386C66.4686 79.3035 66.1054 79.3971 65.7685 79.3981C65.4146 79.4031 65.0323 79.3906 64.7258 79.1868C64.5731 79.0861 64.4948 78.9099 64.4497 78.7366C63.875 78.8312 63.3008 78.9264 62.726 79.021C62.8303 79.5699 63.2043 80.0356 63.6777 80.299C64.4169 80.7197 65.2956 80.7662 66.12 80.6851C66.8348 80.612 67.5896 80.4037 68.0993 79.8533C68.556 79.3596 68.699 78.6565 68.7092 77.9964C68.7092 75.758 68.7092 73.52 68.7092 71.2816C68.2163 71.2846 67.7233 71.2741 67.2308 71.2871C67.1926 71.537 67.1447 71.7858 67.1021 72.0357C66.9493 71.7117 66.6517 71.4869 66.3325 71.3547C65.913 71.1789 65.4503 71.1373 65.0005 71.1639C64.3014 71.218 63.6532 71.6231 63.2445 72.2005ZM70.5122 72.1494C70.0325 72.7338 69.8185 73.4995 69.7652 74.2502C69.7138 75.0694 69.7887 75.9237 70.1544 76.6664C70.4378 77.2453 70.9244 77.7195 71.5133 77.9589C72.2697 78.2709 73.1185 78.2679 73.9067 78.0971C74.6782 77.9243 75.4042 77.4501 75.7968 76.735C75.3685 76.4941 74.9406 76.2507 74.5142 76.0064C74.3228 76.2873 74.0898 76.5502 73.7878 76.7059C73.4475 76.8832 73.0505 76.9058 72.6789 76.8507C72.3191 76.7971 71.9789 76.5943 71.7826 76.2773C71.5403 75.8877 71.4737 75.4119 71.4707 74.9577C72.9335 74.9587 74.3967 74.9577 75.8605 74.9582C75.9099 74.3608 75.8541 73.7519 75.6862 73.1775C75.5016 72.5545 75.1266 71.9776 74.5852 71.6256C73.9214 71.1859 73.0921 71.0908 72.3216 71.1834C71.6318 71.2685 70.9582 71.5941 70.5122 72.1494Z" fill="#FF6600"/>
<path d="M71.8765 72.7671C72.0879 72.5222 72.4032 72.3905 72.718 72.3709C73.1194 72.3404 73.5576 72.4556 73.8317 72.7746C74.074 73.0505 74.1548 73.4321 74.1641 73.7942C73.2751 73.7937 72.3861 73.7952 71.4971 73.7932C71.526 73.4256 71.6307 73.0465 71.8765 72.7671Z" fill="#FF6600"/>
<path d="M65.3754 72.4485C65.7847 72.3714 66.2302 72.5061 66.52 72.8161C66.8607 73.1726 66.9993 73.6799 67.0286 74.1672C67.0423 74.5242 67.0276 74.8838 66.9723 75.2368C66.9102 75.6089 66.7878 75.9895 66.5254 76.2644C66.2865 76.5133 65.9389 76.627 65.6036 76.6185C65.2912 76.6285 64.9623 76.5268 64.7459 76.2859C64.4551 75.979 64.3587 75.5413 64.3117 75.1297C64.2735 74.7105 64.2622 74.2864 64.3161 73.8682C64.367 73.5007 64.4781 73.1271 64.718 72.8406C64.8849 72.6378 65.1204 72.4961 65.3754 72.4485Z" fill="#FF6600"/>
<path d="M39.3111 72.6635C39.735 72.5989 40.2094 72.6705 40.5413 72.9685C40.8532 73.2434 41.0049 73.6585 41.073 74.0642C41.1449 74.5204 41.142 74.9901 41.0553 75.4433C40.976 75.8414 40.8027 76.243 40.4796 76.4939C40.1193 76.7683 39.6361 76.8174 39.2063 76.7268C38.8553 76.6537 38.5435 76.4198 38.3643 76.1023C38.1058 75.6426 38.0491 75.0968 38.0598 74.575C38.0765 74.1062 38.1572 73.6185 38.4182 73.2229C38.6203 72.9154 38.9532 72.7116 39.3111 72.6635Z" fill="#FF6600"/>
<path d="M50.7602 75.0073C51.2556 74.7975 51.7897 74.7043 52.3189 74.6357C52.3209 75.1646 52.3179 75.6939 52.3204 76.2232C51.8778 76.6298 51.3134 76.9493 50.7049 76.9378C50.5008 76.9433 50.2986 76.8542 50.1595 76.7024C49.8947 76.3975 49.8565 75.9147 50.0616 75.5662C50.2144 75.2963 50.488 75.1285 50.7602 75.0073Z" fill="#FF6600"/>
<path d="M81.1921 33.5417H81.2322V82.2405H33.751V82.1994C49.5642 82.1989 65.3784 82.1999 81.1916 82.1989C81.1926 65.9799 81.1916 49.7608 81.1921 33.5417Z" fill="#FED9BF"/>
<path d="M74.826 68.7361C75.4046 68.7381 75.9832 68.7361 76.5619 68.7371C76.5614 68.8402 76.5614 68.9429 76.5619 69.0461C76.3347 69.0456 76.1066 69.0461 75.8795 69.0461C75.8785 69.6916 75.879 70.3371 75.879 70.9826C75.7551 70.9821 75.6313 70.9821 75.5074 70.9831C75.5064 70.3371 75.5079 69.6916 75.5064 69.0461C75.2798 69.0461 75.0521 69.0451 74.8255 69.0466C74.8235 68.9429 74.824 68.8392 74.826 68.7361Z" fill="white"/>
<path d="M76.9952 68.7366C77.1837 68.7366 77.3732 68.7371 77.5626 68.7366C77.7761 69.2989 77.9934 69.8598 78.2069 70.4222C78.4188 69.8608 78.6323 69.2999 78.8413 68.7376C79.0288 68.7366 79.2168 68.7361 79.4048 68.7376C79.4033 69.4862 79.4072 70.2349 79.4028 70.9835C79.2795 70.982 79.1561 70.982 79.0332 70.9825C79.0318 70.3666 79.0352 69.7506 79.0308 69.1352C78.7855 69.7471 78.5579 70.3666 78.319 70.9815C78.2382 70.9815 78.1584 70.9815 78.0791 70.981C77.8422 70.3686 77.6179 69.7506 77.3697 69.1427C77.3619 69.7562 77.3683 70.3691 77.3658 70.9825C77.242 70.9825 77.1186 70.9825 76.9952 70.9825C76.9938 70.2339 76.9938 69.4852 76.9952 68.7366Z" fill="white"/>
<path d="M39.3838 71.1308C40.1426 71.0892 40.9283 71.2695 41.5544 71.7242C42.0954 72.1123 42.4846 72.6997 42.6765 73.3447C42.8811 74.0328 42.9075 74.7699 42.8082 75.4795C42.7161 76.0905 42.4904 76.6904 42.1008 77.1676C41.669 77.707 41.0414 78.0625 40.3786 78.2022C39.6638 78.353 38.9031 78.3024 38.2246 78.0204C37.6616 77.7871 37.1721 77.3714 36.8524 76.8416C36.4578 76.1941 36.309 75.4159 36.3232 74.6603C36.3193 73.8575 36.5082 73.0282 36.9811 72.3757C37.5309 71.597 38.4605 71.1689 39.3838 71.1308ZM39.3123 72.6637C38.9545 72.7117 38.6216 72.9156 38.4194 73.223C38.1585 73.6186 38.0777 74.1064 38.0611 74.5751C38.0503 75.0969 38.1071 75.6428 38.3656 76.1025C38.5447 76.42 38.8566 76.6538 39.2076 76.7269C39.6374 76.8176 40.1206 76.7685 40.4809 76.4941C40.804 76.2432 40.9773 75.8416 41.0566 75.4435C41.1432 74.9903 41.1462 74.5205 41.0742 74.0643C41.0062 73.6587 40.8544 73.2436 40.5426 72.9686C40.2106 72.6707 39.7363 72.5991 39.3123 72.6637Z" fill="white"/>
<path d="M45.702 72.0886C46.2014 71.4932 46.9763 71.1006 47.7517 71.1747C47.7508 71.7351 47.7513 72.296 47.7513 72.8568C47.2593 72.8613 46.7462 72.8804 46.2934 73.1007C46.0961 73.2054 45.8983 73.3651 45.8259 73.586C45.819 75.0868 45.8254 76.5886 45.8225 78.0899C45.2301 78.0884 44.6378 78.0909 44.0454 78.0884C44.0444 75.8269 44.0469 73.5654 44.0439 71.3039C44.5966 71.2989 45.1493 71.3019 45.702 71.3019C45.703 71.5638 45.703 71.8262 45.702 72.0886Z" fill="white"/>
<path d="M50.0506 71.3586C50.7272 71.1372 51.4547 71.1192 52.1537 71.2218C52.7417 71.318 53.3521 71.5564 53.7207 72.0596C54.0042 72.4317 54.0894 72.921 54.0585 73.3832C54.0605 74.9516 54.0483 76.521 54.0673 78.0895C53.5489 78.0895 53.0305 78.089 52.5121 78.0895C52.4612 77.8932 52.4107 77.6979 52.3603 77.502C51.9065 77.807 51.3935 78.0209 50.8579 78.1125C50.3209 78.2001 49.7447 78.2131 49.2409 77.9733C48.8013 77.7715 48.4596 77.3688 48.3177 76.8976C48.1429 76.3262 48.1747 75.6667 48.4885 75.1509C48.7695 74.6912 49.2336 74.3882 49.7094 74.1769C50.5524 73.8098 51.4654 73.6576 52.3701 73.5484C52.3628 73.2705 52.4195 72.9505 52.2247 72.7217C51.9496 72.4017 51.4879 72.3816 51.1027 72.4157C50.5642 72.4593 50.0663 72.7542 49.7295 73.1819C49.3344 72.9525 48.9384 72.7242 48.5463 72.4893C48.9095 71.9565 49.4475 71.5559 50.0506 71.3586ZM50.7605 75.0072C50.4883 75.1284 50.2146 75.2961 50.0619 75.5661C49.8568 75.9146 49.895 76.3973 50.1598 76.7023C50.2988 76.854 50.501 76.9432 50.7052 76.9377C51.3137 76.9492 51.8781 76.6297 52.3207 76.2231C52.3182 75.6938 52.3211 75.1644 52.3192 74.6356C51.79 74.7042 51.2559 74.7974 50.7605 75.0072Z" fill="white"/>
<path d="M58.7042 71.2128C59.2584 71.1052 59.8576 71.1247 60.378 71.3666C60.7652 71.5459 61.0584 71.8989 61.1999 72.307C61.3086 72.6105 61.3517 72.9355 61.3585 73.258C61.3585 74.865 61.3585 76.472 61.3585 78.0789C60.776 78.0789 60.1934 78.08 59.6108 78.0789C59.6108 76.5681 59.6113 75.0578 59.6103 73.5469C59.601 73.25 59.5697 72.924 59.3734 72.6891C59.1747 72.4683 58.8545 72.4518 58.5818 72.4828C58.0404 72.5519 57.5709 72.8704 57.1607 73.2199C57.1607 74.8394 57.1607 76.4589 57.1607 78.0789C56.5811 78.0789 56.0024 78.0794 55.4233 78.0789C55.4233 75.8816 55.4223 73.6842 55.4233 71.4863C55.9074 71.4167 56.3921 71.3481 56.8763 71.2804C56.9223 71.5464 56.981 71.8108 57.0319 72.0762C57.5391 71.7016 58.083 71.344 58.7042 71.2128Z" fill="white"/>
<path d="M63.2441 72.2002C63.6529 71.6228 64.301 71.2177 65.0001 71.1636C65.45 71.137 65.9126 71.1786 66.3321 71.3544C66.6513 71.4866 66.9489 71.7114 67.1017 72.0354C67.1443 71.7855 67.1923 71.5367 67.2304 71.2868C67.7229 71.2737 68.2159 71.2843 68.7089 71.2813C68.7089 73.5197 68.7089 75.7577 68.7089 77.9961C68.6986 78.6562 68.5556 79.3592 68.0989 79.853C67.5893 80.4034 66.8344 80.6117 66.1197 80.6848C65.2953 80.7659 64.4165 80.7193 63.6773 80.2987C63.2039 80.0353 62.8299 79.5696 62.7257 79.0207C63.3004 78.9261 63.8746 78.8309 64.4493 78.7363C64.4944 78.9095 64.5727 79.0858 64.7254 79.1865C65.0319 79.3903 65.4142 79.4028 65.7682 79.3978C66.105 79.3968 66.4682 79.3032 66.7012 79.0382C66.9568 78.7448 67.0106 78.3332 67.0219 77.9551C67.019 77.6696 67.0287 77.3837 67.015 77.0982C66.8403 77.3882 66.6322 77.6716 66.3365 77.8404C65.9111 78.0883 65.4025 78.1088 64.9266 78.0622C64.2746 77.9921 63.6436 77.6626 63.2387 77.1283C62.7281 76.4713 62.5494 75.6084 62.5421 74.7842C62.525 73.8808 62.7115 72.9378 63.2441 72.2002ZM65.3746 72.4481C65.1195 72.4956 64.8841 72.6374 64.7171 72.8402C64.4772 73.1266 64.3661 73.5002 64.3152 73.8678C64.2614 74.2859 64.2726 74.7101 64.3108 75.1292C64.3578 75.5408 64.4542 75.9785 64.745 76.2855C64.9614 76.5264 65.2904 76.628 65.6027 76.618C65.938 76.6265 66.2856 76.5128 66.5245 76.264C66.7869 75.989 66.9093 75.6084 66.9715 75.2364C67.0268 74.8833 67.0415 74.5238 67.0278 74.1667C66.9984 73.6795 66.8599 73.1722 66.5191 72.8156C66.2293 72.5057 65.7838 72.3709 65.3746 72.4481Z" fill="white"/>
<path d="M70.5125 72.1496C70.9585 71.5942 71.6321 71.2687 72.3219 71.1836C73.0924 71.091 73.9217 71.1861 74.5855 71.6258C75.127 71.9778 75.502 72.5547 75.6865 73.1777C75.8544 73.7521 75.9102 74.361 75.8608 74.9584C74.3971 74.9579 72.9338 74.9589 71.4711 74.9579C71.474 75.4121 71.5406 75.8879 71.7829 76.2775C71.9792 76.5944 72.3194 76.7973 72.6793 76.8508C73.0508 76.9059 73.4478 76.8834 73.7881 76.7061C74.0901 76.5504 74.3231 76.2875 74.5146 76.0065C74.9409 76.2509 75.3688 76.4943 75.7972 76.7352C75.4045 77.4503 74.6786 77.9245 73.907 78.0973C73.1189 78.268 72.27 78.271 71.5137 77.9591C70.9247 77.7197 70.4381 77.2455 70.1547 76.6666C69.789 75.9239 69.7141 75.0696 69.7655 74.2503C69.8189 73.4997 70.0328 72.734 70.5125 72.1496ZM71.8769 72.7675C71.6311 73.047 71.5264 73.4261 71.4975 73.7936C72.3865 73.7956 73.2755 73.7941 74.1645 73.7946C74.1552 73.4326 74.0745 73.051 73.8321 72.7751C73.558 72.4561 73.1198 72.3409 72.7184 72.3714C72.4036 72.391 72.0884 72.5227 71.8769 72.7675Z" fill="white"/>
</g>
<defs>
<clipPath id="clip0">
<rect width="47.4974" height="48.7153" fill="white" transform="translate(33.751 33.5417)"/>
</clipPath>
</defs>
</svg>
