<svg width="115" height="115" viewBox="0 0 115 115" fill="none" xmlns="http://www.w3.org/2000/svg">
<path d="M73.4804 34.3889C70.4028 34.3889 67.7513 35.9408 66.4018 38.2367C66.3545 38.3217 66.2835 38.4705 66.2835 38.4705C64.65 41.3192 61.3356 43.275 57.5003 43.275C53.6888 43.275 50.3744 41.3192 48.7409 38.4705L48.6225 38.2367C47.2731 35.9408 44.5979 34.3889 41.5202 34.3889C37.1168 34.3889 33.542 37.5989 33.542 41.553V70.252C33.542 74.2061 37.1168 77.4161 41.5202 77.4161C44.5742 77.4161 47.2494 75.8643 48.5751 73.5896L48.7172 73.3558C50.3507 70.5071 53.6651 68.5513 57.5003 68.5513C61.3119 68.5513 64.6263 70.5071 66.2835 73.3558L66.4255 73.5896C67.7749 75.8643 70.4265 77.4161 73.4804 77.4161C77.8839 77.4161 81.4587 74.2061 81.4587 70.252V41.553C81.4587 37.5989 77.8839 34.3889 73.4804 34.3889ZM57.5003 63.0666C53.0969 63.0666 49.5221 59.8566 49.5221 55.9025C49.5221 51.9484 53.0969 48.7384 57.5003 48.7384C61.9037 48.7384 65.4785 51.9484 65.4785 55.9025C65.4785 59.8566 61.9037 63.0666 57.5003 63.0666Z" fill="url(#paint0_linear)"/>
<defs>
<linearGradient id="paint0_linear" x1="31.6859" y1="69.2864" x2="80.3937" y2="37.9693" gradientUnits="userSpaceOnUse">
<stop stop-color="#EA2A35"/>
<stop offset="1" stop-color="#FF6158"/>
</linearGradient>
</defs>
</svg>
