<svg width="115" height="115" viewBox="0 0 115 115" fill="none" xmlns="http://www.w3.org/2000/svg">
<path d="M36.0124 81.7376C34.5326 81.7376 33.5167 80.6997 33.5167 79.2969V79.2828C33.5137 78.9566 33.5762 78.6332 33.7005 78.3316C33.8249 78.0301 34.0085 77.7566 34.2405 77.5273C34.4725 77.2981 34.7482 77.1178 35.0513 76.9971C35.3543 76.8764 35.6785 76.8178 36.0046 76.8248C36.8601 76.8248 37.3743 77.056 37.8697 77.4758L37.2123 78.27C36.8785 77.9519 36.4326 77.7784 35.9716 77.7872C35.212 77.7872 34.6081 78.4587 34.6081 79.267V79.2796C34.6081 80.1477 35.2041 80.7846 36.0455 80.7846C36.3949 80.7957 36.7389 80.696 37.0283 80.5V79.8222H35.9778V78.9211H38.0395V80.9828C37.4773 81.4711 36.7572 81.7393 36.0124 81.7376Z" fill="#101010"/>
<path d="M47.4856 81.6558L46.4681 80.1367H45.6488V81.6558H44.603V76.9097H46.7732C47.8929 76.9097 48.5644 77.4994 48.5644 78.4823V78.4964C48.5798 78.8192 48.4884 79.1381 48.3046 79.4038C48.1207 79.6696 47.8544 79.8674 47.547 79.9668L48.706 81.6621L47.4856 81.6558ZM47.5061 78.5295C47.5061 78.0828 47.1916 77.8517 46.6852 77.8517H45.6488V79.2151H46.7056C47.2151 79.2151 47.5061 78.9446 47.5061 78.5436V78.5295Z" fill="#101010"/>
<path d="M57.3746 81.7378C55.9089 81.7378 54.8584 80.6464 54.8584 79.2971V79.283C54.8584 77.9337 55.9231 76.8281 57.3872 76.8281C58.8513 76.8281 59.9033 77.9195 59.9033 79.2704V79.283C59.9033 80.6323 58.8387 81.7378 57.3746 81.7378ZM58.812 79.283C58.8185 79.0899 58.7862 78.8974 58.7169 78.717C58.6477 78.5366 58.543 78.3719 58.4089 78.2327C58.2749 78.0936 58.1143 77.9827 57.9366 77.9068C57.7589 77.8308 57.5678 77.7913 57.3746 77.7906C56.5332 77.7906 55.9498 78.4558 55.9498 79.2704V79.283C55.943 79.4761 55.9752 79.6687 56.0444 79.8492C56.1135 80.0297 56.2182 80.1945 56.3523 80.3337C56.4864 80.4729 56.6471 80.5837 56.8249 80.6596C57.0027 80.7355 57.1939 80.7749 57.3872 80.7754C58.2285 80.7754 58.812 80.1102 58.812 79.2971V79.283Z" fill="#101010"/>
<path d="M68.3738 81.7313C67.0984 81.7313 66.3184 81.0189 66.3184 79.6224V76.9097H67.361V79.5941C67.361 80.3678 67.7479 80.7689 68.3848 80.7689C69.0217 80.7689 69.4086 80.382 69.4086 79.6287V76.9097H70.4528V79.5831C70.4543 81.0252 69.6476 81.7313 68.3738 81.7313Z" fill="#101010"/>
<path d="M78.9174 80.2331H78.1311V81.6563H77.0869V76.9102H79.0259C80.1582 76.9102 80.8439 77.5817 80.8439 78.5504V78.5645C80.8376 79.6638 79.9821 80.2331 78.9174 80.2331ZM79.7839 78.5708C79.7839 78.0991 79.4584 77.8522 78.9363 77.8522H78.1296V79.3037H78.9568C79.4789 79.3037 79.7839 78.9892 79.7839 78.585V78.5708Z" fill="#101010"/>
<path d="M32.1171 62.0608C34.7355 60.8562 36.4261 58.2865 36.4261 55.4999C36.4261 51.4928 33.0371 48.2344 28.8776 48.2344H18.5659V71.8236H22.3402V62.7653H26.8426L32.2775 71.7292H36.6809L31.0997 62.52L32.1171 62.0608ZM22.3433 51.7209H28.5819C30.6263 51.7209 32.4159 53.4869 32.4159 55.4951C32.4159 57.5034 30.6247 59.2694 28.5819 59.2694H22.3433V51.7209Z" fill="#101010"/>
<path d="M57.7808 71.6824H61.8019L64.0461 66.9174H75.004L77.2497 71.6793H81.2693L69.525 47.189L57.7808 71.6824ZM65.5793 63.6621L69.525 55.2926L73.4707 63.6621H65.5793Z" fill="#101010"/>
<path d="M44.7999 61.5355H54.3771V58.2834H44.7999V51.7209H56.0661V48.2344H41.0791V71.756H56.7188V68.2695H44.7999V61.5355Z" fill="#101010"/>
<path d="M86.6872 68.2285V48.0503H82.9648V71.6348H95.8336V68.2285H86.6872Z" fill="#101010"/>
<path d="M73.0265 33.353H59.0884V53.58L73.0265 33.353Z" fill="#FF0000"/>
</svg>
