<svg width="115" height="115" viewBox="0 0 115 115" fill="none" xmlns="http://www.w3.org/2000/svg">
<path d="M58.5423 57.5C71.1988 57.5 81.459 47.2399 81.459 34.5833C81.459 34.008 80.9926 33.5417 80.4173 33.5417L57.396 33.5417L57.396 57.5L58.5423 57.5Z" fill="#FDDB60"/>
<path d="M57.5076 58.5375C57.5626 71.1801 47.3292 81.4583 34.6864 81.4582C34.1135 81.4582 33.6491 80.9938 33.6491 80.4209L33.6491 57.3948L57.5026 57.3948L57.5076 58.5375Z" fill="#5B25B3"/>
<path fill-rule="evenodd" clip-rule="evenodd" d="M57.5003 57.5001L57.5003 33.5417C57.4973 33.5417 57.4943 33.5417 57.4913 33.5417C44.2636 33.5466 33.542 44.2713 33.542 57.5001L57.5003 57.5001Z" fill="#17B086"/>
</svg>
