<svg width="115" height="115" viewBox="0 0 115 115" fill="none" xmlns="http://www.w3.org/2000/svg">
<path d="M44.8239 33.5417H48.8085C50.7059 33.5417 51.3939 33.7351 52.0876 34.0983C52.7813 34.4614 53.3257 34.9943 53.6966 35.6733C54.0676 36.3523 54.2652 37.0258 54.2652 38.8832V76.117C54.2652 77.9743 54.0676 78.6478 53.6966 79.3268C53.3257 80.0059 52.7813 80.5388 52.0876 80.9019C51.3939 81.265 50.7059 81.4584 48.8085 81.4584H44.8239C42.9265 81.4584 42.2384 81.265 41.5447 80.9019C40.8511 80.5388 40.3067 80.0059 39.9357 79.3268C39.5647 78.6478 39.3672 77.9743 39.3672 76.117V38.8832C39.3672 37.0258 39.5647 36.3523 39.9357 35.6733C40.3067 34.9943 40.8511 34.4614 41.5447 34.0983C42.2384 33.7351 42.9265 33.5417 44.8239 33.5417Z" fill="#FB6D6D"/>
<path d="M66.1071 33.5417H70.0917C71.9891 33.5417 72.6771 33.7351 73.3708 34.0983C74.0645 34.4614 74.6089 34.9943 74.9798 35.6733C75.3508 36.3523 75.5484 37.0258 75.5484 38.8832V53.2003C75.5484 55.0576 75.3508 55.7312 74.9798 56.4102C74.6089 57.0892 74.0645 57.6221 73.3708 57.9852C72.6771 58.3484 71.9891 58.5417 70.0917 58.5417H66.1071C64.2097 58.5417 63.5216 58.3484 62.828 57.9852C62.1343 57.6221 61.5899 57.0892 61.2189 56.4102C60.8479 55.7312 60.6504 55.0576 60.6504 53.2003V38.8832C60.6504 37.0258 60.8479 36.3523 61.2189 35.6733C61.5899 34.9943 62.1343 34.4614 62.828 34.0983C63.5216 33.7351 64.2097 33.5417 66.1071 33.5417Z" fill="#FB6D6D"/>
</svg>
