<svg width="115" height="115" viewBox="0 0 115 115" fill="none" xmlns="http://www.w3.org/2000/svg">
<path d="M49.7145 78.2623C51.0611 80.3201 53.1897 81.4584 55.7093 81.4584C60.8351 81.4584 63.3556 75.5179 66.2776 68.6309L66.3522 68.4551L66.3781 68.3938C69.1103 61.9246 72.4902 53.922 76.5607 54.7513C77.1689 54.8388 77.7771 54.9702 77.9943 56.5463C78.559 61.3186 73.9977 69.8561 70.7397 71.3885C68.9152 72.2641 68.1767 74.4095 69.0021 76.2045C69.8709 78.0434 71.9995 78.7877 73.7805 77.9558C80.1228 74.9786 86.0308 63.2888 85.0751 55.6707C84.5103 51.3362 81.9039 48.4028 77.8639 47.6585C68.1767 45.8197 63.3114 57.2906 59.7927 65.6968C58.6632 68.4113 56.8387 72.7458 55.6224 74.103C55.188 72.9647 54.8839 68.9367 58.4895 60.7056C60.4008 56.2399 62.5729 52.5184 64.3105 49.4974C65.9178 46.6953 67.1776 44.4624 67.8726 42.4922C69.3496 38.0265 67.2645 35.706 65.8744 34.7428C64.7883 33.9547 62.9638 33.1666 60.4009 33.7358C53.4504 35.2244 46.1524 46.0386 42.4165 52.2995C40.7657 55.0577 39.506 57.7285 38.5068 59.8738C37.9855 61.0121 37.3339 62.3256 36.8126 63.2888C36.8126 61.0559 37.8118 56.2399 41.5911 48.7969C44.8926 42.3609 47.6822 39.9469 47.8588 39.7588C48.74 38.8205 50.2481 36.4752 48.5105 34.7239C46.7728 32.9726 44.6008 33.5477 43.6328 34.2174C43.0992 34.5866 39.3322 37.4573 35.2488 45.5132C29.1237 57.5533 29.2106 63.8142 30.34 66.9665C31.0351 68.9367 32.3817 70.3815 34.2062 71.1696C35.466 71.7388 38.7675 72.5706 41.6345 69.068C42.8509 67.5357 43.7631 65.5217 44.9795 62.9823C45.9786 60.8808 47.0646 58.5165 48.5416 56.0647C54.1889 46.564 58.4026 42.7112 60.5746 41.3977C59.923 42.6674 58.9673 44.3749 58.0985 45.8635C56.274 49.0158 53.9717 52.9562 51.8865 57.7722C49.0629 64.252 46.3696 73.096 49.7145 78.2623Z" fill="#65ED49"/>
</svg>
