<svg width="118" height="115" viewBox="0 0 118 115" fill="none" xmlns="http://www.w3.org/2000/svg">
<path d="M36.5161 36.3969C40.6413 39.2142 44.3552 42.7417 45.648 46.9793C46.9408 51.2169 45.789 56.153 43.8263 60.4255C41.8636 64.7097 39.0782 68.307 35.5288 70.5073C31.9677 72.6959 27.6544 73.4992 23.0591 73.8717C18.4637 74.2443 13.5863 74.1977 9.39057 72.207C5.19482 70.2162 1.68073 66.2697 0.705247 61.8574C-0.281989 57.4336 1.30464 52.5324 3.14983 47.9921C4.99502 43.4518 7.13403 39.2491 10.5423 36.199C13.9507 33.1489 18.64 31.2629 23.2589 31.3677C27.866 31.4725 32.4026 33.5796 36.5161 36.3969Z" fill="#C9E0E0"/>
<path d="M60.1975 65.1175C59.8449 65.0476 59.5041 65.001 59.1515 64.9195C56.7657 64.3607 54.9792 62.2769 54.7559 59.8437C54.5091 57.1312 55.3906 54.9193 57.6941 53.3593C60.7969 51.2521 65.2159 53.2778 65.6038 56.9566C65.7331 58.2023 65.451 58.5399 64.1817 58.5631C62.4188 58.5981 60.6558 58.5981 58.8929 58.6214C58.5873 58.6214 58.2818 58.6563 57.9997 58.6679C57.6941 60.2279 58.4346 61.9393 59.7039 62.6843C60.8674 63.3595 62.3365 63.1384 63.594 62.0906C63.7233 61.9858 63.8526 61.881 63.9819 61.7763C64.3345 61.4852 64.7223 61.2873 65.1219 61.6831C65.498 62.0673 65.4392 62.4981 65.1337 62.9055C64.2169 64.1396 62.9359 64.7333 61.455 64.9778C61.22 65.0127 60.9967 65.0709 60.7734 65.1175C60.5853 65.1175 60.3855 65.1175 60.1975 65.1175ZM58.082 56.9217C59.3748 56.9217 60.5853 56.9449 61.7841 56.8984C62.0309 56.8867 62.3835 56.6539 62.4775 56.4327C62.7361 55.8623 62.2895 54.8843 61.6548 54.3838C61.0672 53.9297 60.362 53.8599 59.7274 54.2324C58.7166 54.8145 58.2818 55.7342 58.082 56.9217Z" fill="#222222"/>
<path d="M117.785 64.4074C117.409 64.5471 117.033 64.8032 116.657 64.8148C115.117 64.8497 113.578 64.8148 112.026 64.8148C111.556 64.8148 111.145 64.7217 111.063 64.1862C110.969 63.6274 111.333 63.3945 111.827 63.2665C112.896 62.9871 112.896 62.9871 112.908 61.8927C112.92 59.7041 112.931 57.5038 112.943 55.3151C112.943 54.6283 112.72 54.1742 111.921 54.2092C111.462 54.2208 111.121 54.0113 111.086 53.5223C111.051 52.9751 111.427 52.754 111.885 52.7074C113.166 52.6026 114.436 52.5211 115.811 52.428C115.811 53.988 115.811 55.4548 115.811 56.9333C115.811 58.7029 115.823 60.4724 115.811 62.242C115.811 62.9056 115.964 63.3014 116.763 63.313C117.104 63.3247 117.444 63.6506 117.797 63.8369C117.785 64.0348 117.785 64.2211 117.785 64.4074Z" fill="#222222"/>
<path d="M71.0803 53.7086C74.2065 51.9856 75.3583 52.0322 77.7206 53.9414C78.6843 53.1847 79.7421 52.5677 81.0232 52.4629C81.9869 52.3814 82.9271 52.5211 83.7733 53.0101C84.6195 53.4991 85.2307 54.1859 85.2542 55.1988C85.3012 57.1546 85.2894 59.1104 85.3129 61.0662C85.3129 61.5319 85.3247 62.0092 85.3247 62.4749C85.3247 62.9405 85.4775 63.2432 86.0181 63.2432C86.4765 63.2432 86.8055 63.4644 86.829 63.9534C86.8408 64.5005 86.4647 64.7217 85.9946 64.7217C84.4197 64.7566 82.8566 64.7683 81.2817 64.7334C80.8351 64.7217 80.4355 64.5005 80.459 63.9534C80.4825 63.4528 80.8234 63.2432 81.27 63.2432C82.0339 63.2432 82.3042 62.8823 82.2924 62.1489C82.2572 60.0767 82.2807 58.0044 82.2455 55.9322C82.2337 55.2104 81.9164 54.5817 81.1994 54.2907C80.4473 53.988 79.8244 54.3373 79.225 54.768C78.3435 55.3967 78.179 56.3164 78.132 57.2593C78.0497 58.9008 77.9792 60.554 77.9674 62.2071C77.9557 63.1501 78.0497 63.1966 78.9899 63.2432C79.4835 63.2665 79.8596 63.4411 79.8949 63.9534C79.9301 64.4889 79.5306 64.7334 79.0722 64.745C77.4033 64.7683 75.7461 64.7683 74.0772 64.7334C73.6306 64.7217 73.2193 64.5238 73.231 63.965C73.231 63.3713 73.6541 63.2199 74.1478 63.1966C74.5709 63.1734 74.9234 63.0802 74.9352 62.5913C74.9587 60.3328 75.0645 58.0743 74.9352 55.8274C74.8529 54.3605 73.6659 53.9414 72.4083 54.7447C71.3858 55.4083 71.0333 56.4328 70.9863 57.5388C70.9157 59.2035 70.951 60.8799 70.9275 62.5563C70.9157 63.0686 71.1743 63.2781 71.6797 63.2665C72.1615 63.2549 72.5259 63.4062 72.5494 63.965C72.5729 64.5704 72.1498 64.7566 71.6797 64.7683C70.1753 64.7916 68.6827 64.7916 67.1783 64.7566C66.7317 64.745 66.2499 64.6169 66.2146 64.0116C66.1911 63.4178 66.579 63.2316 67.0843 63.2083C67.4957 63.185 67.6837 62.9754 67.7072 62.5913C67.7777 61.3689 67.8835 60.1465 67.9188 58.9241C67.954 57.725 67.9305 56.5143 67.907 55.3152C67.8953 54.4653 67.7072 54.2791 66.8728 54.1976C66.3674 54.151 65.9678 53.988 65.9561 53.4292C65.9561 52.8588 66.3557 52.6725 66.861 52.6376C67.8835 52.5677 68.906 52.5095 69.9168 52.4047C70.6102 52.3349 70.9275 52.6143 70.9745 53.2779C70.9628 53.4408 71.0333 53.5689 71.0803 53.7086Z" fill="#222222"/>
<path d="M38.5356 53.7087C41.8028 52.009 42.9664 52.0555 45.1876 53.9415C45.4227 53.7785 45.6578 53.5922 45.9163 53.4176C47.4559 52.3931 49.1131 52.0905 50.8643 52.8006C52.063 53.2896 52.78 54.1743 52.78 55.5131C52.78 57.6552 52.78 59.7973 52.78 61.951C52.78 62.6495 52.7682 63.2782 53.7672 63.3015C53.9552 63.3015 54.2843 63.6973 54.2961 63.9301C54.3078 64.163 54.0375 64.4191 53.8377 64.6286C53.7554 64.7101 53.5674 64.7334 53.4264 64.7334C51.875 64.7451 50.3354 64.7683 48.784 64.7334C48.3491 64.7218 47.9143 64.5355 47.9261 63.9767C47.9378 63.4412 48.3021 63.2316 48.7723 63.2316C49.5479 63.2316 49.783 62.8242 49.7712 62.114C49.7477 60.2048 49.7712 58.2955 49.7595 56.3863C49.7595 56.037 49.7007 55.6761 49.5832 55.3502C49.2424 54.314 48.2786 53.8949 47.3032 54.3839C46.4805 54.803 45.7635 55.3734 45.7048 56.3979C45.599 58.3654 45.5167 60.3445 45.4227 62.3119C45.3874 62.9872 45.6813 63.3248 46.3982 63.2549C46.5392 63.2433 46.739 63.2316 46.8095 63.3131C47.0093 63.511 47.2679 63.7555 47.2914 64C47.3149 64.2095 47.0681 64.5006 46.8683 64.6403C46.6685 64.7683 46.3629 64.7683 46.1161 64.7683C44.741 64.78 43.3542 64.78 41.9791 64.7683C41.7676 64.7683 41.4973 64.7916 41.3562 64.6868C41.0859 64.4773 40.6981 64.1746 40.7098 63.9301C40.7333 63.674 41.1564 63.2549 41.415 63.2549C42.2377 63.2433 42.4375 62.766 42.4492 62.1373C42.4728 60.1815 42.508 58.2257 42.461 56.2815C42.4492 55.5015 42.2847 54.6982 41.3562 54.4072C40.6628 54.1976 39.5581 54.6167 39.1232 55.4666C38.7354 56.2233 38.4768 57.0964 38.4063 57.9346C38.2887 59.4131 38.3475 60.9033 38.3358 62.3818C38.3358 62.9639 38.5473 63.3248 39.229 63.2665C39.6756 63.2316 39.9577 63.4761 40.0047 63.9185C40.0517 64.4074 39.7579 64.7101 39.2995 64.7218C37.6659 64.7451 36.0205 64.7567 34.3868 64.6752C34.1283 64.6636 33.7287 64.2561 33.6699 63.9767C33.5759 63.5343 33.9402 63.2316 34.4103 63.2316C35.0215 63.2316 35.186 62.8707 35.1978 62.3701C35.2448 59.9487 35.2918 57.5155 35.3388 55.094C35.3505 54.5469 35.0567 54.2675 34.5161 54.2209C34.3986 54.2093 34.281 54.2093 34.1635 54.1976C33.6934 54.1511 33.3408 53.8716 33.4231 53.4293C33.4819 53.1382 33.8462 52.7308 34.1165 52.6958C35.2918 52.5445 36.4788 52.5096 37.6659 52.4281C38.1007 52.3931 38.324 52.6027 38.371 53.0334C38.4063 53.2663 38.4768 53.4758 38.5356 53.7087Z" fill="#222222"/>
<path d="M24.0682 54.0813C24.409 53.8136 24.6911 53.5574 25.0084 53.3595C26.5481 52.3351 28.1817 52.2768 29.8153 53.0801C30.9201 53.6273 31.4255 54.6285 31.4725 55.7927C31.543 57.4574 31.5077 59.1338 31.5077 60.8103C31.5077 61.1828 31.5195 61.567 31.496 61.9395C31.4607 62.638 31.59 63.1619 32.4245 63.3598C32.6713 63.418 33.0121 63.9186 32.9768 64.1747C32.9416 64.4076 32.4715 64.7568 32.1894 64.7568C30.8143 64.7917 29.4392 64.7452 28.0642 64.7219C27.9937 64.7219 27.8996 64.7452 27.8526 64.7102C27.5705 64.5123 27.171 64.3377 27.0769 64.07C26.9359 63.6741 27.2297 63.3365 27.6763 63.29C28.452 63.1968 28.6753 62.7428 28.6636 62.021C28.6401 60.3213 28.6636 58.6333 28.6636 56.9336C28.6636 56.6309 28.5813 56.3282 28.5225 56.0255C28.3697 55.3154 28.0289 54.7216 27.2885 54.5237C26.5128 54.3142 25.7724 54.547 25.314 55.1873C24.8792 55.781 24.4678 56.4562 24.268 57.1664C23.7861 58.9243 23.7156 60.7404 23.9037 62.5682C23.9507 63.0455 24.1387 63.3016 24.6206 63.3598C25.1377 63.4297 25.5726 63.6508 25.4785 64.2679C25.3845 64.8383 24.9144 64.8732 24.4326 64.8616C23.269 64.8383 22.1055 64.8383 20.9302 64.8267C20.7657 64.8267 20.6011 64.8383 20.4248 64.8267C19.9547 64.8034 19.4729 64.7219 19.4259 64.1398C19.3788 63.6159 19.7549 63.3482 20.2133 63.3016C20.9067 63.2317 21.0595 62.801 21.0712 62.2306C21.083 59.9488 21.1065 57.667 21.1065 55.3736C21.1065 54.7333 20.8714 54.2443 20.1545 54.0697C19.7314 53.9649 19.3671 53.6273 19.5551 53.1965C19.6844 52.9055 20.1075 52.6145 20.4248 52.5795C21.3181 52.498 22.2348 52.5679 23.1397 52.533C23.5628 52.5097 23.7391 52.6843 23.8332 53.0568C23.8567 53.3712 23.9624 53.6971 24.0682 54.0813Z" fill="#222222"/>
<path d="M99.6397 58.4234C99.6514 61.9625 96.772 64.9661 93.3402 64.9777C89.9671 64.9894 87.2287 62.2536 87.2052 58.8309C87.1817 55.3616 90.0141 52.4628 93.4695 52.4396C96.913 52.4046 99.6397 55.0473 99.6397 58.4234ZM90.4607 58.6679C90.4137 60.03 90.7076 61.2989 91.5773 62.3816C92.635 63.6971 94.1864 63.7437 95.3264 62.498C95.5497 62.2536 95.7613 61.9858 95.9023 61.6948C96.9248 59.378 96.819 57.1428 95.3029 55.0706C94.2687 53.6619 92.4822 53.7201 91.448 55.1288C90.6605 56.1766 90.4255 57.3873 90.4607 58.6679Z" fill="#222222"/>
<path d="M104.892 52.5796C104.975 53.15 105.033 53.6273 105.116 54.1978C105.315 54.0115 105.48 53.8602 105.645 53.7088C106.42 52.9987 107.278 52.4981 108.371 52.5097C109.934 52.5214 111.016 53.9417 110.604 55.4202C110.44 55.9906 110.052 56.3515 109.464 56.4679C108.877 56.5727 108.371 56.4214 108.019 55.9208C107.889 55.7461 107.795 55.5599 107.69 55.3736C107.396 54.873 107.02 54.8264 106.561 55.1524C105.645 55.816 105.245 56.759 105.21 57.8416C105.174 59.3667 105.198 60.9034 105.186 62.4401C105.186 62.9291 105.374 63.1969 105.868 63.2551C106.326 63.3016 106.655 63.4763 106.632 64.0001C106.62 64.5473 106.209 64.7452 105.774 64.7569C104.234 64.7918 102.683 64.7918 101.131 64.7685C100.697 64.7569 100.332 64.524 100.344 64.0234C100.356 63.5228 100.708 63.3016 101.155 63.3016C101.872 63.3016 102.095 62.9757 102.095 62.3004C102.06 59.9721 102.06 57.6437 102.048 55.3037C102.048 54.71 101.79 54.384 101.155 54.3491C100.638 54.3258 100.18 54.1512 100.203 53.5342C100.227 52.9521 100.661 52.8357 101.155 52.8008C102.377 52.7309 103.588 52.6611 104.892 52.5796Z" fill="#222222"/>
<path d="M17.1696 52.428C17.1696 55.6062 17.1696 58.6214 17.1696 61.625C17.1696 61.8578 17.1814 62.1023 17.1579 62.3351C17.1109 62.9638 17.3107 63.3363 18.0276 63.2897C18.2039 63.2781 18.4625 63.313 18.5682 63.4294C18.7798 63.6623 19.0736 63.9999 19.0266 64.2444C18.9796 64.4772 18.5682 64.8032 18.3097 64.8148C17.628 64.8497 16.9346 64.71 16.2529 64.71C15.3009 64.71 14.3607 64.7682 13.4087 64.8148C12.9151 64.8381 12.4685 64.7333 12.3745 64.1862C12.2805 63.6274 12.6683 63.3945 13.1502 63.2665C14.1962 62.9871 14.2079 62.9871 14.2197 61.9044C14.2432 59.6924 14.2432 57.4805 14.2667 55.2686C14.2784 54.5351 13.9729 54.1742 13.2089 54.1975C12.7388 54.2092 12.3627 53.9298 12.445 53.4757C12.492 53.1963 12.8564 52.7772 13.1267 52.7423C14.4195 52.591 15.7476 52.5328 17.1696 52.428Z" fill="#222222"/>
<path d="M113.907 49.5409C112.861 49.5409 112.073 48.7958 112.085 47.7946C112.097 46.7935 112.849 46.06 113.848 46.0833C114.835 46.0949 115.646 46.8749 115.646 47.8063C115.634 48.8075 114.918 49.5409 113.907 49.5409Z" fill="#222222"/>
<path d="M13.4318 47.7829C13.4435 46.7468 14.1722 46.0483 15.2065 46.0716C16.1937 46.1065 17.0164 46.9215 16.9811 47.8295C16.9459 48.8423 16.1937 49.5525 15.183 49.5292C14.137 49.5059 13.42 48.7841 13.4318 47.7829Z" fill="#222222"/>
</svg>
