<svg width="115" height="115" viewBox="0 0 115 115" fill="none" xmlns="http://www.w3.org/2000/svg">
<g clip-path="url(#clip0)">
<path fill-rule="evenodd" clip-rule="evenodd" d="M58.7443 52.2647V54.817C58.9545 54.57 59.055 54.4733 59.1311 54.3595C60.4789 52.3378 63.0666 51.3939 65.4774 52.0481C67.7798 52.6725 69.3422 54.5908 69.5353 57.1114C69.6147 58.1475 69.6022 59.1917 69.6055 60.2325C69.6142 62.9403 69.6085 65.6478 69.6085 68.3556V69.2742C68.213 69.2742 66.8915 69.2895 65.5722 69.2456C65.4685 69.242 65.2956 68.8278 65.2943 68.6036C65.275 65.7108 65.2843 62.8181 65.2786 59.9253C65.2775 59.44 65.2639 58.9528 65.2182 58.4703C65.0719 56.9353 64.2789 55.9639 62.9834 55.7014C61.4157 55.3836 60.069 55.9245 59.489 57.3578C59.1022 58.3131 58.8927 59.4011 58.8589 60.4386C58.7727 63.0739 58.8302 65.7142 58.8302 68.3522V69.2739C57.4217 69.2739 56.0764 69.2806 54.7316 69.26C54.6373 69.2586 54.4948 69.0697 54.465 68.9453C54.4176 68.7483 54.4436 68.532 54.4436 68.3239C54.4431 64.0886 54.438 59.8533 54.4469 55.6183C54.4493 54.5356 54.497 53.4525 54.5238 52.3695C55.5985 52.3347 56.6732 52.2978 57.7482 52.2661C58.0372 52.2575 58.3266 52.2647 58.7443 52.2647Z" fill="#165416"/>
<path fill-rule="evenodd" clip-rule="evenodd" d="M35.8584 52.3161C35.9855 52.2978 36.093 52.2692 36.2006 52.2689C37.4622 52.2656 38.7243 52.267 40.0854 52.267V54.6117C40.1683 54.6622 40.2512 54.7128 40.3341 54.7636C40.3666 54.6553 40.375 54.5297 40.4354 54.4411C41.8893 52.3017 44.4258 51.3664 46.8645 52.0636C49.323 52.7667 50.8908 54.8436 50.9279 57.6353C50.9769 61.3136 50.9411 64.9928 50.9411 68.6714C50.9411 68.9742 50.9818 69.2897 50.5212 69.2858C49.2615 69.2747 48.0013 69.282 46.6673 69.282C46.6494 68.9664 46.6215 68.7 46.6213 68.4336C46.6183 65.4261 46.6213 62.4183 46.6164 59.4106C46.6158 59.0647 46.5996 58.7158 46.5519 58.3739C46.3222 56.7253 45.5138 55.8589 44.0357 55.6547C42.5084 55.4436 41.1879 56.1256 40.6949 57.6222C40.3625 58.6306 40.217 59.7406 40.188 60.8106C40.1181 63.4 40.1534 65.9928 40.1748 68.5839C40.1791 69.1167 40.0382 69.3147 39.4907 69.2967C38.2995 69.2564 37.1062 69.2842 35.8584 69.2842V52.3161Z" fill="#165416"/>
<path fill-rule="evenodd" clip-rule="evenodd" d="M91.2669 52.266H95.5605V56.1021H91.3183C91.298 56.3944 91.2696 56.6169 91.2693 56.8391C91.266 59.2677 91.2633 61.6957 91.2693 64.1241C91.2717 65.1499 91.5516 65.4257 92.5678 65.4296C93.5549 65.4338 94.5427 65.4305 95.6098 65.4305C95.6098 66.651 95.6214 67.8013 95.5919 68.951C95.5889 69.0649 95.3359 69.2671 95.1974 69.2682C93.1903 69.2857 91.1815 69.3244 89.1763 69.2546C87.9883 69.2132 87.242 68.281 87.2379 67.0155C87.2276 63.7085 87.2341 60.4016 87.2339 57.0941V56.1282H83.9161C83.9161 54.8982 83.9006 53.7488 83.9399 52.6019C83.9443 52.4835 84.275 52.2877 84.4601 52.2807C85.3543 52.2469 86.2499 52.2655 87.2339 52.2655C87.2339 50.8388 87.2333 49.5032 87.2341 48.1677C87.2347 47.2013 87.2355 47.2007 88.1902 47.2002C89.0021 47.1996 89.8153 47.2274 90.6256 47.1907C91.1422 47.1674 91.2864 47.3724 91.275 47.8755C91.2479 49.0541 91.2666 50.2341 91.2669 51.4135V52.266Z" fill="#165416"/>
<path fill-rule="evenodd" clip-rule="evenodd" d="M72.8272 56.1231V52.3101H79.9543V53.1603C79.9545 57.0028 79.964 60.8453 79.944 64.6876C79.941 65.2451 80.0697 65.4698 80.6543 65.4434C81.6664 65.3973 82.6817 65.4306 83.7605 65.4306V69.2295C83.5684 69.2478 83.3758 69.282 83.1832 69.282C79.7969 69.2853 76.4108 69.2748 73.0247 69.2948C72.5084 69.2981 72.2957 69.1673 72.3163 68.6026C72.3534 67.5873 72.3266 66.5701 72.3266 65.4659H76.1236C76.1523 65.1881 76.1903 64.9912 76.1908 64.7942C76.1949 62.1323 76.1789 59.4703 76.2054 56.8087C76.2106 56.2498 76.0364 56.0887 75.5097 56.1123C74.6358 56.1517 73.7586 56.1231 72.8272 56.1231Z" fill="#165416"/>
<path fill-rule="evenodd" clip-rule="evenodd" d="M25.4082 65.4436V56.1239H22.0438C22.0438 54.9089 22.0322 53.7594 22.0614 52.6105C22.0641 52.4927 22.3109 52.2833 22.4461 52.2819C24.6535 52.2611 26.8608 52.2672 29.1679 52.2672V65.4058H33.0432V69.2439H21.6299V65.4436H25.4082Z" fill="#165416"/>
<path fill-rule="evenodd" clip-rule="evenodd" d="M27.2983 47.8835C22.7417 47.8793 19.2047 44.1896 19.1668 39.4954C19.1299 34.9154 22.9378 31.0479 27.4175 31.1476C31.9016 31.2476 35.4886 34.9196 35.4965 39.5468C35.5044 44.2018 31.6596 47.9963 27.2983 47.8835Z" fill="#4DB935"/>
</g>
<defs>
<clipPath id="clip0">
<rect width="76.6667" height="38.3333" fill="white" transform="translate(19.1665 31.1458)"/>
</clipPath>
</defs>
</svg>
