<svg width="115" height="115" viewBox="0 0 115 115" fill="none" xmlns="http://www.w3.org/2000/svg">
<path fill-rule="evenodd" clip-rule="evenodd" d="M81.2708 64.2196L64.6025 35.0468C64.3489 34.6102 63.887 34.3403 63.3859 34.3403C62.8872 34.3403 62.4227 34.6102 62.1704 35.0468L46.5439 62.3932H49.7821L63.3859 38.5896L77.6291 63.5104H70.3782L71.9959 66.3458H80.0564C80.5586 66.3458 81.022 66.0752 81.2708 65.6367C81.5223 65.1971 81.5223 64.6571 81.2708 64.2196Z" fill="#111111"/>
<path fill-rule="evenodd" clip-rule="evenodd" d="M75.3864 74.5168L59.757 47.168L58.1387 50.0018L71.7409 73.8079H43.2561L46.8841 67.4629H43.644L39.613 74.5168C39.3621 74.9526 39.3621 75.4942 39.613 75.9325C39.8632 76.3723 40.3282 76.6409 40.8269 76.6409H74.1719C74.6727 76.6409 75.1328 76.3723 75.3864 75.9325C75.6354 75.4942 75.6354 74.9526 75.3864 74.5168Z" fill="#FF6D55"/>
<path fill-rule="evenodd" clip-rule="evenodd" d="M64.5815 63.5109H37.3729L51.6177 38.5901L55.243 44.9358L56.861 42.1012L52.8324 35.0473C52.5825 34.6107 52.119 34.3408 51.6177 34.3408C51.1158 34.3408 50.6523 34.6107 50.4016 35.0473L33.7314 64.2201C33.4789 64.6576 33.4789 65.1975 33.7314 65.6371C33.9784 66.0757 34.4424 66.3463 34.9437 66.3463H66.2016L64.5815 63.5109Z" fill="#111111"/>
</svg>
