<svg width="115" height="115" viewBox="0 0 115 115" fill="none" xmlns="http://www.w3.org/2000/svg">
<g clip-path="url(#clip0)">
<path opacity="0.35" d="M73.2358 53.3822C72.7383 52.6553 72.0985 52.0313 71.353 51.5458C70.6074 51.0604 69.7709 50.7231 68.8913 50.5533C68.0117 50.3835 67.1063 50.3845 66.2272 50.5563C65.348 50.7281 64.5122 51.0674 63.7679 51.5545L55.3795 57.0203L42.7261 48.7613C41.3046 47.7472 40.3403 46.2372 40.0344 44.5468C39.7286 42.8563 40.1049 41.1161 41.0848 39.6896C42.0647 38.2631 43.5724 37.2606 45.2929 36.8915C47.0135 36.5225 48.8139 36.8153 50.3181 37.709L71.3599 51.5028C72.2998 52.1169 73.0684 52.9489 73.5966 53.924C74.1248 54.8991 74.3961 55.9868 74.3861 57.0893C74.3704 55.794 73.9709 54.5306 73.2358 53.4512" fill="#1989FF"/>
<path opacity="0.75" d="M42.7261 65.2796L55.3795 57.0205L63.7679 62.4173C65.2583 63.4113 67.0928 63.788 68.8682 63.4647C70.6436 63.1414 72.2145 62.1445 73.2358 60.6931C73.9709 59.6137 74.3704 58.3503 74.3861 57.055C74.3961 58.1575 74.1248 59.2452 73.5966 60.2203C73.0684 61.1954 72.2998 62.0274 71.3599 62.6415L50.3181 76.4353C48.8139 77.329 47.0135 77.6218 45.2929 77.2528C43.5724 76.8837 42.0647 75.8812 41.0848 74.4547C40.1049 73.0282 39.7286 71.2879 40.0344 69.5975C40.3403 67.907 41.3046 66.3971 42.7261 65.383" fill="#1989FF"/>
<path d="M73.2357 60.6929C72.2144 62.1442 70.6435 63.1411 68.8681 63.4644C67.0927 63.7878 65.2582 63.4111 63.7678 62.4171L55.3623 57.0127L63.7678 51.4855C64.5122 50.9983 65.3479 50.6591 66.2271 50.4873C67.1063 50.3155 68.0116 50.3144 68.8912 50.4842C69.7708 50.654 70.6074 50.9913 71.3529 51.4768C72.0984 51.9622 72.7383 52.5863 73.2357 53.3132C73.9852 54.386 74.3859 55.6536 74.3859 56.9513C74.3859 58.249 73.9852 59.5166 73.2357 60.5894" fill="#1989FF"/>
</g>
<defs>
<clipPath id="clip0">
<rect width="35.3941" height="41.3815" fill="white" transform="translate(39.9307 36.7358)"/>
</clipPath>
</defs>
</svg>
