<svg width="115" height="115" viewBox="0 0 115 115" fill="none" xmlns="http://www.w3.org/2000/svg">
<path d="M57.3234 33.5417C51.7799 33.5474 46.4653 35.6546 42.5458 39.4012C38.6263 43.1477 36.4222 48.2273 36.4172 53.5253C36.4063 56.1572 36.9446 58.7648 38.0007 61.1956C39.0567 63.6264 40.6093 65.8316 42.5675 67.6821L56.1401 80.9863C56.2949 81.1359 56.4791 81.2546 56.6822 81.3357C56.8854 81.4167 57.1033 81.4584 57.3234 81.4584C57.5435 81.4584 57.7614 81.4167 57.9645 81.3357C58.1676 81.2546 58.3518 81.1359 58.5066 80.9863L72.0634 67.7003C75.0009 64.9105 77.0055 61.3499 77.8229 57.4699C78.6404 53.5899 78.2339 49.5653 76.655 45.9063C75.0761 42.2474 72.3959 39.119 68.9543 36.9177C65.5127 34.7164 61.4646 33.5414 57.3234 33.5417Z" fill="#366D56"/>
<path d="M64.2642 58.1682V61.5177H57.3098H50.3555L57.5764 49.9467H53.9949H50.3555V46.5972L64.2946 46.6147L62.4417 49.5463L60.6301 52.4127L58.7448 55.405L57.7999 56.9047L57.0194 58.1435L60.1449 58.1682H62.2045H64.2642Z" fill="white"/>
</svg>
