<svg width="115" height="115" viewBox="0 0 115 115" fill="none" xmlns="http://www.w3.org/2000/svg">
<path fill-rule="evenodd" clip-rule="evenodd" d="M33.1428 34.7021C32.9111 35.1567 32.9111 35.7518 32.9111 36.942V78.0581C32.9111 79.2483 32.9111 79.8434 33.1428 80.298C33.3465 80.6979 33.6716 81.023 34.0715 81.2268C34.5261 81.4584 35.1212 81.4584 36.3114 81.4584H78.6883C79.8785 81.4584 80.4736 81.4584 80.9282 81.2268C81.3281 81.023 81.6532 80.6979 81.857 80.298C82.0886 79.8434 82.0886 79.2483 82.0886 78.0581V36.942C82.0886 35.7518 82.0886 35.1567 81.857 34.7021C81.6532 34.3022 81.3281 33.9771 80.9282 33.7734C80.4736 33.5417 79.8785 33.5417 78.6883 33.5417H36.3114C35.1212 33.5417 34.5261 33.5417 34.0715 33.7734C33.6716 33.9771 33.3465 34.3022 33.1428 34.7021ZM64.0707 67.507L65.3005 67.5091C67.8884 67.5154 74.975 66.1495 74.9964 57.9445C75.0195 49.452 68.1841 47.9557 65.5462 47.9489C59.0671 47.9332 56.9905 51.992 55.311 56.0801L55.303 56.0764C55.2571 56.196 55.2109 56.3152 55.1646 56.4346C55.1519 56.4674 55.1392 56.5002 55.1265 56.5331C55.0707 56.6698 55.0154 56.806 54.9607 56.9421L54.9639 56.9442C53.8338 59.7665 52.5015 62.2374 49.5133 62.2321C46.729 62.228 44.8762 60.1745 44.881 57.073C44.8859 53.8286 47.0376 52.3057 49.7242 52.3093L50.2286 52.3099C50.2294 52.3099 50.2301 52.31 50.2307 52.3101C50.2314 52.3103 50.2321 52.3104 50.2329 52.3104L51.4139 52.312C51.6934 52.3125 51.9226 52.0836 51.9231 51.805L51.929 48.0023C51.9301 47.7232 51.7009 47.4938 51.4219 47.4933L50.8312 47.4922H50.9615L49.7317 47.4907C47.1427 47.4865 40.0578 48.8602 40.0449 57.0668C40.0315 65.5577 46.8675 67.0477 49.5058 67.0508C55.9828 67.0608 58.0562 63.0031 59.7308 58.9149L59.7378 58.9186C59.7968 58.7652 59.8564 58.6122 59.9159 58.4609C59.9489 58.3786 59.9817 58.297 60.0144 58.2155C60.0371 58.1592 60.0597 58.103 60.0823 58.0466L60.0801 58.0461C61.2134 55.2264 62.5473 52.7603 65.5339 52.7676C68.3182 52.7744 70.1689 54.8305 70.1608 57.933C70.1528 61.1753 67.9989 62.6972 65.3123 62.6904L64.8079 62.6894C64.8068 62.6883 64.8052 62.6883 64.8036 62.6883L63.6232 62.6857C63.3436 62.6852 63.1139 62.9135 63.1134 63.1937L63.1032 66.9953C63.1021 67.2739 63.3318 67.5039 63.6103 67.5044L64.0707 67.5065V67.507Z" fill="#334AC0"/>
</svg>
