<svg width="115" height="115" viewBox="0 0 115 115" fill="none" xmlns="http://www.w3.org/2000/svg">
<path fill-rule="evenodd" clip-rule="evenodd" d="M40.8112 48.9815C44.975 53.1764 50.5528 55.6807 56.4634 56.0089C56.1434 50.0936 53.6503 44.5027 49.4599 40.3027C45.296 36.1079 39.7182 33.6037 33.8076 33.2756C34.1263 39.1912 36.6195 44.7824 40.8112 48.9815Z" fill="#7A69E6"/>
<path fill-rule="evenodd" clip-rule="evenodd" d="M74.721 48.9815C70.5572 53.1764 64.9794 55.6807 59.0688 56.0089C59.3888 50.0936 61.8819 44.5027 66.0724 40.3027C70.2362 36.1079 75.8141 33.6037 81.7246 33.2756C81.406 39.1912 78.9127 44.7824 74.721 48.9815Z" fill="#7A69E6"/>
<path fill-rule="evenodd" clip-rule="evenodd" d="M74.721 65.4865C70.5572 61.2916 64.9794 58.7873 59.0688 58.4592C59.3888 64.3745 61.8819 69.9653 66.0724 74.1653C70.2362 78.3601 75.8141 80.8643 81.7246 81.1924C81.406 75.2768 78.9127 69.6856 74.721 65.4865Z" fill="#7A69E6"/>
<path fill-rule="evenodd" clip-rule="evenodd" d="M40.8112 65.4865C44.975 61.2916 50.6344 58.7848 56.545 58.4566C56.225 64.3719 53.6503 69.9653 49.4599 74.1653C45.296 78.3601 39.7182 80.8643 33.8076 81.1924C34.1263 75.2768 36.6195 69.6856 40.8112 65.4865Z" fill="#7A69E6"/>
</svg>
