<svg width="115" height="115" viewBox="0 0 115 115" fill="none" xmlns="http://www.w3.org/2000/svg">
<path fill-rule="evenodd" clip-rule="evenodd" d="M56.2027 33.5417C43.6877 33.5417 33.5423 44.2654 33.5423 57.5001V81.4584H58.7986C71.3136 81.4584 81.459 70.7348 81.459 57.5001C81.459 44.2683 71.3117 33.5417 58.7986 33.5417H56.2027ZM51.7773 47.5626C53.6789 47.5626 55.4136 48.3184 56.7272 49.5612C58.0408 48.3184 59.7754 47.5626 61.677 47.5626L61.815 47.5639C65.852 47.6417 69.1019 51.1255 69.1019 55.4117C69.1019 61.4379 63.6406 67.049 57.9558 70.9492C57.5468 71.2298 57.249 71.4218 57.249 71.4218C56.9608 71.6108 56.4891 71.6082 56.2017 71.4192C56.2017 71.4192 55.8819 71.2128 55.4601 70.9228C49.7892 67.0237 44.3524 61.4244 44.3524 55.4117C44.3524 51.0768 47.6766 47.5626 51.7773 47.5626Z" fill="#24CF5F"/>
</svg>
