<svg width="115" height="115" viewBox="0 0 115 115" fill="none" xmlns="http://www.w3.org/2000/svg">
<path fill-rule="evenodd" clip-rule="evenodd" d="M37.764 70.1599C38.508 70.1599 39.1114 69.5567 39.1114 68.8136V46.3331C39.1114 45.59 38.5091 44.9868 37.764 44.9868C37.02 44.9868 36.4165 45.59 36.4165 46.3331V68.8136C36.4165 69.5567 37.0188 70.1599 37.7628 70.1599H37.764Z" fill="#111111"/>
<path fill-rule="evenodd" clip-rule="evenodd" d="M36.6817 68.1864C36.5015 68.4952 36.4523 68.8599 36.5444 69.2033C36.6366 69.5467 36.8629 69.8418 37.1753 70.0259L56.7081 81.2403C57.3565 81.6118 58.1843 81.3894 58.5575 80.746C58.7376 80.4373 58.7869 80.0725 58.6947 79.7291C58.6026 79.3857 58.3763 79.0907 58.0639 78.9066L38.531 67.691C38.3768 67.603 38.2059 67.546 38.0285 67.5233C37.8512 67.5006 37.6709 67.5128 37.4985 67.559C37.326 67.6051 37.1649 67.6845 37.0246 67.7923C36.8842 67.9001 36.7677 68.0341 36.6817 68.1864Z" fill="#111111"/>
<path fill-rule="evenodd" clip-rule="evenodd" d="M78.0098 68.2988C77.6319 67.6486 76.8112 67.4169 76.1758 67.7816L56.8119 78.8985C56.1766 79.2632 55.9687 80.0855 56.3454 80.7357C56.7233 81.3859 57.5441 81.6176 58.1794 81.2529L77.5434 70.136C78.1787 69.7713 78.3866 68.949 78.0098 68.2988Z" fill="#111111"/>
<path fill-rule="evenodd" clip-rule="evenodd" d="M77.1839 70.0258C77.9279 70.0258 78.5313 69.418 78.5313 68.668V46.2094C78.5313 45.4594 77.9291 44.8516 77.1851 44.8516C76.4399 44.8516 75.8364 45.4594 75.8364 46.2094V68.668C75.8364 69.418 76.4399 70.0258 77.1839 70.0258Z" fill="#111111"/>
<path fill-rule="evenodd" clip-rule="evenodd" d="M56.2986 34.2242C55.9207 34.8744 56.1392 35.7012 56.7852 36.0728L76.5011 47.3915C77.147 47.7631 77.9773 47.536 78.3552 46.887C78.7331 46.2356 78.5146 45.4076 77.8674 45.0372L58.1527 33.7184C57.9975 33.6309 57.8258 33.5744 57.6477 33.5524C57.4696 33.5304 57.2888 33.5433 57.1159 33.5904C56.9431 33.6374 56.7817 33.7176 56.6413 33.8263C56.5009 33.935 56.3844 34.0699 56.2986 34.223V34.2242Z" fill="#111111"/>
<path fill-rule="evenodd" clip-rule="evenodd" d="M56.3736 58.1954C56.7409 58.8285 57.577 59.0326 58.2407 58.6507L77.868 47.3824C78.5329 47.0017 78.7726 46.1794 78.4053 45.5475C78.0393 44.9145 77.2031 44.7104 76.5395 45.0923L56.911 56.3606C56.2473 56.7413 56.0064 57.5636 56.3736 58.1954ZM58.6871 34.2162C58.6006 34.0634 58.4833 33.9292 58.3424 33.8212C58.2014 33.7133 58.0396 33.634 57.8665 33.5879C57.6934 33.5418 57.5125 33.5299 57.3346 33.5529C57.1567 33.5759 56.9853 33.6334 56.8307 33.7219L37.1325 45.0292C36.8187 45.2138 36.5914 45.5099 36.4988 45.8546C36.4062 46.1994 36.4556 46.5656 36.6365 46.8755C36.723 47.0282 36.8403 47.1625 36.9812 47.2704C37.1222 47.3784 37.284 47.4577 37.4571 47.5038C37.6302 47.5499 37.8111 47.5618 37.989 47.5388C38.167 47.5157 38.3383 47.4583 38.493 47.3698L58.1899 36.0625C58.8395 35.6898 59.0627 34.8629 58.6859 34.2162H58.6871Z" fill="#111111"/>
<path fill-rule="evenodd" clip-rule="evenodd" d="M36.614 45.5824C36.2479 46.2131 36.4865 47.0342 37.149 47.4138L56.6995 58.6374C57.3609 59.0181 58.1958 58.814 58.5619 58.1833C58.928 57.5525 58.6894 56.7314 58.0269 56.3507L38.4764 45.1283C37.815 44.7475 36.9801 44.9517 36.614 45.5824Z" fill="#111111"/>
<path fill-rule="evenodd" clip-rule="evenodd" d="M57.5076 81.4076C58.2516 81.4076 58.8551 80.793 58.8551 80.0349V57.6061C58.8551 56.8492 58.2528 56.2334 57.5088 56.2334C56.7636 56.2334 56.1602 56.8481 56.1602 57.6061V80.0349C56.1602 80.793 56.7624 81.4076 57.5076 81.4076Z" fill="#111111"/>
<path fill-rule="evenodd" clip-rule="evenodd" d="M56.4316 56.8367C56.0643 57.4686 56.3017 58.2885 56.9618 58.6681L76.4852 69.8757C77.1465 70.2541 77.9779 70.05 78.3452 69.4169C78.7125 68.7851 78.4751 67.9651 77.815 67.5855L58.2916 56.378C57.6302 55.9996 56.7977 56.2037 56.4316 56.8367Z" fill="#111111"/>
<path fill-rule="evenodd" clip-rule="evenodd" d="M36.6023 69.5542C36.9684 70.1872 37.808 70.3891 38.4764 70.006L58.2147 58.6735C58.882 58.2905 59.1264 57.4671 58.758 56.8352C58.3919 56.2022 57.5534 56.0003 56.885 56.3834L37.1467 67.7159C36.4783 68.0989 36.235 68.9223 36.6023 69.5542Z" fill="#111111"/>
<path fill-rule="evenodd" clip-rule="evenodd" d="M57.5086 59.0463C58.2526 59.0463 58.856 58.4248 58.856 57.6587V34.9914C58.856 34.2253 58.2538 33.6038 57.5098 33.6038C56.7646 33.6038 56.1611 34.2253 56.1611 34.9914V57.6587C56.1611 58.4248 56.7634 59.0463 57.5086 59.0463Z" fill="#111111"/>
</svg>
