<svg width="115" height="115" viewBox="0 0 115 115" fill="none" xmlns="http://www.w3.org/2000/svg">
<g clip-path="url(#clip0)">
<path d="M40.9039 55.0577L32.2624 35.9705H27.7688L19.229 54.8968L19.168 55.0577H23.9462L25.6339 51.015H34.3364L36.024 55.0577H40.9039ZM32.852 47.4751H27.1385L30.0054 40.6568L32.852 47.4751Z" fill="black"/>
<path d="M50.0552 55.0684L56.2259 40.332H51.9449L47.8649 50.0355L43.9257 40.332H39.3433L45.4962 55.0684H50.0552Z" fill="black"/>
<path d="M69.496 41.7418C68.2697 40.6546 66.5214 40.1111 64.2503 40.1111C63.0846 40.1111 61.9189 40.2722 60.8135 40.5741C59.7079 40.8761 58.7432 41.319 57.9393 41.8827L57.8589 41.9431L59.4668 45.0836L59.5672 45.0031C60.0697 44.6004 60.6926 44.2783 61.4365 44.0367C62.1599 43.7952 62.9237 43.6744 63.6874 43.6744C64.7726 43.6744 65.5765 43.916 66.1195 44.379C66.6216 44.8219 66.9031 45.4862 66.9233 46.3116H63.6874C61.557 46.3116 59.9491 46.7143 58.9241 47.4994C57.879 48.2845 57.3564 49.3917 57.3564 50.7607C57.3564 51.6263 57.5775 52.4115 58.0197 53.0959C58.4618 53.7804 59.105 54.324 59.929 54.7065C60.7532 55.089 61.7378 55.2903 62.8634 55.2903C64.8733 55.2903 66.3204 54.7065 67.1643 53.5187V55.0688H71.3248V46.674C71.3248 44.4998 70.7017 42.8289 69.496 41.7418ZM65.7778 51.7471C65.2348 52.0693 64.6121 52.2303 63.9284 52.2303C63.2253 52.2303 62.6625 52.0693 62.2606 51.7874C61.8587 51.4854 61.6775 51.1029 61.6775 50.5997C61.6775 49.5327 62.4813 49.0092 64.1496 49.0092H66.9031V50.3581C66.6819 50.962 66.3002 51.425 65.7778 51.7471Z" fill="black"/>
<path fill-rule="evenodd" clip-rule="evenodd" d="M19.168 59.3677H23.7504V75.0394H38.2463V79.6281H23.7504V79.6335H19.168V79.6281L19.168 75.0394L19.168 59.3677Z" fill="black"/>
<path d="M52.9544 66.302C51.7283 65.2149 49.9798 64.6714 47.7087 64.6714C46.543 64.6714 45.3773 64.8324 44.2719 65.1344C43.1664 65.4363 42.2017 65.8793 41.3978 66.443L41.3174 66.5033L42.9253 69.6438L43.0258 69.5633C43.5282 69.1607 44.1513 68.8386 44.8949 68.597C45.6185 68.3554 46.3822 68.2347 47.1459 68.2347C48.2312 68.2347 49.0351 68.4762 49.5778 68.9392C50.0803 69.3822 50.3617 70.0465 50.3818 70.8719H47.1459C45.0155 70.8719 43.4076 71.2745 42.3826 72.0596C41.3375 72.8448 40.8149 73.952 40.8149 75.3209C40.8149 76.1866 41.036 76.9717 41.4782 77.6561C41.9204 78.3408 42.5635 78.8842 43.3875 79.2668C44.2116 79.6494 45.1964 79.8506 46.3219 79.8506C48.3317 79.8506 49.7788 79.2668 50.623 78.0788V79.6292H54.7833V71.2343C54.7833 69.06 54.1804 67.3891 52.9544 66.302ZM49.2361 76.3074C48.6935 76.6295 48.0705 76.7905 47.3871 76.7905C46.6837 76.7905 46.1209 76.6295 45.7189 76.3477C45.317 76.0457 45.1361 75.6632 45.1361 75.1599C45.1361 74.0929 45.94 73.5695 47.6082 73.5695H50.3818V74.9183C50.1406 75.5223 49.7587 75.9853 49.2361 76.3074Z" fill="black"/>
<path d="M70.2895 65.6173C69.1638 64.9932 67.9181 64.6711 66.551 64.6711C64.7825 64.6711 63.3556 65.2146 62.2902 66.2615V59.3765H57.8687V79.6088H62.1095V78.1188C63.1547 79.2465 64.662 79.8303 66.551 79.8303C67.9181 79.8303 69.1638 79.508 70.2895 78.8841C71.4151 78.2597 72.2994 77.354 72.9225 76.2266C73.5653 75.0992 73.8872 73.7504 73.8872 72.2405C73.8872 70.7307 73.5653 69.402 72.9225 68.2545C72.2792 67.1473 71.3949 66.2413 70.2895 65.6173ZM65.8277 68.3551C66.8729 68.3551 67.7369 68.7175 68.4 69.4221C69.0635 70.1267 69.4052 71.093 69.4052 72.2808C69.4052 73.4685 69.0635 74.4349 68.4 75.1395C67.7369 75.8441 66.8729 76.2065 65.8277 76.2065C64.7825 76.2065 63.9184 75.8441 63.2549 75.1395C62.5918 74.4349 62.2502 73.4685 62.2502 72.2808C62.2502 71.093 62.5918 70.1267 63.2549 69.4221C63.9184 68.7175 64.7825 68.3551 65.8277 68.3551Z" fill="black"/>
<path d="M87.8971 72.5629C87.3342 71.959 86.6509 71.5362 85.8871 71.3148C85.1238 71.0933 84.159 70.8719 82.9731 70.6706C81.9279 70.5095 81.1439 70.3485 80.6818 70.1673C80.2399 70.0062 80.0187 69.7244 80.0187 69.3218C80.0187 68.9594 80.2197 68.6776 80.6418 68.4561C81.0639 68.2145 81.727 68.0937 82.6113 68.0937C84.0984 68.0937 85.4852 68.4561 86.7314 69.1607L86.8321 69.2211L88.3192 66.0202L88.2387 65.9598C87.5756 65.5572 86.7116 65.235 85.6862 65.0136C84.6612 64.7922 83.6362 64.6714 82.6113 64.6714C81.2244 64.6714 79.9985 64.8727 78.9735 65.2753C77.9485 65.678 77.1447 66.2416 76.6017 66.9664C76.0591 67.6911 75.7777 68.5366 75.7777 69.4828C75.7777 70.6102 76.0793 71.4758 76.6624 72.0999C77.245 72.7039 77.9283 73.1266 78.7123 73.3682C79.4761 73.6098 80.4809 73.8111 81.6668 73.9923C82.6513 74.1131 83.3953 74.2741 83.8776 74.4352C84.3196 74.5962 84.5407 74.8579 84.5407 75.2203C84.5407 76.0256 83.6767 76.4282 81.9882 76.4282C81.1241 76.4282 80.2197 76.3074 79.3354 76.0457C78.4309 75.784 77.6469 75.4619 77.0238 75.0391L76.9236 74.9787L75.436 78.1999L75.5165 78.2602C76.1998 78.723 77.1447 79.1056 78.2902 79.3874C79.4357 79.6895 80.6418 79.8304 81.8475 79.8304C83.2744 79.8304 84.5205 79.6292 85.5657 79.2465C86.6109 78.8643 87.4147 78.3003 87.9775 77.5755C88.5201 76.851 88.8015 76.0256 88.8015 75.0995C88.7615 74.0325 88.4599 73.1669 87.8971 72.5629Z" fill="black"/>
<path d="M95.7982 75.2183H91.3765V79.6473H95.7982V75.2183Z" fill="#E84142"/>
</g>
<defs>
<clipPath id="clip0">
<rect width="76.6667" height="43.9236" fill="white" transform="translate(19.1665 35.9375)"/>
</clipPath>
</defs>
</svg>
