<svg width="115" height="115" viewBox="0 0 115 115" fill="none" xmlns="http://www.w3.org/2000/svg">
<path fill-rule="evenodd" clip-rule="evenodd" d="M67.9142 62.4662C54.5819 74.846 45.1602 81.6366 45.1602 81.6366C45.1602 81.6366 45.1602 74.6476 48.2553 67.0288C56.3253 64.7338 62.6231 61.9905 67.9142 58.8344C71.3945 56.7571 76.4237 52.5691 76.8527 53.012C77.1821 53.3498 73.3318 57.4359 67.9142 62.4662Z" fill="#FF9673"/>
<path fill-rule="evenodd" clip-rule="evenodd" d="M70.4384 46.9794C61.293 47.8163 63.5073 48.0951 62.0998 47.8163C60.6924 47.5375 53.9093 33.5918 59.5882 33.5918C65.2671 33.5918 80.3906 46.1431 80.1214 46.4219C79.8523 46.7006 79.5824 46.1431 70.4384 46.9794Z" fill="#2A295C"/>
<path fill-rule="evenodd" clip-rule="evenodd" d="M77.1604 50.9133C65.7928 60.1645 56.5021 61.9958 49.7603 61.2614C48.7916 61.1536 47.8304 60.9837 46.8825 60.7528C39.2716 58.8886 35.4043 55.1945 35.4043 53.5916C35.4043 51.9888 80.1265 47.4778 80.1265 47.9562C80.1265 48.4347 78.0262 50.209 77.1604 50.9133Z" fill="#8282DC"/>
</svg>
