<svg width="115" height="115" viewBox="0 0 115 115" fill="none" xmlns="http://www.w3.org/2000/svg">
<path fill-rule="evenodd" clip-rule="evenodd" d="M74.3822 39.0056L72.5231 38.3394L59.7085 33.7237C59.1953 33.5406 58.99 33.7867 59.2481 34.2759C59.2481 34.2759 59.3742 34.513 59.7026 35.0892C61.7406 38.4984 67.2242 45.9982 67.2242 45.9982C67.5497 46.4393 67.4031 46.6374 66.8987 46.4333L63.0074 45.1549C62.4024 44.9666 61.8642 44.6015 61.4591 44.1045L59.817 41.8087C59.6269 41.5671 59.3914 41.367 59.1244 41.2201C58.8575 41.0732 58.5645 40.9825 58.2628 40.9533H57.0371C56.7348 40.9833 56.4414 41.0746 56.1741 41.222C55.9067 41.3694 55.6707 41.5698 55.48 41.8116L53.829 44.1195C53.4246 44.6172 52.8878 44.9841 52.2836 45.1759L48.4862 46.4393C47.9847 46.6434 47.8381 46.4393 48.1607 46.0042C48.1607 46.0042 53.6472 38.5014 55.6823 35.0952C56.0254 34.495 56.1749 34.2189 56.1749 34.2189C56.433 33.7327 56.2307 33.4896 55.7204 33.6787L43.2255 38.3274C42.7182 38.5164 41.8824 38.8226 41.3722 39.0056L40.0614 39.4768C39.7976 39.5872 39.5699 39.7723 39.4053 40.0105C39.2406 40.2486 39.1458 40.5299 39.1318 40.8213V58.4227C39.1606 59.0754 39.347 59.7105 39.6743 60.2714L41.2314 62.6933C41.5576 63.2558 41.7438 63.8916 41.7739 64.5449V69.1426C41.8066 69.7797 42.0544 70.3853 42.4748 70.8563L52.6883 81.138C53.0725 81.5282 53.3452 81.3931 53.2953 80.8379C53.2953 80.8379 52.6003 73.4912 51.9435 69.0826C51.2866 64.674 49.2105 59.5031 49.2105 59.5031C49.0819 59.2297 48.8927 58.9907 48.6581 58.8053C48.4234 58.6198 48.1497 58.4929 47.8587 58.4347L46.1813 58.1946C45.9072 58.1432 45.6555 58.0058 45.4611 57.8015C45.2667 57.5972 45.1392 57.336 45.0963 57.0542L44.7884 54.2662C44.7643 54.1507 44.7705 54.0308 44.8063 53.9186C44.8422 53.8063 44.9064 53.7058 44.9924 53.6272C45.0785 53.5485 45.1834 53.4946 45.2964 53.4709C45.4094 53.4471 45.5265 53.4544 45.6359 53.4919L52.6942 55.1575C52.9532 55.223 53.1796 55.3837 53.3304 55.6089C53.4813 55.8341 53.546 56.1081 53.5123 56.379L52.7352 61.913C52.7099 62.2158 52.7533 62.5204 52.8622 62.8031C52.971 63.0859 53.1424 63.3389 53.3628 63.5426L57.1074 66.6157C57.3278 66.7848 57.5966 66.8744 57.8719 66.8706C58.1472 66.8668 58.4136 66.7698 58.6294 66.5947L62.1482 63.5606C62.3649 63.351 62.5324 63.0938 62.638 62.8085C62.7437 62.5231 62.7847 62.2169 62.7582 61.913L61.9811 56.379C61.9522 56.111 62.0196 55.8414 62.1707 55.6205C62.3218 55.3996 62.5462 55.2425 62.8022 55.1785L70.1332 53.5009C70.2432 53.4642 70.3607 53.4577 70.4739 53.4822C70.5871 53.5066 70.6921 53.5611 70.7782 53.6401C70.8644 53.7192 70.9287 53.82 70.9647 53.9325C71.0008 54.0451 71.0073 54.1653 70.9836 54.2812L70.6757 57.0692C70.6336 57.3494 70.5055 57.6086 70.3099 57.8093C70.1143 58.01 69.8614 58.1418 69.5877 58.1856L67.1714 58.4857C66.8877 58.5353 66.6224 58.6629 66.4039 58.8547C66.1855 59.0466 66.022 59.2956 65.931 59.5751C65.931 59.5751 64.7112 64.1188 63.7464 69.0646C62.7816 74.0104 62.204 80.8649 62.204 80.8649C62.157 81.4171 62.4327 81.5522 62.8198 81.165L73.0333 70.8833C73.4527 70.4117 73.7002 69.8064 73.7342 69.1696V64.5449C73.7676 63.8942 73.9701 63.2643 74.3206 62.7203L76.0801 60.2474C76.4302 59.7032 76.6327 59.0734 76.6666 58.4227V40.8213C76.6526 40.5299 76.5578 40.2486 76.3931 40.0105C76.2285 39.7723 76.0008 39.5872 75.737 39.4768L74.3822 39.0056Z" fill="#4A25AA"/>
</svg>
