<svg width="115" height="115" viewBox="0 0 115 115" fill="none" xmlns="http://www.w3.org/2000/svg">
<path fill-rule="evenodd" clip-rule="evenodd" d="M67.9702 46.1118L64.9236 49.1583C64.482 49.5725 63.7943 49.5725 63.3527 49.1583L61.9974 47.8031C61.3016 47.1389 60.2067 47.1389 59.5109 47.8031L54.0925 53.227C53.407 53.9161 53.407 55.03 54.0925 55.7192L55.4478 57.0717C55.8765 57.5074 55.8765 58.2066 55.4478 58.6426L52.4012 61.6807C51.9579 62.091 51.2736 62.091 50.8303 61.6807C50.8079 61.6583 49.6542 60.5971 48.9766 59.8858C47.3413 58.1861 47.0893 56.1056 48.2037 53.5294C49.0438 51.6029 50.6679 49.4412 53.1993 46.9098C57.0523 43.0568 60.0513 41.2618 62.6359 41.2618C63.9701 41.2666 65.247 41.804 66.1837 42.7543C67.0237 43.5188 67.9534 44.524 67.9646 44.5325C68.3989 44.9693 68.3989 45.6749 67.9646 46.1118H67.9702ZM66.8025 61.4707C65.9625 63.3945 64.3356 65.559 61.8042 68.0904C57.954 71.9406 54.955 73.7355 52.3704 73.7355C51.0364 73.7316 49.7592 73.1954 48.8226 72.2458C47.9825 71.4814 47.0529 70.4761 47.0417 70.4677C46.6073 70.0306 46.6073 69.3252 47.0417 68.8881L50.0883 65.8415C50.298 65.6382 50.58 65.5262 50.8723 65.531C51.1641 65.5285 51.4455 65.6399 51.6564 65.8415L53.0116 67.1943C53.708 67.8619 54.8074 67.8619 55.5038 67.1943L60.9165 61.7813C61.6037 61.0927 61.6037 59.978 60.9165 59.2894L59.5557 57.9369C59.1269 57.5009 59.1269 56.8017 59.5557 56.366L62.6023 53.3166C63.0455 52.9064 63.7299 52.9064 64.1732 53.3166C64.1956 53.339 65.3492 54.4031 66.0297 55.1143C67.665 56.814 67.917 58.8918 66.8025 61.4707ZM57.5031 33.5417C44.2714 33.5401 33.5437 44.2653 33.542 57.4973C33.5403 70.7292 44.2658 81.4567 57.4975 81.4584C70.7295 81.4601 81.4573 70.7346 81.4587 57.5029V57.5001C81.4587 44.2692 70.734 33.5431 57.5031 33.5417Z" fill="#4CD964"/>
</svg>
