<svg width="115" height="115" viewBox="0 0 115 115" fill="none" xmlns="http://www.w3.org/2000/svg">
<path d="M12.8106 53.6277C16.3853 51.2752 20.8738 48.9413 25.2264 47.1717C33.683 43.7337 42.3928 41.7891 52.2484 41.1386C54.1507 41.0131 60.9591 41.0122 62.8821 41.1372C75.8456 41.9799 87.6871 45.3201 98.0357 51.0532C99.9405 52.1084 103.051 54.0224 102.979 54.0953C102.963 54.1115 102.464 53.9712 101.869 53.7835C93.2195 51.0527 84.4265 49.3012 74.8919 48.4099C68.9878 47.8579 66.7472 47.7556 59.4742 47.7062C50.332 47.6441 46.3483 47.8006 39.3629 48.4963C30.3048 49.3984 21.3047 51.207 13.6322 53.6671C12.8343 53.923 12.1516 54.1316 12.1152 54.1306C12.0788 54.1296 12.3917 53.9033 12.8106 53.6277V53.6277Z" fill="#00A9FE"/>
<path d="M34.5695 73.719C34.4179 73.614 34.2161 73.4213 34.1211 73.2908C33.9501 73.0559 33.9484 72.9904 33.9466 66.7974C33.9447 60.0474 33.9362 60.1872 34.3876 59.582C34.7291 59.1242 35.227 58.8801 35.9298 58.826C37.0164 58.7424 36.7626 58.5671 41.6356 62.7648C46.8941 67.2945 46.9793 67.3561 47.6131 67.0866C47.7718 67.0191 47.9621 66.8699 48.036 66.7551C48.1242 66.6182 48.3277 65.4829 48.6269 63.4588C48.878 61.7607 49.1388 60.1769 49.2064 59.9391C49.428 59.1604 49.8518 58.8011 50.5486 58.8011C51.0446 58.8011 51.4518 59.0494 51.6702 59.4853C51.8291 59.8021 51.8344 60.0102 51.8328 65.8216C51.8318 69.1265 51.7968 72.0717 51.7549 72.3667C51.7036 72.7281 51.6073 72.9984 51.4598 73.1951C51.032 73.766 50.159 74.0269 49.3431 73.8277C48.8433 73.7057 48.4765 73.3957 43.9113 69.2375C40.5505 66.1762 39.7575 65.4893 39.3662 65.3003C38.6405 64.9498 37.8658 65.3305 37.6671 66.1351C37.6199 66.3264 37.4093 67.5333 37.1992 68.8171C36.4585 73.341 36.4361 73.4211 35.8163 73.7429C35.385 73.9668 34.9143 73.9578 34.5695 73.719Z" fill="#00A9FE"/>
<path d="M62.7175 73.9902C61.8414 73.9035 60.2419 73.5349 59.3463 73.2133C57.1176 72.4131 55.4283 71.0418 54.628 69.3831C54.0895 68.267 53.9667 67.7139 53.9649 66.3977C53.9633 65.2245 54.0526 64.698 54.396 63.8556C55.5168 61.1067 58.5618 59.1668 62.6758 58.5809C64.0923 58.3791 67.822 58.4504 69.2228 58.706C71.1595 59.0593 71.9843 59.3674 72.2699 59.844C72.5809 60.3632 72.3858 61.0227 71.8355 61.3124C71.5464 61.4645 70.9708 61.4557 68.8057 61.2664C66.7226 61.0841 64.1585 61.2068 62.8183 61.5528C60.145 62.243 58.5123 63.6614 58.1715 65.5898C57.7137 68.1806 60.1899 70.5576 63.9259 71.1136C64.778 71.2404 66.5572 71.1721 67.4209 70.9794C68.8985 70.6498 70.0902 70.0556 70.8899 69.2498C71.4001 68.7357 71.5659 68.3666 71.4391 68.0271C71.2502 67.5215 70.8328 67.4462 67.096 67.2432C64.4849 67.1013 64.0365 67.0405 63.6752 66.7787C63.2043 66.4373 63.1218 65.546 63.521 65.1111C63.9497 64.6439 63.7839 64.6576 69.031 64.6581C72.3352 64.6584 74 64.6887 74.2265 64.7527C74.6617 64.8757 75.2219 65.4458 75.3427 65.8887C75.4578 66.3108 75.4634 67.4549 75.3533 68.0625C75.1686 69.0812 74.2526 70.5651 73.227 71.5072C71.8098 72.809 69.402 73.7848 67.096 73.9919C66.0073 74.0896 63.7127 74.0888 62.7175 73.9903L62.7175 73.9902Z" fill="#00A9FE"/>
<path d="M78.6397 73.7481C78.2656 73.5752 78.0037 73.2127 77.8672 72.6789C77.6419 71.7982 77.1634 65.8645 77.2058 64.4766L77.2298 63.6881L77.5217 63.6241C77.8615 63.5497 81.1887 63.0449 81.3397 63.0449C81.4903 63.0449 81.4698 64.2973 81.2742 67.0343C81.007 70.7753 80.798 72.6813 80.6153 73.0439C80.2174 73.8336 79.431 74.1138 78.6397 73.7481Z" fill="#00A9FE"/>
<path d="M77.0535 61.8068C76.9766 61.4952 77.0966 60.0028 77.2233 59.6953C77.5532 58.894 78.2845 58.4631 79.3146 58.4631C80.4433 58.4631 81.2039 58.981 81.4854 59.9411C81.6637 60.5494 81.6491 61.2342 81.4555 61.3397C81.2682 61.4417 77.8205 62.0265 77.4064 62.0265C77.1546 62.0265 77.0991 61.992 77.0535 61.8068Z" fill="#00A9FE"/>
<path d="M21.3322 73.9972C20.3753 73.9172 18.8365 73.59 17.8359 73.2537C14.5206 72.1397 12.4895 70.0894 12.0683 67.4317C11.9515 66.6948 12.0179 65.1118 12.1936 64.4431C12.9844 61.434 15.5063 59.3349 19.3105 58.5193C20.158 58.3376 21.86 58.2602 23.6005 58.3242C24.8707 58.3711 25.7793 58.5426 26.8295 58.9345C29.8659 60.0678 31.7437 62.6894 31.3834 65.2926C31.2711 66.1044 30.9959 66.5791 30.4712 66.8665C30.2066 67.0114 30.1516 67.0136 26.205 67.0329C24.0061 67.0438 21.8434 67.0258 21.3991 66.9936C20.6867 66.9417 20.561 66.9133 20.3349 66.7538C19.9825 66.5053 19.8468 66.2454 19.8468 65.8193C19.8468 65.1373 20.2098 64.7235 20.9221 64.5937C21.1233 64.5572 22.3561 64.4794 23.6616 64.4211C26.8286 64.2797 27.1809 64.223 27.4449 63.8129C27.9535 63.0228 26.8014 61.8851 24.9747 61.3737C24.4874 61.2372 24.2824 61.2235 22.7291 61.2231C20.8448 61.2227 20.4819 61.2723 19.5215 61.6629C18.0912 62.2443 17.1868 63.0269 16.6342 64.161C16.3556 64.733 16.2293 65.3238 16.2281 66.061C16.2265 67.1631 16.5598 67.9924 17.3233 68.7842C18.6995 70.2118 21.1457 71.0145 24.4384 71.119C25.878 71.1648 26.9743 71.0873 28.5944 70.8256C29.8956 70.6154 30.4198 70.6268 30.6765 70.8709C30.964 71.1442 31.0591 71.3952 31.0265 71.795C30.972 72.4646 30.6008 72.7724 29.3652 73.1727C27.0696 73.9163 24.0592 74.2253 21.3322 73.9972V73.9972Z" fill="#00A9FE"/>
<path d="M92.1994 73.9907C91.2425 73.9106 89.7037 73.5834 88.703 73.2472C85.3878 72.1331 83.3567 70.0829 82.9355 67.4251C82.8187 66.6883 82.885 65.1053 83.0608 64.4365C83.8516 61.4274 86.3735 59.3283 90.1777 58.5127C91.0252 58.331 92.7272 58.2536 94.4677 58.3176C95.7379 58.3645 96.6465 58.536 97.6967 58.9279C100.733 60.0612 102.611 62.6828 102.251 65.2861C102.138 66.0978 101.863 66.5725 101.338 66.8599C101.074 67.0049 101.019 67.007 97.0722 67.0263C94.8732 67.0372 92.7106 67.0192 92.2663 66.987C91.5539 66.9352 91.4282 66.9067 91.2021 66.7472C90.8497 66.4987 90.714 66.2389 90.714 65.8127C90.714 65.1307 91.077 64.7169 91.7893 64.5872C91.9905 64.5506 93.2233 64.4728 94.5288 64.4145C97.6957 64.2731 98.0481 64.2164 98.3121 63.8063C98.8207 63.0162 97.6686 61.8785 95.8419 61.3671C95.3546 61.2306 95.1496 61.2169 93.5963 61.2166C91.712 61.2161 91.3491 61.2657 90.3886 61.6563C88.9584 62.2377 88.054 63.0203 87.5014 64.1544C87.2228 64.7264 87.0965 65.3172 87.0953 66.0545C87.0937 67.1565 87.427 67.9858 88.1904 68.7777C89.5667 70.2052 92.0128 71.0079 95.3056 71.1124C96.7452 71.1582 97.8415 71.0807 99.4616 70.819C100.763 70.6088 101.287 70.6202 101.544 70.8643C101.831 71.1377 101.926 71.3887 101.894 71.7884C101.839 72.458 101.468 72.7659 100.232 73.1661C97.9368 73.9097 94.9264 74.2187 92.1994 73.9906V73.9907Z" fill="#00A9FE"/>
</svg>
