<svg width="115" height="115" viewBox="0 0 115 115" fill="none" xmlns="http://www.w3.org/2000/svg">
<path d="M69.1914 75.5126C69.1932 74.3389 69.5521 73.192 70.2225 72.2169C70.893 71.2418 71.8451 70.4822 72.9583 70.0343C74.0716 69.5863 75.2962 69.4701 76.4773 69.7001C77.6583 69.9302 78.7429 70.4963 79.5939 71.327C80.445 72.1576 81.0242 73.2154 81.2585 74.3668C81.4928 75.5181 81.3717 76.7113 80.9103 77.7956C80.449 78.8799 79.6682 79.8065 78.6666 80.4584C77.665 81.1104 76.4876 81.4583 75.2832 81.4583C74.4826 81.4577 73.6899 81.3035 72.9505 81.0044C72.2111 80.7053 71.5394 80.2671 70.9737 79.715C70.4081 79.1629 69.9595 78.5076 69.6537 77.7866C69.3479 77.0655 69.1908 76.2929 69.1914 75.5126Z" fill="black"/>
<path d="M63.0312 81.2543H66.0779V48.5522H63.0312V81.2543Z" fill="black"/>
<path d="M56.8672 81.2543H59.9138V48.5522H56.8672V81.2543Z" fill="black"/>
<path d="M50.707 81.2543H53.7537V48.5522H50.707V81.2543Z" fill="black"/>
<path d="M33.7646 48.5239H81.7409V45.5503H33.7646V48.5239Z" fill="black"/>
<path d="M33.7646 42.518H81.7409V39.5459H33.7646V42.518Z" fill="black"/>
<path d="M33.7646 36.5138H81.7409V33.5417H33.7646V36.5138Z" fill="black"/>
<path d="M69.1914 75.5126C69.1932 74.3389 69.5521 73.192 70.2225 72.2169C70.893 71.2418 71.8451 70.4822 72.9583 70.0343C74.0716 69.5863 75.2962 69.4701 76.4773 69.7001C77.6583 69.9302 78.7429 70.4963 79.5939 71.327C80.445 72.1576 81.0242 73.2154 81.2585 74.3668C81.4928 75.5181 81.3717 76.7113 80.9103 77.7956C80.449 78.8799 79.6682 79.8065 78.6666 80.4584C77.665 81.1104 76.4876 81.4583 75.2832 81.4583C74.4826 81.4577 73.6899 81.3035 72.9505 81.0044C72.2111 80.7053 71.5394 80.2671 70.9737 79.715C70.4081 79.1629 69.9595 78.5076 69.6537 77.7866C69.3479 77.0655 69.1908 76.2929 69.1914 75.5126Z" fill="black"/>
<path d="M63.0312 81.2543H66.0779V48.5522H63.0312V81.2543Z" fill="black"/>
<path d="M56.8672 81.2543H59.9138V48.5522H56.8672V81.2543Z" fill="black"/>
<path d="M50.707 81.2543H53.7537V48.5522H50.707V81.2543Z" fill="black"/>
<path d="M33.7646 48.5239H81.7409V45.5503H33.7646V48.5239Z" fill="black"/>
<path d="M33.7646 42.518H81.7409V39.5459H33.7646V42.518Z" fill="black"/>
<path d="M33.7646 36.5138H81.7409V33.5417H33.7646V36.5138Z" fill="black"/>
</svg>
