<svg width="115" height="115" viewBox="0 0 115 115" fill="none" xmlns="http://www.w3.org/2000/svg">
<path fill-rule="evenodd" clip-rule="evenodd" d="M26.9036 45.5982C26.9036 39.3172 19.4413 39.3172 19.4413 39.3172H11.979V42.9195L15.534 48.3076H11.979V60.8696H15.7262V51.8792H19.4413C19.4413 51.8792 26.9036 51.8792 26.9036 45.5982ZM23.1739 45.6342C23.1739 47.6672 20.914 48.1157 19.9272 48.2353L16.4578 43.033H19.4498C19.4498 43.033 23.1739 43.033 23.1739 45.6342ZM43.7241 58.3615L44.6759 60.8697H48.5445L39.9475 38.5742L31.3812 60.8697H35.2499L36.171 58.3615H43.7241ZM37.3507 54.924L39.9625 47.4922L42.5743 54.924H37.3507ZM58.2455 60.8696H54.5143V39.3172H58.2455V60.8696ZM53.7514 33.3716C54.9818 33.3716 56.0072 34.3928 56.0072 35.6182C56.0072 36.8095 54.9818 37.8307 53.7514 37.8307C52.5551 37.8307 51.5298 36.8095 51.5298 35.6182C51.5298 34.3928 52.5551 33.3716 53.7514 33.3716ZM59.7208 33.3716C60.9513 33.3716 61.9766 34.3928 61.9766 35.6182C61.9766 36.8095 60.9513 37.8307 59.7208 37.8307C58.5246 37.8307 57.4992 36.8095 57.4992 35.6182C57.4992 34.3928 58.5246 33.3716 59.7208 33.3716ZM73.5289 52.1418L78.2572 39.3172H82.1259L73.5289 61.6127L64.9626 39.3172H68.8312L73.5289 52.1418ZM98.1999 58.3615L99.1517 60.8697H103.02L94.4233 38.5742L85.857 60.8697H89.7257L90.6468 58.3615H98.1999ZM91.0802 54.924L93.692 47.4922L96.3038 54.924H91.0802ZM103.02 78.7138C103.02 80.1549 101.851 81.3231 100.41 81.3231C98.9679 81.3231 97.7991 80.1549 97.7991 78.7138C97.7991 77.2727 98.9679 76.1045 100.41 76.1045C101.851 76.1045 103.02 77.2727 103.02 78.7138ZM101.859 78.7141C101.859 79.5141 101.21 80.1627 100.409 80.1627C99.6086 80.1627 98.9594 79.5141 98.9594 78.7141C98.9594 77.9141 99.6086 77.2655 100.409 77.2655C101.21 77.2655 101.859 77.9141 101.859 78.7141ZM84.2724 81.3068H83.4153C83.2496 81.3068 83.1153 81.1725 83.1153 81.0068V76.1045H83.9724C84.138 76.1045 84.2724 76.2388 84.2724 76.4045V81.3068ZM66.6934 81.3068H65.418C65.2523 81.3068 65.118 81.1725 65.118 81.0068V76.1045H66.6934C67.602 76.1045 68.3115 76.339 68.8219 76.8079C69.3324 77.2769 69.5876 77.9095 69.5876 78.7057C69.5876 79.5019 69.3324 80.1345 68.8219 80.6034C68.3115 81.0724 67.602 81.3068 66.6934 81.3068ZM68.0208 79.6751C67.7685 79.9058 67.3993 80.0212 66.9131 80.0212H66.2762V77.3905H66.9131C67.3993 77.3905 67.7693 77.5059 68.0231 77.7367C68.277 77.9674 68.4039 78.2905 68.4039 78.7059C68.4039 79.1213 68.2762 79.4443 68.0208 79.6751ZM49.5681 81.3068C48.951 81.3068 48.4595 81.1179 48.0935 80.74C47.7275 80.362 47.5446 79.8143 47.5446 79.0967V76.1045H48.4016C48.5673 76.1045 48.7016 76.2388 48.7016 76.4045V79.147C48.7016 79.6636 48.8988 79.8736 48.8988 79.8736C48.8988 79.8736 49.241 80.1498 49.5681 80.1498C49.8952 80.1498 50.2214 79.8736 50.2214 79.8736C50.2214 79.8736 50.4345 79.6134 50.4345 79.0967V76.4041C50.4345 76.2384 50.5689 76.1045 50.7345 76.1045H51.5916V79.0967C51.5916 79.8143 51.4074 80.362 51.0391 80.74C50.7926 80.9929 50.4914 81.1612 50.1357 81.2448C49.9598 81.2862 49.7706 81.3068 49.5681 81.3068ZM33.7188 77.3544H32.183V81.3071H31.0339V77.3544H29.5373C29.3716 77.3544 29.2373 77.2201 29.2373 77.0544V76.1048H31.0339H34.0188V77.0544C34.0188 77.2201 33.8845 77.3544 33.7188 77.3544ZM15.2164 77.3204C15.2566 77.2924 15.2949 77.2505 15.3314 77.1946L15.6381 76.6461C15.5432 76.5622 15.4355 76.4871 15.315 76.4207C15.1945 76.3543 15.0649 76.2973 14.9262 76.2495C14.7875 76.2018 14.6408 76.1657 14.4863 76.1412C14.3317 76.1168 14.1729 76.1045 14.0098 76.1045C13.7178 76.1045 13.4586 76.147 13.2322 76.2321C13.0059 76.3171 12.8148 76.4306 12.659 76.5727C12.5033 76.7148 12.3852 76.8767 12.3049 77.0583C12.2246 77.24 12.1844 77.4264 12.1844 77.6174C12.1844 77.8549 12.2185 78.0547 12.2866 78.2165C12.3548 78.3784 12.4442 78.5135 12.555 78.6218C12.6657 78.7301 12.7917 78.8175 12.9328 78.8839C13.074 78.9502 13.2188 79.0061 13.3673 79.0516C13.5158 79.097 13.6606 79.1383 13.8017 79.1756C13.9429 79.2129 14.0689 79.256 14.1796 79.3049C14.2903 79.3538 14.3798 79.4155 14.4479 79.49C14.5161 79.5646 14.5502 79.6612 14.5502 79.78C14.5502 79.985 14.4881 80.1347 14.364 80.229C14.2398 80.3233 14.0658 80.3705 13.8419 80.3705C13.6764 80.3705 13.5328 80.3484 13.4111 80.3041C13.2894 80.2598 13.1817 80.2109 13.088 80.1574C12.9943 80.1038 12.9103 80.0549 12.8361 80.0106C12.7619 79.9664 12.6882 79.9442 12.6152 79.9442C12.5592 79.9442 12.5069 79.9571 12.4582 79.9827C12.4096 80.0083 12.3718 80.0421 12.3451 80.084L11.98 80.636C12.0846 80.7362 12.2075 80.827 12.3487 80.9085C12.4899 80.9901 12.6408 81.0605 12.8014 81.1199C12.962 81.1793 13.1282 81.2253 13.2997 81.2579C13.4713 81.2905 13.6399 81.3068 13.8054 81.3068C14.1072 81.3068 14.3767 81.2632 14.614 81.1758C14.8514 81.0885 15.0509 80.9685 15.2128 80.8159C15.3746 80.6634 15.4982 80.4846 15.5833 80.2796C15.6685 80.0747 15.7111 79.8546 15.7111 79.6193C15.7111 79.4074 15.6771 79.2263 15.6089 79.076C15.5408 78.9258 15.4513 78.7983 15.3406 78.6935C15.2298 78.5886 15.1033 78.5025 14.9609 78.4349C14.8185 78.3674 14.6731 78.3086 14.5246 78.2585C14.3761 78.2084 14.2307 78.163 14.0883 78.1222C13.9459 78.0815 13.8194 78.0366 13.7086 77.9877C13.5979 77.9388 13.5085 77.8806 13.4403 77.813C13.3722 77.7455 13.3381 77.6604 13.3381 77.558C13.3381 77.3972 13.3947 77.2697 13.5078 77.1754C13.621 77.0811 13.7932 77.0339 14.0244 77.0339C14.1583 77.0339 14.2776 77.0508 14.3822 77.0845C14.4869 77.1183 14.58 77.1562 14.6615 77.1981C14.743 77.24 14.8161 77.2779 14.8806 77.3116C14.9451 77.3454 15.0053 77.3623 15.0613 77.3623C15.1246 77.3623 15.1763 77.3483 15.2164 77.3204ZM103.02 69.0443H11.98V69.7875H103.02V69.0443Z" fill="black"/>
</svg>
