<svg width="115" height="115" viewBox="0 0 115 115" fill="none" xmlns="http://www.w3.org/2000/svg">
<g clip-path="url(#clip0)">
<path d="M107.294 85.1621H110.262V64.6894H107.294V85.1621Z" fill="#444492"/>
<path fill-rule="evenodd" clip-rule="evenodd" d="M74.7198 67.3781L73.2705 67.5159L71.7522 67.9984C65.174 70.9464 66.1828 80.9404 73.2705 82.4741L74.7198 82.612L76.2381 82.4741C83.6363 81.0277 84.093 70.3777 77.6874 67.9984L76.2381 67.5159L74.7198 67.3781ZM74.7198 64.5519H75.962L76.9972 64.6897C88.5593 67.6641 87.6184 83.8424 75.755 85.3003H73.6846C61.8303 83.5575 60.9113 67.6814 72.6494 64.6897L73.6846 64.5519H74.7198Z" fill="#444492"/>
<path fill-rule="evenodd" clip-rule="evenodd" d="M11.7096 67.1022H10.9505L10.3984 67.2401L9.77726 67.5158L9.15613 67.9983L8.88008 68.4119L8.60402 69.0323L8.466 69.5837V70.342L8.60402 70.7556L8.74204 71.376L9.15613 71.8585L9.63922 72.1342L10.9505 72.6857L15.0913 74.2022L15.9885 74.6158L16.6096 75.0983L17.3687 75.9944L17.9209 76.8905C20.778 84.9981 8.99624 88.7812 5.29136 81.7846L4.87728 80.5439L4.73926 79.2342H7.56882L7.70685 80.1303L7.98289 80.8886L8.466 81.44L8.88008 82.0604L9.5012 82.3361L10.0533 82.6119L10.8125 82.8186H12.3307L12.8829 82.6119L13.642 82.3361L14.2632 82.0604C15.7953 80.2739 16.0115 78.2094 13.78 76.8905L12.6068 76.2701L10.9505 75.8565L9.15613 75.2362L7.84487 74.4779L6.80967 73.7197L6.05052 72.8925L5.63643 71.6517L5.4294 70.342L5.63643 69.1702L5.91249 67.9983L6.53361 66.9644L7.22375 66.2061L8.12093 65.4479C10.7377 63.6809 14.4978 64.222 16.6096 66.7576L17.3687 67.6537L17.7828 68.8255L17.9209 70.0663H14.9533L14.8152 69.308C14.553 68.1362 13.4752 67.3171 12.3307 67.1022H11.7096Z" fill="#444492"/>
<path fill-rule="evenodd" clip-rule="evenodd" d="M92.2491 64.6894H101.911V67.5156H93.1463V74.0641H101.911V76.8904H93.1463V85.1621H90.1787V66.7574L90.3167 65.8612L90.7998 65.3098L91.4209 64.8273L92.2491 64.6894Z" fill="#444492"/>
<path fill-rule="evenodd" clip-rule="evenodd" d="M46.494 69.446V85.1624H43.5264V66.6199L43.6644 65.7237L44.1475 65.1723L44.6996 64.6897L45.5968 64.5519H46.0799L46.632 64.8276L46.908 65.1723L47.3911 65.5859L56.2939 80.4062L56.4319 64.6897H59.3995V83.2324L59.2615 84.1285L58.8474 84.7489L58.0882 85.1624L57.3291 85.3003H56.777L56.2939 85.1624L55.8798 84.8867L55.5347 84.4042L46.494 69.446Z" fill="#444492"/>
<path fill-rule="evenodd" clip-rule="evenodd" d="M29.9978 68.5496L27.0302 76.6835H33.1034L29.9978 68.5496ZM25.995 79.3719L23.9246 85.1621H20.75L28.0655 65.8612L28.3415 65.3098L28.8246 64.8273L29.3767 64.6894L29.9978 64.5515L30.6189 64.6894L31.1711 64.8273L31.6542 65.3098L31.9302 65.8612L39.1766 85.1621H36.071L34.0006 79.3719H25.995Z" fill="#444492"/>
<path d="M70.1478 39.4302L69.3288 38.4077L68.9535 37.9646L68.5099 37.5897C66.6024 35.9451 64.0294 36.3632 61.8216 37.0784L60.0813 37.5897L59.1941 37.8283C56.7923 38.3168 54.2717 38.0509 53.2907 35.4765L53.1542 34.7948L53.0859 34.1472L53.2224 33.4997L53.4613 32.818C54.3747 30.5441 57.8348 29.9692 59.9789 30.5685L61.0368 30.773L61.9922 31.0798C64.9195 32.0438 67.2456 34.0512 68.8852 36.6353L69.3971 37.5215L70.1478 39.4302Z" fill="#BCA36A"/>
<path fill-rule="evenodd" clip-rule="evenodd" d="M70.2842 39.8051L70.4207 40.589L70.6596 41.4752C71.2135 45.8691 69.5369 50.4981 66.0188 53.268L64.9951 54.086L63.9714 54.6654C60.0909 56.849 55.0759 56.7905 51.2432 54.529L50.356 53.9497L49.4688 53.268L50.1512 53.5066L50.8678 53.6429C54.3604 54.1888 57.3269 53.1913 59.3988 50.2686L60.2177 48.9394L60.8661 47.6442C62.4926 44.0053 63.6836 39.9914 68.3051 39.6347H69.2605L70.2842 39.8051Z" fill="#444492"/>
<path fill-rule="evenodd" clip-rule="evenodd" d="M53.0176 52.2454L52.3351 52.5521C46.9794 53.8944 44.3849 46.6114 44.7938 42.4976L44.862 41.7818L45.3739 42.4294L45.954 43.0088C48.3637 45.527 50.5641 45.3384 53.393 46.8943L53.666 47.2011L53.9048 47.4737C54.9274 48.766 54.7045 50.5395 53.666 51.7341L53.2906 51.9727L53.0176 52.2454Z" fill="#ACB317"/>
</g>
<defs>
<clipPath id="clip0">
<rect width="105.522" height="55.1042" fill="white" transform="translate(4.73926 30.3472)"/>
</clipPath>
</defs>
</svg>
