<svg width="115" height="115" viewBox="0 0 115 115" fill="none" xmlns="http://www.w3.org/2000/svg">
<g clip-path="url(#clip0)">
<path d="M22.0569 65.4861V62.0207H15.4117V49.2148H11.9805V65.4861H22.0569ZM40.3782 65.4861V62.0437H34.037V58.9225H39.7702V55.7325H34.037V52.6343H40.3565V49.2148H30.6059V65.4861H40.3782ZM53.0533 65.4861V59.4045H58.743V56.0997H53.0316V52.6573H59.5248V49.2148H49.6004V65.4861H53.0533ZM76.022 65.4861V52.6802H80.7779V49.2148H67.8567V52.6802H72.5908V65.4861H76.022ZM96.9493 65.4861V58.693L102.357 49.2148H98.5346L95.3423 55.2506L92.1935 49.2148H88.1759L93.5182 58.693V65.4861H96.9493Z" fill="#37373D"/>
</g>
<defs>
<clipPath id="clip0">
<rect width="91.0417" height="16.7708" fill="white" transform="translate(11.9795 48.7153)"/>
</clipPath>
</defs>
</svg>
